DejaVuSans-BoldOblique.ufo
<glyph name="exclam" format="2">
  <advance width="934"/>
  <unicode hex="0021"/>
  <outline>
    <contour>
      <point x="432" y="1493" type="line"/>
      <point x="793" y="1493" type="line"/>
      <point x="680" y="920" type="line"/>
      <point x="549" y="502" type="line"/>
      <point x="291" y="502" type="line"/>
      <point x="319" y="920" type="line"/>
    </contour>
    <contour>
      <point x="211" y="356" type="line"/>
      <point x="571" y="356" type="line"/>
      <point x="502" y="0" type="line"/>
      <point x="141" y="0" type="line"/>
    </contour>
  </outline>
</glyph>
<glyph name="quotedbl" format="2">
  <advance width="1067"/>
  <unicode hex="0022"/>
  <outline>
    <contour>
      <point x="635" y="938" type="line"/>
      <point x="872" y="938" type="line"/>
      <point x="872" y="1493" type="line"/>
      <point x="635" y="1493" type="line"/>
    </contour>
    <contour>
      <point x="195" y="938" type="line"/>
      <point x="432" y="938" type="line"/>
      <point x="432" y="1493" type="line"/>
      <point x="195" y="1493" type="line"/>
    </contour>
  </outline>
</glyph>
<glyph name="numbersign" format="2">
  <advance width="1425"/>
  <unicode hex="0023"/>
  <outline>
    <contour>
      <point x="1024" y="872" type="line"/>
      <point x="760" y="872" type="line"/>
      <point x="690" y="598" type="line"/>
      <point x="954" y="598" type="line"/>
    </contour>
    <contour>
      <point x="911" y="1470" type="line"/>
      <point x="815" y="1085" type="line"/>
      <point x="1079" y="1085" type="line"/>
      <point x="1176" y="1470" type="line"/>
      <point x="1397" y="1470" type="line"/>
      <point x="1300" y="1085" type="line"/>
      <point x="1597" y="1085" type="line"/>
      <point x="1544" y="872" type="line"/>
      <point x="1247" y="872" type="line"/>
      <point x="1178" y="598" type="line"/>
      <point x="1475" y="598" type="line"/>
      <point x="1421" y="383" type="line"/>
      <point x="1126" y="383" type="line"/>
      <point x="1030" y="0" type="line"/>
      <point x="809" y="0" type="line"/>
      <point x="905" y="383" type="line"/>
      <point x="641" y="383" type="line"/>
      <point x="545" y="0" type="line"/>
      <point x="322" y="0" type="line"/>
      <point x="418" y="383" type="line"/>
      <point x="133" y="383" type="line"/>
      <point x="186" y="598" type="line"/>
      <point x="467" y="598" type="line"/>
      <point x="537" y="872" type="line"/>
      <point x="254" y="872" type="line"/>
      <point x="307" y="1085" type="line"/>
      <point x="592" y="1085" type="line"/>
      <point x="688" y="1470" type="line"/>
    </contour>
  </outline>
</glyph>
<glyph name="dollar" format="2">
  <advance width="1425"/>
  <unicode hex="0024"/>
  <outline>
    <contour>
      <point x="434" y="-301" type="line"/>
      <point x="596" y="-301" type="line"/>
      <point x="654" y="0" type="line"/>
      <point x="1019" y="12"/>
      <point x="1229" y="186"/>
      <point x="1229" y="479" type="curve" smooth="yes"/>
      <point x="1229" y="658"/>
      <point x="1095" y="763"/>
      <point x="811" y="811" type="curve"/>
      <point x="868" y="1099" type="line"/>
      <point x="1027" y="1090"/>
      <point x="1157" y="1057"/>
      <point x="1241" y="1008" type="curve"/>
      <point x="1290" y="1262" type="line"/>
      <point x="1173" y="1298"/>
      <point x="1048" y="1321"/>
      <point x="913" y="1329" type="curve"/>
      <point x="956" y="1556" type="line"/>
      <point x="795" y="1556" type="line"/>
      <point x="751" y="1327" type="line"/>
      <point x="411" y="1315"/>
      <point x="197" y="1139"/>
      <point x="197" y="874" type="curve" smooth="yes"/>
      <point x="197" y="683"/>
      <point x="318" y="580"/>
      <point x="598" y="539" type="curve"/>
      <point x="537" y="228" type="line"/>
      <point x="377" y="233"/>
      <point x="232" y="275"/>
      <point x="104" y="348" type="curve"/>
      <point x="55" y="86" type="line"/>
      <point x="179" y="35"/>
      <point x="324" y="7"/>
      <point x="493" y="0" type="curve"/>
    </contour>
    <contour>
      <point x="699" y="227" type="curve"/>
      <point x="754" y="512" type="line"/>
      <point x="858" y="497"/>
      <point x="905" y="461"/>
      <point x="905" y="393" type="curve" smooth="yes"/>
      <point x="905" y="293"/>
      <point x="831" y="234"/>
    </contour>
    <contour>
      <point x="655" y="836" type="line"/>
      <point x="564" y="848"/>
      <point x="522" y="884"/>
      <point x="522" y="948" type="curve" smooth="yes"/>
      <point x="522" y="1029"/>
      <point x="594" y="1087"/>
      <point x="706" y="1098" type="curve"/>
    </contour>
  </outline>
</glyph>
<glyph name="percent" format="2">
  <advance width="2052"/>
  <unicode hex="0025"/>
  <outline>
    <contour>
      <point x="287" y="-29" type="line"/>
      <point x="532" y="-29" type="line"/>
      <point x="1767" y="1520" type="line"/>
      <point x="1522" y="1520" type="line"/>
    </contour>
    <contour>
      <point x="459" y="707" type="curve" smooth="yes"/>
      <point x="744" y="707"/>
      <point x="940" y="911"/>
      <point x="940" y="1208" type="curve" smooth="yes"/>
      <point x="940" y="1395"/>
      <point x="802" y="1520"/>
      <point x="594" y="1520" type="curve" smooth="yes"/>
      <point x="309" y="1520"/>
      <point x="113" y="1314"/>
      <point x="113" y="1018" type="curve" smooth="yes"/>
      <point x="113" y="830"/>
      <point x="250" y="707"/>
    </contour>
    <contour>
      <point x="489" y="874" type="curve" smooth="yes"/>
      <point x="408" y="874"/>
      <point x="367" y="934"/>
      <point x="367" y="1051" type="curve" smooth="yes"/>
      <point x="367" y="1227"/>
      <point x="448" y="1352"/>
      <point x="563" y="1352" type="curve" smooth="yes"/>
      <point x="643" y="1352"/>
      <point x="686" y="1292"/>
      <point x="686" y="1180" type="curve" smooth="yes"/>
      <point x="686" y="999"/>
      <point x="605" y="874"/>
    </contour>
    <contour>
      <point x="1460" y="-29" type="curve" smooth="yes"/>
      <point x="1745" y="-29"/>
      <point x="1939" y="174"/>
      <point x="1939" y="473" type="curve" smooth="yes"/>
      <point x="1939" y="660"/>
      <point x="1802" y="784"/>
      <point x="1593" y="784" type="curve" smooth="yes"/>
      <point x="1308" y="784"/>
      <point x="1114" y="581"/>
      <point x="1114" y="285" type="curve" smooth="yes"/>
      <point x="1114" y="97"/>
      <point x="1251" y="-29"/>
    </contour>
    <contour>
      <point x="1491" y="141" type="curve" smooth="yes"/>
      <point x="1408" y="141"/>
      <point x="1368" y="199"/>
      <point x="1368" y="315" type="curve" smooth="yes"/>
      <point x="1368" y="492"/>
      <point x="1450" y="616"/>
      <point x="1565" y="616" type="curve" smooth="yes"/>
      <point x="1645" y="616"/>
      <point x="1688" y="557"/>
      <point x="1688" y="444" type="curve" smooth="yes"/>
      <point x="1688" y="264"/>
      <point x="1607" y="141"/>
    </contour>
  </outline>
</glyph>
<glyph name="ampersand" format="2">
  <advance width="1786"/>
  <unicode hex="0026"/>
  <outline>
    <contour>
      <point x="600" y="-29" type="curve" smooth="yes"/>
      <point x="764" y="-29"/>
      <point x="920" y="15"/>
      <point x="1077" y="106" type="curve"/>
      <point x="1161" y="0" type="line"/>
      <point x="1599" y="0" type="line"/>
      <point x="1343" y="322" type="line"/>
      <point x="1503" y="471"/>
      <point x="1608" y="662"/>
      <point x="1665" y="895" type="curve"/>
      <point x="1354" y="895" type="line"/>
      <point x="1317" y="742"/>
      <point x="1257" y="625"/>
      <point x="1174" y="541" type="curve"/>
      <point x="877" y="915" type="line" smooth="yes"/>
      <point x="798" y="1015"/>
      <point x="758" y="1094"/>
      <point x="758" y="1145" type="curve" smooth="yes"/>
      <point x="758" y="1226"/>
      <point x="829" y="1278"/>
      <point x="944" y="1278" type="curve" smooth="yes"/>
      <point x="1049" y="1278"/>
      <point x="1152" y="1248"/>
      <point x="1268" y="1184" type="curve"/>
      <point x="1321" y="1462" type="line"/>
      <point x="1186" y="1501"/>
      <point x="1059" y="1520"/>
      <point x="938" y="1520" type="curve" smooth="yes"/>
      <point x="619" y="1520"/>
      <point x="397" y="1351"/>
      <point x="397" y="1116" type="curve" smooth="yes"/>
      <point x="397" y="1052"/>
      <point x="414" y="993"/>
      <point x="449" y="934" type="curve"/>
      <point x="181" y="782"/>
      <point x="57" y="617"/>
      <point x="57" y="416" type="curve" smooth="yes"/>
      <point x="57" y="151"/>
      <point x="273" y="-29"/>
    </contour>
    <contour>
      <point x="678" y="229" type="curve" smooth="yes"/>
      <point x="526" y="229"/>
      <point x="412" y="340"/>
      <point x="412" y="483" type="curve" smooth="yes"/>
      <point x="412" y="584"/>
      <point x="468" y="675"/>
      <point x="575" y="743" type="curve"/>
      <point x="915" y="313" type="line"/>
      <point x="836" y="257"/>
      <point x="758" y="229"/>
    </contour>
  </outline>
</glyph>
<glyph name="quotesingle" format="2">
  <advance width="627"/>
  <unicode hex="0027"/>
  <outline>
    <contour>
      <point x="432" y="1493" type="line"/>
      <point x="432" y="938" type="line"/>
      <point x="195" y="938" type="line"/>
      <point x="195" y="1493" type="line"/>
    </contour>
  </outline>
</glyph>
<glyph name="parenleft" format="2">
  <advance width="936"/>
  <unicode hex="0028"/>
  <outline>
    <contour>
      <point x="313" y="-270" type="curve"/>
      <point x="604" y="-270" type="line"/>
      <point x="532" y="-66"/>
      <point x="496" y="132"/>
      <point x="496" y="332" type="curve" smooth="yes"/>
      <point x="496" y="739"/>
      <point x="647" y="1141"/>
      <point x="958" y="1554" type="curve"/>
      <point x="668" y="1554" type="line"/>
      <point x="327" y="1158"/>
      <point x="158" y="766"/>
      <point x="158" y="373" type="curve" smooth="yes"/>
      <point x="158" y="162"/>
      <point x="209" y="-49"/>
    </contour>
  </outline>
</glyph>
<glyph name="parenright" format="2">
  <advance width="936"/>
  <unicode hex="0029"/>
  <outline>
    <contour>
      <point x="-55" y="-270" type="curve"/>
      <point x="238" y="-270" type="line"/>
      <point x="577" y="122"/>
      <point x="745" y="514"/>
      <point x="745" y="911" type="curve" smooth="yes"/>
      <point x="745" y="1124"/>
      <point x="695" y="1335"/>
      <point x="592" y="1554" type="curve"/>
      <point x="299" y="1554" type="line"/>
      <point x="372" y="1350"/>
      <point x="408" y="1154"/>
      <point x="408" y="954" type="curve" smooth="yes"/>
      <point x="408" y="546"/>
      <point x="256" y="143"/>
    </contour>
  </outline>
</glyph>
<glyph name="asterisk" format="2">
  <advance width="1071"/>
  <unicode hex="002A"/>
  <outline>
    <contour>
      <point x="1030" y="1217" type="line"/>
      <point x="700" y="1044" type="line"/>
      <point x="1030" y="870" type="line"/>
      <point x="954" y="729" type="line"/>
      <point x="621" y="913" type="line"/>
      <point x="621" y="569" type="line"/>
      <point x="451" y="569" type="line"/>
      <point x="451" y="913" type="line"/>
      <point x="117" y="729" type="line"/>
      <point x="41" y="870" type="line"/>
      <point x="375" y="1044" type="line"/>
      <point x="41" y="1217" type="line"/>
      <point x="117" y="1358" type="line"/>
      <point x="451" y="1176" type="line"/>
      <point x="451" y="1520" type="line"/>
      <point x="621" y="1520" type="line"/>
      <point x="621" y="1176" type="line"/>
      <point x="954" y="1358" type="line"/>
    </contour>
  </outline>
</glyph>
<glyph name="plus" format="2">
  <advance width="1716"/>
  <unicode hex="002B"/>
  <outline>
    <contour>
      <point x="739" y="0" type="line"/>
      <point x="977" y="0" type="line"/>
      <point x="977" y="524" type="line"/>
      <point x="1499" y="524" type="line"/>
      <point x="1499" y="760" type="line"/>
      <point x="977" y="760" type="line"/>
      <point x="977" y="1284" type="line"/>
      <point x="739" y="1284" type="line"/>
      <point x="739" y="760" type="line"/>
      <point x="217" y="760" type="line"/>
      <point x="217" y="524" type="line"/>
      <point x="739" y="524" type="line"/>
    </contour>
  </outline>
</glyph>
<glyph name="comma" format="2">
  <advance width="778"/>
  <unicode hex="002C"/>
  <outline>
    <contour>
      <point x="164" y="387" type="line"/>
      <point x="524" y="387" type="line"/>
      <point x="465" y="82" type="line"/>
      <point x="143" y="-291" type="line"/>
      <point x="-70" y="-291" type="line"/>
      <point x="104" y="82" type="line"/>
    </contour>
  </outline>
</glyph>
<glyph name="period" format="2">
  <advance width="778"/>
  <unicode hex="002E"/>
  <outline>
    <contour>
      <point x="94" y="0" type="line"/>
      <point x="455" y="0" type="line"/>
      <point x="530" y="387" type="line"/>
      <point x="170" y="387" type="line"/>
    </contour>
  </outline>
</glyph>
<glyph name="slash" format="2">
  <advance width="748"/>
  <unicode hex="002F"/>
  <outline>
    <contour>
      <point x="657" y="1493" type="line"/>
      <point x="889" y="1493" type="line"/>
      <point x="35" y="-190" type="line"/>
      <point x="-197" y="-190" type="line"/>
    </contour>
  </outline>
</glyph>
<glyph name="zero" format="2">
  <advance width="1425"/>
  <unicode hex="0030"/>
  <anchor x="568" y="0" name="below"/>
  <anchor x="864" y="1520" name="above"/>
  <outline>
    <contour>
      <point x="580" y="-29" type="curve" smooth="yes"/>
      <point x="815" y="-29"/>
      <point x="1008" y="71"/>
      <point x="1143" y="266" type="curve" smooth="yes"/>
      <point x="1275" y="455"/>
      <point x="1352" y="718"/>
      <point x="1352" y="983" type="curve" smooth="yes"/>
      <point x="1352" y="1327"/>
      <point x="1170" y="1520"/>
      <point x="846" y="1520" type="curve" smooth="yes"/>
      <point x="609" y="1520"/>
      <point x="418" y="1419"/>
      <point x="281" y="1223" type="curve" smooth="yes"/>
      <point x="150" y="1036"/>
      <point x="74" y="771"/>
      <point x="74" y="510" type="curve" smooth="yes"/>
      <point x="74" y="162"/>
      <point x="253" y="-29"/>
    </contour>
    <contour>
      <point x="612" y="233" type="curve" smooth="yes"/>
      <point x="500" y="233"/>
      <point x="446" y="303"/>
      <point x="446" y="451" type="curve" smooth="yes"/>
      <point x="446" y="522"/>
      <point x="458" y="628"/>
      <point x="481" y="748" type="curve" smooth="yes"/>
      <point x="505" y="879"/>
      <point x="538" y="990"/>
      <point x="578" y="1077" type="curve" smooth="yes"/>
      <point x="630" y="1198"/>
      <point x="709" y="1257"/>
      <point x="813" y="1257" type="curve" smooth="yes"/>
      <point x="925" y="1257"/>
      <point x="977" y="1189"/>
      <point x="977" y="1040" type="curve" smooth="yes"/>
      <point x="977" y="969"/>
      <point x="965" y="867"/>
      <point x="942" y="748" type="curve" smooth="yes"/>
      <point x="915" y="601"/>
      <point x="885" y="498"/>
      <point x="848" y="414" type="curve" smooth="yes"/>
      <point x="795" y="295"/>
      <point x="715" y="233"/>
    </contour>
  </outline>
</glyph>
<glyph name="one" format="2">
  <advance width="1425"/>
  <unicode hex="0031"/>
  <anchor x="568" y="0" name="below"/>
  <anchor x="864" y="1520" name="above"/>
  <outline>
    <contour>
      <point x="141" y="266" type="line"/>
      <point x="481" y="266" type="line"/>
      <point x="668" y="1231" type="line"/>
      <point x="305" y="1159" type="line"/>
      <point x="356" y="1421" type="line"/>
      <point x="717" y="1493" type="line"/>
      <point x="1083" y="1493" type="line"/>
      <point x="846" y="266" type="line"/>
      <point x="1184" y="266" type="line"/>
      <point x="1133" y="0" type="line"/>
      <point x="88" y="0" type="line"/>
    </contour>
  </outline>
</glyph>
<glyph name="two" format="2">
  <advance width="1425"/>
  <unicode hex="0032"/>
  <anchor x="568" y="0" name="below"/>
  <anchor x="864" y="1520" name="above"/>
  <outline>
    <contour>
      <point x="16" y="0" type="line"/>
      <point x="1100" y="0" type="line"/>
      <point x="1155" y="283" type="line"/>
      <point x="506" y="283" type="line"/>
      <point x="879" y="563" type="line" smooth="yes"/>
      <point x="1242" y="835"/>
      <point x="1311" y="958"/>
      <point x="1311" y="1153" type="curve" smooth="yes"/>
      <point x="1311" y="1380"/>
      <point x="1125" y="1520"/>
      <point x="821" y="1520" type="curve" smooth="yes"/>
      <point x="650" y="1520"/>
      <point x="476" y="1488"/>
      <point x="295" y="1421" type="curve"/>
      <point x="231" y="1104" type="line"/>
      <point x="427" y="1208"/>
      <point x="580" y="1257"/>
      <point x="707" y="1257" type="curve" smooth="yes"/>
      <point x="842" y="1257"/>
      <point x="920" y="1194"/>
      <point x="920" y="1085" type="curve" smooth="yes"/>
      <point x="920" y="982"/>
      <point x="846" y="871"/>
      <point x="707" y="764" type="curve" smooth="yes"/>
      <point x="72" y="285" type="line"/>
    </contour>
  </outline>
</glyph>
<glyph name="three" format="2">
  <advance width="1425"/>
  <unicode hex="0033"/>
  <anchor x="568" y="0" name="below"/>
  <anchor x="864" y="1520" name="above"/>
  <outline>
    <contour>
      <point x="469" y="-29" type="curve" smooth="yes"/>
      <point x="928" y="-29"/>
      <point x="1206" y="175"/>
      <point x="1206" y="506" type="curve" smooth="yes"/>
      <point x="1206" y="659"/>
      <point x="1118" y="770"/>
      <point x="967" y="805" type="curve"/>
      <point x="1182" y="849"/>
      <point x="1305" y="987"/>
      <point x="1305" y="1186" type="curve" smooth="yes"/>
      <point x="1305" y="1407"/>
      <point x="1134" y="1520"/>
      <point x="797" y="1520" type="curve" smooth="yes"/>
      <point x="648" y="1520"/>
      <point x="495" y="1499"/>
      <point x="338" y="1456" type="curve"/>
      <point x="283" y="1174" type="line"/>
      <point x="427" y="1230"/>
      <point x="563" y="1260"/>
      <point x="676" y="1260" type="curve" smooth="yes"/>
      <point x="837" y="1260"/>
      <point x="924" y="1205"/>
      <point x="924" y="1104" type="curve" smooth="yes"/>
      <point x="924" y="975"/>
      <point x="793" y="893"/>
      <point x="584" y="893" type="curve" smooth="yes"/>
      <point x="422" y="893" type="line"/>
      <point x="373" y="645" type="line"/>
      <point x="526" y="645" type="line" smooth="yes"/>
      <point x="727" y="645"/>
      <point x="827" y="586"/>
      <point x="827" y="467" type="curve" smooth="yes"/>
      <point x="827" y="324"/>
      <point x="686" y="233"/>
      <point x="461" y="233" type="curve" smooth="yes"/>
      <point x="321" y="233"/>
      <point x="176" y="273"/>
      <point x="57" y="342" type="curve"/>
      <point x="0" y="45" type="line"/>
      <point x="139" y="-4"/>
      <point x="296" y="-29"/>
    </contour>
  </outline>
</glyph>
<glyph name="four" format="2">
  <advance width="1425"/>
  <unicode hex="0034"/>
  <anchor x="568" y="0" name="below"/>
  <anchor x="864" y="1520" name="above"/>
  <outline>
    <contour>
      <point x="616" y="0" type="line"/>
      <point x="981" y="0" type="line"/>
      <point x="1034" y="272" type="line"/>
      <point x="1247" y="272" type="line"/>
      <point x="1300" y="551" type="line"/>
      <point x="1087" y="551" type="line"/>
      <point x="1272" y="1493" type="line"/>
      <point x="834" y="1493" type="line"/>
      <point x="63" y="602" type="line"/>
      <point x="-2" y="272" type="line"/>
      <point x="670" y="272" type="line"/>
    </contour>
    <contour>
      <point x="313" y="551" type="line"/>
      <point x="844" y="1165" type="line"/>
      <point x="723" y="551" type="line"/>
    </contour>
  </outline>
</glyph>
<glyph name="five" format="2">
  <advance width="1425"/>
  <unicode hex="0035"/>
  <anchor x="568" y="0" name="below"/>
  <anchor x="864" y="1520" name="above"/>
  <outline>
    <contour>
      <point x="362" y="1493" type="line"/>
      <point x="1319" y="1493" type="line"/>
      <point x="1264" y="1210" type="line"/>
      <point x="614" y="1210" type="line"/>
      <point x="569" y="979" type="line"/>
      <point x="613" y="991"/>
      <point x="708" y="1004"/>
      <point x="756" y="1004" type="qcurve" smooth="yes"/>
      <point x="985" y="1004"/>
      <point x="1243" y="795"/>
      <point x="1243" y="610" type="qcurve" smooth="yes"/>
      <point x="1243" y="316"/>
      <point x="845" y="-29"/>
      <point x="504" y="-29" type="qcurve" smooth="yes"/>
      <point x="379" y="-29"/>
      <point x="143" y="20"/>
      <point x="27" y="70" type="qcurve"/>
      <point x="86" y="373" type="line"/>
      <point x="197" y="301"/>
      <point x="406" y="233"/>
      <point x="514" y="233" type="qcurve" smooth="yes"/>
      <point x="672" y="233"/>
      <point x="862" y="398"/>
      <point x="862" y="532" type="qcurve" smooth="yes"/>
      <point x="862" y="628"/>
      <point x="718" y="741"/>
      <point x="594" y="741" type="qcurve" smooth="yes"/>
      <point x="510" y="741"/>
      <point x="315" y="698"/>
      <point x="199" y="653" type="qcurve"/>
    </contour>
  </outline>
</glyph>
<glyph name="six" format="2">
  <advance width="1425"/>
  <unicode hex="0036"/>
  <anchor x="568" y="0" name="below"/>
  <anchor x="864" y="1520" name="above"/>
  <outline>
    <contour>
      <point x="637" y="-31" type="curve" smooth="yes"/>
      <point x="1016" y="-31"/>
      <point x="1282" y="230"/>
      <point x="1282" y="598" type="curve" smooth="yes"/>
      <point x="1282" y="823"/>
      <point x="1109" y="985"/>
      <point x="864" y="985" type="curve" smooth="yes"/>
      <point x="740" y="985"/>
      <point x="632" y="953"/>
      <point x="528" y="885" type="curve"/>
      <point x="561" y="1126"/>
      <point x="721" y="1266"/>
      <point x="969" y="1266" type="curve" smooth="yes"/>
      <point x="1077" y="1266"/>
      <point x="1183" y="1237"/>
      <point x="1298" y="1178" type="curve"/>
      <point x="1352" y="1454" type="line"/>
      <point x="1231" y="1497"/>
      <point x="1114" y="1518"/>
      <point x="989" y="1518" type="curve" smooth="yes"/>
      <point x="717" y="1518"/>
      <point x="498" y="1422"/>
      <point x="338" y="1231" type="curve" smooth="yes"/>
      <point x="189" y="1052"/>
      <point x="102" y="794"/>
      <point x="102" y="522" type="curve" smooth="yes"/>
      <point x="102" y="170"/>
      <point x="297" y="-31"/>
    </contour>
    <contour>
      <point x="651" y="213" type="curve" smooth="yes"/>
      <point x="544" y="213"/>
      <point x="481" y="282"/>
      <point x="481" y="401" type="curve" smooth="yes"/>
      <point x="481" y="598"/>
      <point x="589" y="737"/>
      <point x="741" y="737" type="curve" smooth="yes"/>
      <point x="850" y="737"/>
      <point x="911" y="667"/>
      <point x="911" y="539" type="curve" smooth="yes"/>
      <point x="911" y="351"/>
      <point x="802" y="213"/>
    </contour>
  </outline>
</glyph>
<glyph name="seven" format="2">
  <advance width="1425"/>
  <unicode hex="0037"/>
  <anchor x="568" y="0" name="below"/>
  <anchor x="864" y="1520" name="above"/>
  <outline>
    <contour>
      <point x="160" y="0" type="line"/>
      <point x="545" y="0" type="line"/>
      <point x="1376" y="1274" type="line"/>
      <point x="1421" y="1493" type="line"/>
      <point x="295" y="1493" type="line"/>
      <point x="242" y="1210" type="line"/>
      <point x="950" y="1210" type="line"/>
    </contour>
  </outline>
</glyph>
<glyph name="eight" format="2">
  <advance width="1425"/>
  <unicode hex="0038"/>
  <anchor x="568" y="0" name="below"/>
  <anchor x="864" y="1520" name="above"/>
  <outline>
    <contour>
      <point x="688" y="668" type="qcurve" smooth="yes"/>
      <point x="571" y="668"/>
      <point x="414" y="509"/>
      <point x="414" y="393" type="qcurve" smooth="yes"/>
      <point x="414" y="310"/>
      <point x="516" y="213"/>
      <point x="604" y="213" type="qcurve" smooth="yes"/>
      <point x="723" y="213"/>
      <point x="879" y="370"/>
      <point x="879" y="487" type="qcurve" smooth="yes"/>
      <point x="879" y="570"/>
      <point x="776" y="668"/>
    </contour>
    <contour>
      <point x="442" y="795" type="qcurve"/>
      <point x="334" y="840"/>
      <point x="227" y="984"/>
      <point x="227" y="1085" type="qcurve" smooth="yes"/>
      <point x="227" y="1288"/>
      <point x="560" y="1520"/>
      <point x="854" y="1520" type="qcurve" smooth="yes"/>
      <point x="1090" y="1520"/>
      <point x="1350" y="1344"/>
      <point x="1350" y="1184" type="qcurve" smooth="yes"/>
      <point x="1350" y="1042"/>
      <point x="1169" y="840"/>
      <point x="1001" y="795" type="qcurve"/>
      <point x="1123" y="748"/>
      <point x="1239" y="590"/>
      <point x="1239" y="469" type="qcurve" smooth="yes"/>
      <point x="1239" y="239"/>
      <point x="880" y="-29"/>
      <point x="567" y="-29" type="qcurve" smooth="yes"/>
      <point x="320" y="-29"/>
      <point x="45" y="168"/>
      <point x="45" y="344" type="qcurve" smooth="yes"/>
      <point x="45" y="503"/>
      <point x="256" y="742"/>
    </contour>
    <contour>
      <point x="819" y="1278" type="qcurve" smooth="yes"/>
      <point x="717" y="1278"/>
      <point x="594" y="1159"/>
      <point x="594" y="1061" type="qcurve" smooth="yes"/>
      <point x="594" y="993"/>
      <point x="683" y="909"/>
      <point x="756" y="909" type="qcurve" smooth="yes"/>
      <point x="858" y="909"/>
      <point x="981" y="1028"/>
      <point x="981" y="1126" type="qcurve" smooth="yes"/>
      <point x="981" y="1195"/>
      <point x="892" y="1278"/>
    </contour>
  </outline>
</glyph>
<glyph name="nine" format="2">
  <advance width="1425"/>
  <unicode hex="0039"/>
  <anchor x="568" y="0" name="below"/>
  <anchor x="864" y="1520" name="above"/>
  <outline>
    <contour>
      <point x="449" y="-31" type="curve" smooth="yes"/>
      <point x="721" y="-31"/>
      <point x="938" y="65"/>
      <point x="1098" y="256" type="curve" smooth="yes"/>
      <point x="1249" y="436"/>
      <point x="1335" y="694"/>
      <point x="1335" y="965" type="curve" smooth="yes"/>
      <point x="1335" y="1317"/>
      <point x="1141" y="1518"/>
      <point x="801" y="1518" type="curve" smooth="yes"/>
      <point x="422" y="1518"/>
      <point x="156" y="1257"/>
      <point x="156" y="889" type="curve" smooth="yes"/>
      <point x="156" y="664"/>
      <point x="329" y="502"/>
      <point x="573" y="502" type="curve" smooth="yes"/>
      <point x="697" y="502"/>
      <point x="804" y="534"/>
      <point x="907" y="602" type="curve"/>
      <point x="875" y="361"/>
      <point x="715" y="221"/>
      <point x="467" y="221" type="curve" smooth="yes"/>
      <point x="359" y="221"/>
      <point x="253" y="249"/>
      <point x="137" y="309" type="curve"/>
      <point x="84" y="33" type="line"/>
      <point x="204" y="-10"/>
      <point x="322" y="-31"/>
    </contour>
    <contour>
      <point x="694" y="750" type="curve" smooth="yes"/>
      <point x="585" y="750"/>
      <point x="524" y="820"/>
      <point x="524" y="948" type="curve" smooth="yes"/>
      <point x="524" y="1135"/>
      <point x="635" y="1274"/>
      <point x="786" y="1274" type="curve" smooth="yes"/>
      <point x="894" y="1274"/>
      <point x="954" y="1206"/>
      <point x="954" y="1085" type="curve" smooth="yes"/>
      <point x="954" y="889"/>
      <point x="846" y="750"/>
    </contour>
  </outline>
</glyph>
<glyph name="colon" format="2">
  <advance width="819"/>
  <unicode hex="003A"/>
  <outline>
    <contour>
      <point x="301" y="1120" type="line"/>
      <point x="662" y="1120" type="line"/>
      <point x="588" y="733" type="line"/>
      <point x="227" y="733" type="line"/>
    </contour>
    <contour>
      <point x="160" y="387" type="line"/>
      <point x="520" y="387" type="line"/>
      <point x="444" y="0" type="line"/>
      <point x="84" y="0" type="line"/>
    </contour>
  </outline>
</glyph>
<glyph name="greater" format="2">
  <advance width="1716"/>
  <unicode hex="003E"/>
  <outline>
    <contour>
      <point x="217" y="61" type="line"/>
      <point x="1499" y="524" type="line"/>
      <point x="1499" y="760" type="line"/>
      <point x="217" y="1223" type="line"/>
      <point x="217" y="973" type="line"/>
      <point x="1182" y="641" type="line"/>
      <point x="217" y="311" type="line"/>
    </contour>
  </outline>
</glyph>
<glyph name="question" format="2">
  <advance width="1188"/>
  <unicode hex="003F"/>
  <outline>
    <contour>
      <point x="311" y="504" type="line"/>
      <point x="672" y="504" type="line"/>
      <point x="680" y="549" type="line" smooth="yes"/>
      <point x="691" y="606"/>
      <point x="718" y="648"/>
      <point x="825" y="731" type="curve" smooth="yes"/>
      <point x="901" y="791" type="line" smooth="yes"/>
      <point x="1072" y="927"/>
      <point x="1135" y="1041"/>
      <point x="1135" y="1200" type="curve" smooth="yes"/>
      <point x="1135" y="1399"/>
      <point x="980" y="1520"/>
      <point x="721" y="1520" type="curve" smooth="yes"/>
      <point x="592" y="1520"/>
      <point x="456" y="1494"/>
      <point x="287" y="1438" type="curve"/>
      <point x="225" y="1124" type="line"/>
      <point x="378" y="1212"/>
      <point x="514" y="1257"/>
      <point x="621" y="1257" type="curve" smooth="yes"/>
      <point x="722" y="1257"/>
      <point x="778" y="1215"/>
      <point x="778" y="1139" type="curve" smooth="yes"/>
      <point x="778" y="1067"/>
      <point x="732" y="999"/>
      <point x="627" y="918" type="curve" smooth="yes"/>
      <point x="553" y="860" type="line" smooth="yes"/>
      <point x="378" y="724"/>
      <point x="340" y="660"/>
      <point x="319" y="553" type="curve"/>
    </contour>
    <contour>
      <point x="213" y="0" type="line"/>
      <point x="573" y="0" type="line"/>
      <point x="643" y="356" type="line"/>
      <point x="283" y="356" type="line"/>
    </contour>
  </outline>
</glyph>
<glyph name="at" format="2">
  <advance width="2048"/>
  <unicode hex="0040"/>
  <outline>
    <contour>
      <point x="1034" y="801" type="qcurve" smooth="yes"/>
      <point x="928" y="801"/>
      <point x="776" y="591"/>
      <point x="776" y="446" type="qcurve" smooth="yes"/>
      <point x="776" y="362"/>
      <point x="857" y="274"/>
      <point x="934" y="274" type="qcurve" smooth="yes"/>
      <point x="1040" y="274"/>
      <point x="1188" y="475"/>
      <point x="1188" y="621" type="qcurve" smooth="yes"/>
      <point x="1188" y="707"/>
      <point x="1108" y="801"/>
    </contour>
    <contour>
      <point x="1147" y="246" type="line"/>
      <point x="1102" y="171"/>
      <point x="952" y="88"/>
      <point x="862" y="88" type="qcurve" smooth="yes"/>
      <point x="719" y="88"/>
      <point x="555" y="277"/>
      <point x="555" y="444" type="qcurve" smooth="yes"/>
      <point x="555" y="665"/>
      <point x="839" y="987"/>
      <point x="1036" y="987" type="qcurve" smooth="yes"/>
      <point x="1119" y="987"/>
      <point x="1244" y="903"/>
      <point x="1264" y="834" type="qcurve"/>
      <point x="1288" y="967" type="line"/>
      <point x="1491" y="967" type="line"/>
      <point x="1358" y="274" type="line"/>
      <point x="1509" y="296"/>
      <point x="1712" y="579"/>
      <point x="1712" y="770" type="qcurve" smooth="yes"/>
      <point x="1712" y="983"/>
      <point x="1383" y="1253"/>
      <point x="1120" y="1253" type="qcurve" smooth="yes"/>
      <point x="924" y="1253"/>
      <point x="587" y="1101"/>
      <point x="469" y="958" type="qcurve" smooth="yes"/>
      <point x="377" y="848"/>
      <point x="281" y="584"/>
      <point x="281" y="442" type="qcurve" smooth="yes"/>
      <point x="281" y="173"/>
      <point x="612" y="-168"/>
      <point x="872" y="-168" type="qcurve" smooth="yes"/>
      <point x="990" y="-168"/>
      <point x="1221" y="-81"/>
      <point x="1325" y="2" type="qcurve"/>
      <point x="1434" y="-156" type="line"/>
      <point x="1288" y="-254"/>
      <point x="1002" y="-352"/>
      <point x="860" y="-352" type="qcurve" smooth="yes"/>
      <point x="725" y="-352"/>
      <point x="475" y="-270"/>
      <point x="377" y="-193" type="qcurve" smooth="yes"/>
      <point x="237" y="-85"/>
      <point x="92" y="233"/>
      <point x="92" y="434" type="qcurve" smooth="yes"/>
      <point x="92" y="610"/>
      <point x="212" y="938"/>
      <point x="326" y="1075" type="qcurve" smooth="yes"/>
      <point x="472" y="1251"/>
      <point x="883" y="1440"/>
      <point x="1120" y="1440" type="qcurve" smooth="yes"/>
      <point x="1286" y="1440"/>
      <point x="1568" y="1347"/>
      <point x="1679" y="1255" type="qcurve"/>
      <point x="1784" y="1166"/>
      <point x="1898" y="927"/>
      <point x="1898" y="797" type="qcurve" smooth="yes"/>
      <point x="1898" y="482"/>
      <point x="1489" y="88"/>
      <point x="1157" y="88" type="qcurve" smooth="yes"/>
      <point x="1152" y="88"/>
      <point x="1134" y="86"/>
      <point x="1130" y="86" type="qcurve" smooth="yes"/>
      <point x="1125" y="86"/>
      <point x="1118" y="87"/>
      <point x="1116" y="88" type="qcurve"/>
    </contour>
  </outline>
</glyph>
<glyph name="A" format="2">
  <advance width="1585"/>
  <unicode hex="0041"/>
  <anchor x="1128" y="0" name="ogonek"/>
  <anchor x="1232" y="0" name="cedilla"/>
  <anchor x="295" y="1520" name="half"/>
  <anchor x="644.896" y="0" name="below"/>
  <anchor x="937" y="1520" name="above"/>
  <outline>
    <contour>
      <point x="1006" y="272" type="line"/>
      <point x="410" y="272" type="line"/>
      <point x="262" y="0" type="line"/>
      <point x="-133" y="0" type="line"/>
      <point x="711" y="1493" type="line"/>
      <point x="1151" y="1493" type="line"/>
      <point x="1415" y="0" type="line"/>
      <point x="1049" y="0" type="line"/>
    </contour>
    <contour>
      <point x="555" y="543" type="line"/>
      <point x="956" y="543" type="line"/>
      <point x="866" y="1118" type="line"/>
    </contour>
  </outline>
</glyph>
<glyph name="B" format="2">
  <advance width="1561"/>
  <unicode hex="0042"/>
  <anchor x="655" y="0" name="below"/>
  <anchor x="295" y="1520" name="half"/>
  <anchor x="950" y="1520" name="above"/>
  <outline>
    <contour>
      <point x="43" y="0" type="line"/>
      <point x="682" y="0" type="line" smooth="yes"/>
      <point x="1115" y="0"/>
      <point x="1366" y="191"/>
      <point x="1366" y="512" type="curve" smooth="yes"/>
      <point x="1366" y="659"/>
      <point x="1292" y="762"/>
      <point x="1161" y="799" type="curve"/>
      <point x="1322" y="840"/>
      <point x="1432" y="991"/>
      <point x="1432" y="1174" type="curve" smooth="yes"/>
      <point x="1432" y="1391"/>
      <point x="1266" y="1493"/>
      <point x="911" y="1493" type="curve" smooth="yes"/>
      <point x="334" y="1493" type="line"/>
    </contour>
    <contour>
      <point x="477" y="262" type="line"/>
      <point x="553" y="653" type="line"/>
      <point x="780" y="653" type="line" smooth="yes"/>
      <point x="915" y="653"/>
      <point x="979" y="606"/>
      <point x="979" y="506" type="curve" smooth="yes"/>
      <point x="979" y="349"/>
      <point x="881" y="262"/>
      <point x="705" y="262" type="curve" smooth="yes"/>
    </contour>
    <contour>
      <point x="604" y="915" type="line"/>
      <point x="666" y="1231" type="line"/>
      <point x="881" y="1231" type="line" smooth="yes"/>
      <point x="982" y="1231"/>
      <point x="1038" y="1189"/>
      <point x="1038" y="1110" type="curve" smooth="yes"/>
      <point x="1038" y="989"/>
      <point x="956" y="915"/>
      <point x="819" y="915" type="curve" smooth="yes"/>
    </contour>
  </outline>
</glyph>
<glyph name="C" format="2">
  <advance width="1503"/>
  <unicode hex="0043"/>
  <anchor x="764" y="0" name="below"/>
  <anchor x="295" y="1520" name="half"/>
  <anchor x="1076" y="1520" name="above"/>
  <outline>
    <contour>
      <point x="735" y="-29" type="curve" smooth="yes"/>
      <point x="887" y="-29"/>
      <point x="1057" y="5"/>
      <point x="1241" y="70" type="curve"/>
      <point x="1307" y="401" type="line"/>
      <point x="1119" y="297"/>
      <point x="973" y="250"/>
      <point x="838" y="250" type="curve" smooth="yes"/>
      <point x="613" y="250"/>
      <point x="477" y="389"/>
      <point x="477" y="618" type="curve" smooth="yes"/>
      <point x="477" y="974"/>
      <point x="712" y="1241"/>
      <point x="1020" y="1241" type="curve" smooth="yes"/>
      <point x="1168" y="1241"/>
      <point x="1293" y="1197"/>
      <point x="1421" y="1100" type="curve"/>
      <point x="1483" y="1409" type="line"/>
      <point x="1322" y="1484"/>
      <point x="1167" y="1520"/>
      <point x="1012" y="1520" type="curve" smooth="yes"/>
      <point x="728" y="1520"/>
      <point x="474" y="1405"/>
      <point x="299" y="1200" type="curve" smooth="yes"/>
      <point x="151" y="1025"/>
      <point x="74" y="812"/>
      <point x="74" y="573" type="curve" smooth="yes"/>
      <point x="74" y="210"/>
      <point x="334" y="-29"/>
    </contour>
  </outline>
</glyph>
<glyph name="D" format="2">
  <advance width="1700"/>
  <unicode hex="0044"/>
  <anchor x="378" y="0" name="cedilla"/>
  <anchor x="632" y="0" name="below"/>
  <anchor x="295" y="1520" name="half"/>
  <anchor x="980" y="1520" name="above"/>
  <outline>
    <contour>
      <point x="43" y="0" type="line"/>
      <point x="449" y="0" type="line" smooth="yes"/>
      <point x="932" y="0"/>
      <point x="1116" y="56"/>
      <point x="1292" y="201" type="curve" smooth="yes"/>
      <point x="1493" y="364"/>
      <point x="1610" y="614"/>
      <point x="1610" y="885" type="curve" smooth="yes"/>
      <point x="1610" y="1080"/>
      <point x="1544" y="1235"/>
      <point x="1415" y="1343" type="curve" smooth="yes"/>
      <point x="1287" y="1451"/>
      <point x="1126" y="1493"/>
      <point x="739" y="1493" type="curve" smooth="yes"/>
      <point x="334" y="1493" type="line"/>
    </contour>
    <contour>
      <point x="485" y="291" type="line"/>
      <point x="664" y="1202" type="line"/>
      <point x="799" y="1202" type="line" smooth="yes"/>
      <point x="1068" y="1202"/>
      <point x="1206" y="1082"/>
      <point x="1206" y="850" type="curve" smooth="yes"/>
      <point x="1206" y="507"/>
      <point x="982" y="291"/>
      <point x="623" y="291" type="curve" smooth="yes"/>
    </contour>
  </outline>
</glyph>
<glyph name="E" format="2">
  <advance width="1399"/>
  <unicode hex="0045"/>
  <anchor x="903" y="0" name="cedilla"/>
  <anchor x="903" y="0" name="ogonek"/>
  <anchor x="295" y="1520" name="half"/>
  <anchor x="545" y="0" name="below"/>
  <anchor x="896" y="1520" name="above"/>
  <outline>
    <contour>
      <point x="334" y="1493" type="line"/>
      <point x="1372" y="1493" type="line"/>
      <point x="1315" y="1202" type="line"/>
      <point x="662" y="1202" type="line"/>
      <point x="608" y="924" type="line"/>
      <point x="1223" y="924" type="line"/>
      <point x="1165" y="633" type="line"/>
      <point x="551" y="633" type="line"/>
      <point x="485" y="291" type="line"/>
      <point x="1159" y="291" type="line"/>
      <point x="1104" y="0" type="line"/>
      <point x="43" y="0" type="line"/>
    </contour>
  </outline>
</glyph>
<glyph name="F" format="2">
  <advance width="1399"/>
  <unicode hex="0046"/>
  <anchor x="295" y="1520" name="half"/>
  <anchor x="235" y="0" name="below"/>
  <anchor x="840" y="1520" name="above"/>
  <outline>
    <contour>
      <point x="334" y="1493" type="line"/>
      <point x="1372" y="1493" type="line"/>
      <point x="1315" y="1202" type="line"/>
      <point x="662" y="1202" type="line"/>
      <point x="608" y="924" type="line"/>
      <point x="1223" y="924" type="line"/>
      <point x="1165" y="633" type="line"/>
      <point x="551" y="633" type="line"/>
      <point x="428" y="0" type="line"/>
      <point x="43" y="0" type="line"/>
    </contour>
  </outline>
</glyph>
<glyph name="G" format="2">
  <advance width="1681"/>
  <unicode hex="0047"/>
  <anchor x="295" y="1520" name="half"/>
  <anchor x="1081" y="1520" name="above"/>
  <anchor x="785" y="0" name="below"/>
  <outline>
    <contour>
      <point x="1395" y="111" type="line"/>
      <point x="1249" y="40"/>
      <point x="935" y="-29"/>
      <point x="756" y="-29" type="qcurve" smooth="yes"/>
      <point x="438" y="-29"/>
      <point x="74" y="294"/>
      <point x="74" y="573" type="qcurve" smooth="yes"/>
      <point x="74" y="754"/>
      <point x="188" y="1071"/>
      <point x="301" y="1202" type="qcurve" smooth="yes"/>
      <point x="439" y="1362"/>
      <point x="814" y="1520"/>
      <point x="1055" y="1520" type="qcurve" smooth="yes"/>
      <point x="1189" y="1520"/>
      <point x="1461" y="1464"/>
      <point x="1593" y="1409" type="qcurve"/>
      <point x="1534" y="1100" type="line"/>
      <point x="1412" y="1171"/>
      <point x="1179" y="1241"/>
      <point x="1061" y="1241" type="qcurve" smooth="yes"/>
      <point x="803" y="1241"/>
      <point x="479" y="897"/>
      <point x="479" y="627" type="qcurve" smooth="yes"/>
      <point x="479" y="448"/>
      <point x="668" y="250"/>
      <point x="840" y="250" type="qcurve" smooth="yes"/>
      <point x="896" y="250"/>
      <point x="1008" y="265"/>
      <point x="1065" y="281" type="qcurve"/>
      <point x="1122" y="571" type="line"/>
      <point x="887" y="571" type="line"/>
      <point x="936" y="829" type="line"/>
      <point x="1534" y="829" type="line"/>
    </contour>
  </outline>
</glyph>
<glyph name="H" format="2">
  <advance width="1714"/>
  <unicode hex="0048"/>
  <anchor x="235" y="0" name="cedilla"/>
  <anchor x="710" y="0" name="below"/>
  <anchor x="295" y="1520" name="half"/>
  <anchor x="1005" y="1520" name="above"/>
  <outline>
    <contour>
      <point x="43" y="0" type="line"/>
      <point x="428" y="0" type="line"/>
      <point x="551" y="633" type="line"/>
      <point x="1118" y="633" type="line"/>
      <point x="995" y="0" type="line"/>
      <point x="1380" y="0" type="line"/>
      <point x="1671" y="1493" type="line"/>
      <point x="1286" y="1493" type="line"/>
      <point x="1176" y="924" type="line"/>
      <point x="608" y="924" type="line"/>
      <point x="719" y="1493" type="line"/>
      <point x="334" y="1493" type="line"/>
    </contour>
  </outline>
</glyph>
<glyph name="I" format="2">
  <advance width="762"/>
  <unicode hex="0049"/>
  <anchor x="357" y="0" name="ogonek"/>
  <anchor x="234" y="0" name="below"/>
  <anchor x="295" y="1520" name="half"/>
  <anchor x="539" y="1520" name="above"/>
  <outline>
    <contour>
      <point x="43" y="0" type="line"/>
      <point x="428" y="0" type="line"/>
      <point x="719" y="1493" type="line"/>
      <point x="334" y="1493" type="line"/>
    </contour>
  </outline>
</glyph>
<glyph name="J" format="2">
  <advance width="762"/>
  <unicode hex="004A"/>
  <anchor x="295" y="1520" name="half"/>
  <anchor x="189" y="-430" name="below"/>
  <anchor x="566" y="1520" name="above"/>
  <outline>
    <contour>
      <point x="334" y="1493" type="line"/>
      <point x="719" y="1493" type="line"/>
      <point x="457" y="145" type="line"/>
      <point x="399" y="-147"/>
      <point x="60" y="-410"/>
      <point x="-262" y="-410" type="qcurve" smooth="yes"/>
      <point x="-340" y="-410" type="line"/>
      <point x="-283" y="-119" type="line"/>
      <point x="-223" y="-119" type="line" smooth="yes"/>
      <point x="-104" y="-119"/>
      <point x="47" y="16"/>
      <point x="72" y="145" type="qcurve" smooth="yes"/>
    </contour>
  </outline>
</glyph>
<glyph name="K" format="2">
  <advance width="1587"/>
  <unicode hex="004B"/>
  <anchor x="295" y="1520" name="half"/>
  <anchor x="1031" y="1520" name="above"/>
  <anchor x="736" y="0" name="below"/>
  <outline>
    <contour>
      <point x="334" y="1493" type="line"/>
      <point x="719" y="1493" type="line"/>
      <point x="614" y="956" type="line"/>
      <point x="1249" y="1493" type="line"/>
      <point x="1714" y="1493" type="line"/>
      <point x="858" y="768" type="line"/>
      <point x="1503" y="0" type="line"/>
      <point x="1051" y="0" type="line"/>
      <point x="549" y="623" type="line"/>
      <point x="428" y="0" type="line"/>
      <point x="43" y="0" type="line"/>
    </contour>
  </outline>
</glyph>
<glyph name="L" format="2">
  <advance width="1305"/>
  <unicode hex="004C"/>
  <anchor x="295" y="1520" name="half"/>
  <anchor x="530" y="1520" name="above"/>
  <anchor x="573" y="0" name="below"/>
  <outline>
    <contour>
      <point x="334" y="1493" type="line"/>
      <point x="719" y="1493" type="line"/>
      <point x="485" y="291" type="line"/>
      <point x="1159" y="291" type="line"/>
      <point x="1104" y="0" type="line"/>
      <point x="43" y="0" type="line"/>
    </contour>
  </outline>
</glyph>
<glyph name="M" format="2">
  <advance width="2038"/>
  <unicode hex="004D"/>
  <anchor x="225" y="0" name="cedilla"/>
  <anchor x="295" y="1520" name="half"/>
  <anchor x="1168" y="1520" name="above"/>
  <anchor x="873" y="0" name="below"/>
  <outline>
    <contour>
      <point x="334" y="1493" type="line"/>
      <point x="807" y="1493" type="line"/>
      <point x="999" y="700" type="line"/>
      <point x="1503" y="1493" type="line"/>
      <point x="1995" y="1493" type="line"/>
      <point x="1704" y="0" type="line"/>
      <point x="1339" y="0" type="line"/>
      <point x="1552" y="1102" type="line"/>
      <point x="1034" y="287" type="line"/>
      <point x="827" y="287" type="line"/>
      <point x="621" y="1102" type="line"/>
      <point x="408" y="0" type="line"/>
      <point x="43" y="0" type="line"/>
    </contour>
  </outline>
</glyph>
<glyph name="N" format="2">
  <advance width="1714"/>
  <unicode hex="004E"/>
  <anchor x="225" y="0" name="cedilla"/>
  <anchor x="295" y="1520" name="half"/>
  <anchor x="734" y="0" name="below"/>
  <anchor x="1076" y="1520" name="above"/>
  <outline>
    <contour>
      <point x="334" y="1493" type="line"/>
      <point x="764" y="1493" type="line"/>
      <point x="1106" y="459" type="line"/>
      <point x="1307" y="1493" type="line"/>
      <point x="1671" y="1493" type="line"/>
      <point x="1380" y="0" type="line"/>
      <point x="950" y="0" type="line"/>
      <point x="608" y="1034" type="line"/>
      <point x="408" y="0" type="line"/>
      <point x="43" y="0" type="line"/>
    </contour>
  </outline>
</glyph>
<glyph name="O" format="2">
  <advance width="1741"/>
  <unicode hex="004F"/>
  <anchor x="725" y="0" name="cedilla"/>
  <anchor x="725" y="0" name="ogonek"/>
  <anchor x="295" y="1520" name="half"/>
  <anchor x="1021" y="1520" name="above"/>
  <anchor x="725" y="0" name="below"/>
  <outline>
    <contour>
      <point x="1260" y="881" type="qcurve" smooth="yes"/>
      <point x="1260" y="1057"/>
      <point x="1101" y="1241"/>
      <point x="950" y="1241" type="qcurve" smooth="yes"/>
      <point x="750" y="1241"/>
      <point x="479" y="882"/>
      <point x="479" y="612" type="qcurve" smooth="yes"/>
      <point x="479" y="440"/>
      <point x="637" y="250"/>
      <point x="778" y="250" type="qcurve" smooth="yes"/>
      <point x="893" y="250"/>
      <point x="1072" y="347"/>
      <point x="1135" y="442" type="qcurve" smooth="yes"/>
      <point x="1195" y="533"/>
      <point x="1260" y="761"/>
    </contour>
    <contour>
      <point x="1006" y="1520" type="qcurve" smooth="yes"/>
      <point x="1304" y="1520"/>
      <point x="1667" y="1189"/>
      <point x="1667" y="922" type="qcurve" smooth="yes"/>
      <point x="1667" y="740"/>
      <point x="1556" y="416"/>
      <point x="1450" y="287" type="qcurve" smooth="yes"/>
      <point x="1320" y="128"/>
      <point x="965" y="-29"/>
      <point x="733" y="-29" type="qcurve" smooth="yes"/>
      <point x="436" y="-29"/>
      <point x="74" y="301"/>
      <point x="74" y="569" type="qcurve" smooth="yes"/>
      <point x="74" y="752"/>
      <point x="184" y="1076"/>
      <point x="291" y="1206" type="qcurve" smooth="yes"/>
      <point x="419" y="1364"/>
      <point x="774" y="1520"/>
    </contour>
  </outline>
</glyph>
<glyph name="P" format="2">
  <advance width="1501"/>
  <unicode hex="0050"/>
  <anchor x="295" y="1520" name="half"/>
  <anchor x="235" y="0" name="below"/>
  <anchor x="952" y="1520" name="above"/>
  <outline>
    <contour>
      <point x="334" y="1493" type="line"/>
      <point x="973" y="1493" type="line" smooth="yes"/>
      <point x="1208" y="1493"/>
      <point x="1473" y="1278"/>
      <point x="1473" y="1087" type="qcurve" smooth="yes"/>
      <point x="1473" y="970"/>
      <point x="1385" y="759"/>
      <point x="1303" y="680" type="qcurve" smooth="yes"/>
      <point x="1214" y="595"/>
      <point x="968" y="518"/>
      <point x="782" y="518" type="qcurve" smooth="yes"/>
      <point x="528" y="518" type="line"/>
      <point x="428" y="0" type="line"/>
      <point x="43" y="0" type="line"/>
    </contour>
    <contour>
      <point x="666" y="1214" type="line"/>
      <point x="584" y="797" type="line"/>
      <point x="797" y="797" type="line" smooth="yes"/>
      <point x="933" y="797"/>
      <point x="1077" y="925"/>
      <point x="1077" y="1047" type="qcurve" smooth="yes"/>
      <point x="1077" y="1128"/>
      <point x="974" y="1214"/>
      <point x="877" y="1214" type="qcurve" smooth="yes"/>
    </contour>
  </outline>
</glyph>
<glyph name="Q" format="2">
  <advance width="1741"/>
  <unicode hex="0051"/>
  <anchor x="295" y="1520" name="half"/>
  <anchor x="751" y="0" name="below"/>
  <anchor x="1047" y="1520" name="above"/>
  <outline>
    <contour>
      <point x="760" y="-27" type="line"/>
      <point x="749" y="-28"/>
      <point x="727" y="-29"/>
      <point x="702" y="-29" type="qcurve" smooth="yes"/>
      <point x="589" y="-29"/>
      <point x="389" y="33"/>
      <point x="307" y="94" type="qcurve" smooth="yes"/>
      <point x="197" y="175"/>
      <point x="74" y="426"/>
      <point x="74" y="569" type="qcurve" smooth="yes"/>
      <point x="74" y="752"/>
      <point x="185" y="1077"/>
      <point x="291" y="1206" type="qcurve" smooth="yes"/>
      <point x="420" y="1365"/>
      <point x="773" y="1520"/>
      <point x="1006" y="1520" type="qcurve" smooth="yes"/>
      <point x="1304" y="1520"/>
      <point x="1667" y="1189"/>
      <point x="1667" y="922" type="qcurve" smooth="yes"/>
      <point x="1667" y="608"/>
      <point x="1362" y="135"/>
      <point x="1090" y="27" type="qcurve"/>
      <point x="1319" y="-299" type="line"/>
      <point x="952" y="-299" type="line"/>
    </contour>
    <contour>
      <point x="1260" y="881" type="qcurve" smooth="yes"/>
      <point x="1260" y="1057"/>
      <point x="1101" y="1241"/>
      <point x="950" y="1241" type="qcurve" smooth="yes"/>
      <point x="750" y="1241"/>
      <point x="479" y="882"/>
      <point x="479" y="612" type="qcurve" smooth="yes"/>
      <point x="479" y="440"/>
      <point x="637" y="250"/>
      <point x="778" y="250" type="qcurve" smooth="yes"/>
      <point x="893" y="250"/>
      <point x="1072" y="347"/>
      <point x="1135" y="442" type="qcurve" smooth="yes"/>
      <point x="1195" y="533"/>
      <point x="1260" y="761"/>
    </contour>
  </outline>
</glyph>
<glyph name="R" format="2">
  <advance width="1577"/>
  <unicode hex="0052"/>
  <anchor x="295" y="1520" name="half"/>
  <anchor x="566" y="0" name="below"/>
  <anchor x="890" y="1520" name="above"/>
  <outline>
    <contour>
      <point x="752" y="831" type="line" smooth="yes"/>
      <point x="883" y="831"/>
      <point x="1018" y="953"/>
      <point x="1018" y="1071" type="qcurve" smooth="yes"/>
      <point x="1018" y="1145"/>
      <point x="925" y="1214"/>
      <point x="825" y="1214" type="qcurve" smooth="yes"/>
      <point x="666" y="1214" type="line"/>
      <point x="590" y="831" type="line"/>
    </contour>
    <contour>
      <point x="539" y="565" type="line"/>
      <point x="428" y="0" type="line"/>
      <point x="43" y="0" type="line"/>
      <point x="334" y="1493" type="line"/>
      <point x="903" y="1493" type="line" smooth="yes"/>
      <point x="1149" y="1493"/>
      <point x="1403" y="1309"/>
      <point x="1403" y="1130" type="qcurve" smooth="yes"/>
      <point x="1403" y="949"/>
      <point x="1203" y="715"/>
      <point x="1032" y="698" type="qcurve"/>
      <point x="1110" y="682"/>
      <point x="1214" y="555"/>
      <point x="1253" y="424" type="qcurve" smooth="yes"/>
      <point x="1380" y="0" type="line"/>
      <point x="997" y="0" type="line"/>
      <point x="885" y="371" type="line"/>
      <point x="851" y="482"/>
      <point x="754" y="565"/>
      <point x="662" y="565" type="qcurve" smooth="yes"/>
    </contour>
  </outline>
</glyph>
<glyph name="S" format="2">
  <advance width="1475"/>
  <unicode hex="0053"/>
  <anchor x="854" y="1520" name="above"/>
  <anchor x="295" y="1520" name="half"/>
  <anchor x="558" y="0" name="below"/>
  <outline>
    <contour>
      <point x="600" y="-29" type="curve" smooth="yes"/>
      <point x="1015" y="-29"/>
      <point x="1280" y="184"/>
      <point x="1280" y="508" type="curve" smooth="yes"/>
      <point x="1280" y="708"/>
      <point x="1161" y="830"/>
      <point x="897" y="897" type="curve" smooth="yes"/>
      <point x="739" y="936" type="line" smooth="yes"/>
      <point x="665" y="954"/>
      <point x="616" y="973"/>
      <point x="593" y="992" type="curve" smooth="yes"/>
      <point x="569" y="1011"/>
      <point x="557" y="1037"/>
      <point x="557" y="1071" type="curve" smooth="yes"/>
      <point x="557" y="1178"/>
      <point x="670" y="1241"/>
      <point x="862" y="1241" type="curve" smooth="yes"/>
      <point x="1002" y="1241"/>
      <point x="1149" y="1205"/>
      <point x="1300" y="1130" type="curve"/>
      <point x="1362" y="1446" type="line"/>
      <point x="1186" y="1495"/>
      <point x="1015" y="1520"/>
      <point x="854" y="1520" type="curve" smooth="yes"/>
      <point x="451" y="1520"/>
      <point x="195" y="1317"/>
      <point x="195" y="1006" type="curve" smooth="yes"/>
      <point x="195" y="809"/>
      <point x="307" y="686"/>
      <point x="539" y="629" type="curve" smooth="yes"/>
      <point x="696" y="590" type="line" smooth="yes"/>
      <point x="779" y="569"/>
      <point x="833" y="548"/>
      <point x="858" y="528" type="curve" smooth="yes"/>
      <point x="883" y="507"/>
      <point x="895" y="479"/>
      <point x="895" y="442" type="curve" smooth="yes"/>
      <point x="895" y="330"/>
      <point x="774" y="250"/>
      <point x="598" y="250" type="curve" smooth="yes"/>
      <point x="435" y="250"/>
      <point x="269" y="300"/>
      <point x="92" y="403" type="curve"/>
      <point x="31" y="78" type="line"/>
      <point x="214" y="7"/>
      <point x="407" y="-29"/>
    </contour>
  </outline>
</glyph>
<glyph name="T" format="2">
  <advance width="1397"/>
  <unicode hex="0054"/>
  <anchor x="848" y="1520" name="above"/>
  <anchor x="295" y="1520" name="half"/>
  <anchor x="553" y="0" name="below"/>
  <outline>
    <contour>
      <point x="360" y="0" type="line"/>
      <point x="745" y="0" type="line"/>
      <point x="979" y="1202" type="line"/>
      <point x="1475" y="1202" type="line"/>
      <point x="1532" y="1493" type="line"/>
      <point x="156" y="1493" type="line"/>
      <point x="98" y="1202" type="line"/>
      <point x="594" y="1202" type="line"/>
    </contour>
  </outline>
</glyph>
<glyph name="U" format="2">
  <advance width="1663"/>
  <unicode hex="0055"/>
  <anchor x="688" y="0" name="ogonek"/>
  <anchor x="688" y="0" name="below"/>
  <anchor x="295" y="1520" name="half"/>
  <anchor x="978" y="1520" name="above"/>
  <outline>
    <contour>
      <point x="680" y="-29" type="curve" smooth="yes"/>
      <point x="1131" y="-29"/>
      <point x="1359" y="158"/>
      <point x="1446" y="598" type="curve" smooth="yes"/>
      <point x="1620" y="1493" type="line"/>
      <point x="1235" y="1493" type="line"/>
      <point x="1061" y="598" type="line" smooth="yes"/>
      <point x="1013" y="349"/>
      <point x="922" y="254"/>
      <point x="735" y="254" type="curve" smooth="yes"/>
      <point x="596" y="254"/>
      <point x="526" y="318"/>
      <point x="526" y="449" type="curve" smooth="yes"/>
      <point x="526" y="486"/>
      <point x="532" y="535"/>
      <point x="545" y="599" type="curve" smooth="yes"/>
      <point x="719" y="1493" type="line"/>
      <point x="334" y="1493" type="line"/>
      <point x="160" y="598" type="line" smooth="yes"/>
      <point x="145" y="519"/>
      <point x="139" y="462"/>
      <point x="139" y="414" type="curve" smooth="yes"/>
      <point x="139" y="126"/>
      <point x="327" y="-29"/>
    </contour>
  </outline>
</glyph>
<glyph name="V" format="2">
  <advance width="1585"/>
  <unicode hex="0056"/>
  <anchor x="648" y="0" name="below"/>
  <anchor x="295" y="1520" name="half"/>
  <anchor x="943" y="1520" name="above"/>
  <outline>
    <contour>
      <point x="418" y="0" type="line"/>
      <point x="877" y="0" type="line"/>
      <point x="1720" y="1493" type="line"/>
      <point x="1323" y="1493" type="line"/>
      <point x="705" y="377" type="line"/>
      <point x="522" y="1493" type="line"/>
      <point x="156" y="1493" type="line"/>
    </contour>
  </outline>
</glyph>
<glyph name="W" format="2">
  <advance width="2259"/>
  <unicode hex="0057"/>
  <anchor x="295" y="1520" name="half"/>
  <anchor x="1278" y="1527" name="above"/>
  <anchor x="981" y="0" name="below"/>
  <outline>
    <contour>
      <point x="219" y="1493" type="line"/>
      <point x="575" y="1493" type="line"/>
      <point x="621" y="408" type="line"/>
      <point x="1090" y="1493" type="line"/>
      <point x="1456" y="1493" type="line"/>
      <point x="1505" y="408" type="line"/>
      <point x="1958" y="1493" type="line"/>
      <point x="2341" y="1493" type="line"/>
      <point x="1698" y="0" type="line"/>
      <point x="1262" y="0" type="line"/>
      <point x="1212" y="1135" type="line"/>
      <point x="729" y="0" type="line"/>
      <point x="283" y="0" type="line"/>
    </contour>
  </outline>
</glyph>
<glyph name="X" format="2">
  <advance width="1579"/>
  <unicode hex="0058"/>
  <anchor x="295" y="1520" name="half"/>
  <anchor x="643" y="0" name="below"/>
  <anchor x="940" y="1527" name="above"/>
  <outline>
    <contour>
      <point x="1016" y="756" type="line"/>
      <point x="1382" y="0" type="line"/>
      <point x="991" y="0" type="line"/>
      <point x="748" y="500" type="line"/>
      <point x="311" y="0" type="line"/>
      <point x="-104" y="0" type="line"/>
      <point x="567" y="766" type="line"/>
      <point x="213" y="1493" type="line"/>
      <point x="606" y="1493" type="line"/>
      <point x="836" y="1024" type="line"/>
      <point x="1245" y="1493" type="line"/>
      <point x="1663" y="1493" type="line"/>
    </contour>
  </outline>
</glyph>
<glyph name="Y" format="2">
  <advance width="1483"/>
  <unicode hex="0059"/>
  <anchor x="728" y="0" name="ogonek"/>
  <anchor x="295" y="1520" name="half"/>
  <anchor x="893" y="1527" name="above"/>
  <anchor x="596" y="0" name="below"/>
  <outline>
    <contour>
      <point x="129" y="1493" type="line"/>
      <point x="514" y="1493" type="line"/>
      <point x="768" y="940" type="line"/>
      <point x="1212" y="1493" type="line"/>
      <point x="1657" y="1493" type="line"/>
      <point x="920" y="623" type="line"/>
      <point x="799" y="0" type="line"/>
      <point x="414" y="0" type="line"/>
      <point x="535" y="623" type="line"/>
    </contour>
  </outline>
</glyph>
<glyph name="Z" format="2">
  <advance width="1485"/>
  <unicode hex="005A"/>
  <anchor x="595" y="0" name="cedilla"/>
  <anchor x="595" y="0" name="ogonek"/>
  <anchor x="295" y="1520" name="half"/>
  <anchor x="892" y="1520" name="above"/>
  <anchor x="595" y="0" name="below"/>
  <outline>
    <contour>
      <point x="260" y="1493" type="line"/>
      <point x="1516" y="1493" type="line"/>
      <point x="1468" y="1255" type="line"/>
      <point x="500" y="291" type="line"/>
      <point x="1305" y="291" type="line"/>
      <point x="1247" y="0" type="line"/>
      <point x="-53" y="0" type="line"/>
      <point x="-8" y="238" type="line"/>
      <point x="963" y="1202" type="line"/>
      <point x="203" y="1202" type="line"/>
    </contour>
  </outline>
</glyph>
<glyph name="bracketleft" format="2">
  <advance width="936"/>
  <unicode hex="005B"/>
  <outline>
    <contour>
      <point x="334" y="1556" type="line"/>
      <point x="954" y="1556" type="line"/>
      <point x="909" y="1331" type="line"/>
      <point x="631" y="1331" type="line"/>
      <point x="362" y="-45" type="line"/>
      <point x="643" y="-45" type="line"/>
      <point x="598" y="-270" type="line"/>
      <point x="-20" y="-270" type="line"/>
    </contour>
  </outline>
</glyph>
<glyph name="backslash" format="2">
  <advance width="748"/>
  <unicode hex="005C"/>
  <outline>
    <contour>
      <point x="344" y="-190" type="line"/>
      <point x="145" y="1493" type="line"/>
      <point x="367" y="1493" type="line"/>
      <point x="565" y="-190" type="line"/>
    </contour>
  </outline>
</glyph>
<glyph name="bracketright" format="2">
  <advance width="936"/>
  <unicode hex="005D"/>
  <outline>
    <contour>
      <point x="-57" y="-270" type="line"/>
      <point x="563" y="-270" type="line"/>
      <point x="918" y="1556" type="line"/>
      <point x="297" y="1556" type="line"/>
      <point x="254" y="1331" type="line"/>
      <point x="535" y="1331" type="line"/>
      <point x="266" y="-45" type="line"/>
      <point x="-14" y="-45" type="line"/>
    </contour>
  </outline>
</glyph>
<glyph name="asciicircum" format="2">
  <advance width="1716"/>
  <unicode hex="005E"/>
  <outline>
    <contour>
      <point x="207" y="936" type="line"/>
      <point x="449" y="936" type="line"/>
      <point x="858" y="1237" type="line"/>
      <point x="1268" y="936" type="line"/>
      <point x="1509" y="936" type="line"/>
      <point x="981" y="1493" type="line"/>
      <point x="735" y="1493" type="line"/>
    </contour>
  </outline>
</glyph>
<glyph name="underscore" format="2">
  <advance width="1024"/>
  <unicode hex="005F"/>
  <outline>
    <contour>
      <point x="1044" y="-293" type="line"/>
      <point x="1044" y="-483" type="line"/>
      <point x="-20" y="-483" type="line"/>
      <point x="-20" y="-293" type="line"/>
    </contour>
  </outline>
</glyph>
<glyph name="grave" format="2">
  <advance width="1024"/>
  <unicode hex="0060"/>
  <outline>
    <contour>
      <point x="563" y="1262" type="line"/>
      <point x="760" y="1262" type="line"/>
      <point x="551" y="1638" type="line"/>
      <point x="268" y="1638" type="line"/>
    </contour>
  </outline>
</glyph>
<glyph name="a" format="2">
  <advance width="1382"/>
  <unicode hex="0061"/>
  <anchor x="822" y="0" name="ogonek"/>
  <anchor x="929" y="0" name="cedilla"/>
  <anchor x="295" y="1520" name="half"/>
  <anchor x="589" y="0" name="below"/>
  <anchor x="784" y="1147" name="above"/>
  <outline>
    <contour>
      <point x="381" y="-29" type="curve" smooth="yes"/>
      <point x="534" y="-29"/>
      <point x="663" y="33"/>
      <point x="780" y="166" type="curve"/>
      <point x="750" y="0" type="line"/>
      <point x="1108" y="0" type="line"/>
      <point x="1233" y="639" type="line" smooth="yes"/>
      <point x="1245" y="702"/>
      <point x="1251" y="756"/>
      <point x="1251" y="801" type="curve" smooth="yes"/>
      <point x="1251" y="1034"/>
      <point x="1092" y="1147"/>
      <point x="760" y="1147" type="curve" smooth="yes"/>
      <point x="592" y="1147"/>
      <point x="436" y="1127"/>
      <point x="287" y="1090" type="curve"/>
      <point x="233" y="817" type="line"/>
      <point x="362" y="878"/>
      <point x="501" y="909"/>
      <point x="649" y="909" type="curve" smooth="yes"/>
      <point x="813" y="909"/>
      <point x="897" y="864"/>
      <point x="897" y="776" type="curve" smooth="yes"/>
      <point x="897" y="773"/>
      <point x="897" y="769"/>
      <point x="897" y="765" type="curve" smooth="yes"/>
      <point x="896" y="761"/>
      <point x="895" y="754"/>
      <point x="893" y="745" type="curve"/>
      <point x="889" y="717" type="line"/>
      <point x="678" y="717" type="line" smooth="yes"/>
      <point x="262" y="717"/>
      <point x="35" y="561"/>
      <point x="35" y="276" type="curve" smooth="yes"/>
      <point x="35" y="89"/>
      <point x="169" y="-29"/>
    </contour>
    <contour>
      <point x="555" y="209" type="curve" smooth="yes"/>
      <point x="460" y="209"/>
      <point x="403" y="259"/>
      <point x="403" y="340" type="curve" smooth="yes"/>
      <point x="403" y="448"/>
      <point x="495" y="504"/>
      <point x="674" y="504" type="curve" smooth="yes"/>
      <point x="846" y="504" type="line"/>
      <point x="838" y="463" type="line" smooth="yes"/>
      <point x="805" y="302"/>
      <point x="702" y="209"/>
    </contour>
  </outline>
</glyph>
<glyph name="b" format="2">
  <advance width="1466"/>
  <unicode hex="0062"/>
  <anchor x="550" y="1520" name="above"/>
  <anchor x="295" y="1520" name="half"/>
  <anchor x="550" y="0" name="below"/>
  <outline>
    <contour>
      <point x="786" y="-29" type="curve" smooth="yes"/>
      <point x="961" y="-29"/>
      <point x="1116" y="59"/>
      <point x="1237" y="227" type="curve" smooth="yes"/>
      <point x="1333" y="360"/>
      <point x="1386" y="528"/>
      <point x="1386" y="700" type="curve" smooth="yes"/>
      <point x="1386" y="976"/>
      <point x="1229" y="1147"/>
      <point x="977" y="1147" type="curve" smooth="yes"/>
      <point x="834" y="1147"/>
      <point x="717" y="1087"/>
      <point x="608" y="956" type="curve"/>
      <point x="725" y="1556" type="line"/>
      <point x="365" y="1556" type="line"/>
      <point x="63" y="0" type="line"/>
      <point x="422" y="0" type="line"/>
      <point x="455" y="162" type="line"/>
      <point x="528" y="31"/>
      <point x="633" y="-29"/>
    </contour>
    <contour>
      <point x="705" y="231" type="curve" smooth="yes"/>
      <point x="588" y="231"/>
      <point x="518" y="305"/>
      <point x="518" y="428" type="curve" smooth="yes"/>
      <point x="518" y="700"/>
      <point x="647" y="887"/>
      <point x="831" y="887" type="curve" smooth="yes"/>
      <point x="951" y="887"/>
      <point x="1016" y="814"/>
      <point x="1016" y="678" type="curve" smooth="yes"/>
      <point x="1016" y="417"/>
      <point x="885" y="231"/>
    </contour>
  </outline>
</glyph>
<glyph name="c" format="2">
  <advance width="1214"/>
  <unicode hex="0063"/>
  <anchor x="295" y="1520" name="half"/>
  <anchor x="624" y="0" name="below"/>
  <anchor x="821" y="1147" name="above"/>
  <outline>
    <contour>
      <point x="1190" y="1085" type="qcurve"/>
      <point x="1133" y="793" type="line"/>
      <point x="1061" y="841"/>
      <point x="921" y="891"/>
      <point x="854" y="891" type="qcurve" smooth="yes"/>
      <point x="679" y="891"/>
      <point x="457" y="656"/>
      <point x="457" y="473" type="qcurve" smooth="yes"/>
      <point x="457" y="356"/>
      <point x="595" y="227"/>
      <point x="721" y="227" type="qcurve" smooth="yes"/>
      <point x="805" y="227"/>
      <point x="967" y="277"/>
      <point x="1040" y="326" type="qcurve"/>
      <point x="985" y="33" type="line"/>
      <point x="896" y="2"/>
      <point x="716" y="-29"/>
      <point x="625" y="-29" type="qcurve" smooth="yes"/>
      <point x="361" y="-29"/>
      <point x="76" y="208"/>
      <point x="76" y="426" type="qcurve" smooth="yes"/>
      <point x="76" y="563"/>
      <point x="181" y="821"/>
      <point x="279" y="924" type="qcurve" smooth="yes"/>
      <point x="388" y="1037"/>
      <point x="670" y="1147"/>
      <point x="854" y="1147" type="qcurve" smooth="yes"/>
      <point x="939" y="1147"/>
      <point x="1107" y="1116"/>
    </contour>
  </outline>
</glyph>
<glyph name="d" format="2">
  <advance width="1466"/>
  <unicode hex="0064"/>
  <anchor x="581" y="0" name="cedilla"/>
  <anchor x="581" y="0" name="below"/>
  <anchor x="295" y="1520" name="half"/>
  <anchor x="1297" y="1520" name="above"/>
  <outline>
    <contour>
      <point x="483" y="-29" type="curve" smooth="yes"/>
      <point x="626" y="-29"/>
      <point x="743" y="31"/>
      <point x="852" y="162" type="curve"/>
      <point x="819" y="0" type="line"/>
      <point x="1180" y="0" type="line"/>
      <point x="1483" y="1556" type="line"/>
      <point x="1122" y="1556" type="line"/>
      <point x="1006" y="956" type="line"/>
      <point x="931" y="1087"/>
      <point x="827" y="1147"/>
      <point x="674" y="1147" type="curve" smooth="yes"/>
      <point x="499" y="1147"/>
      <point x="344" y="1059"/>
      <point x="223" y="891" type="curve" smooth="yes"/>
      <point x="127" y="758"/>
      <point x="74" y="590"/>
      <point x="74" y="418" type="curve" smooth="yes"/>
      <point x="74" y="142"/>
      <point x="231" y="-29"/>
    </contour>
    <contour>
      <point x="629" y="231" type="curve" smooth="yes"/>
      <point x="509" y="231"/>
      <point x="444" y="304"/>
      <point x="444" y="440" type="curve" smooth="yes"/>
      <point x="444" y="701"/>
      <point x="575" y="887"/>
      <point x="756" y="887" type="curve" smooth="yes"/>
      <point x="872" y="887"/>
      <point x="940" y="814"/>
      <point x="940" y="690" type="curve" smooth="yes"/>
      <point x="940" y="417"/>
      <point x="813" y="231"/>
    </contour>
  </outline>
</glyph>
<glyph name="e" format="2">
  <advance width="1389"/>
  <unicode hex="0065"/>
  <anchor x="620" y="0" name="cedilla"/>
  <anchor x="822" y="0" name="ogonek"/>
  <anchor x="295" y="1520" name="half"/>
  <anchor x="620" y="0" name="below"/>
  <anchor x="831" y="1147" name="above"/>
  <outline>
    <contour>
      <point x="621" y="-29" type="curve" smooth="yes"/>
      <point x="800" y="-29"/>
      <point x="970" y="2"/>
      <point x="1145" y="66" type="curve"/>
      <point x="1200" y="344" type="line"/>
      <point x="1016" y="255"/>
      <point x="849" y="209"/>
      <point x="698" y="209" type="curve" smooth="yes"/>
      <point x="523" y="209"/>
      <point x="436" y="281"/>
      <point x="436" y="426" type="curve" smooth="yes"/>
      <point x="436" y="430"/>
      <point x="436" y="436"/>
      <point x="437" y="444" type="curve" smooth="yes"/>
      <point x="438" y="451"/>
      <point x="438" y="457"/>
      <point x="438" y="461" type="curve"/>
      <point x="1276" y="461" type="line"/>
      <point x="1288" y="518" type="line" smooth="yes"/>
      <point x="1304" y="589"/>
      <point x="1311" y="647"/>
      <point x="1311" y="700" type="curve" smooth="yes"/>
      <point x="1311" y="973"/>
      <point x="1120" y="1147"/>
      <point x="817" y="1147" type="curve" smooth="yes"/>
      <point x="584" y="1147"/>
      <point x="389" y="1063"/>
      <point x="252" y="903" type="curve" smooth="yes"/>
      <point x="136" y="770"/>
      <point x="74" y="605"/>
      <point x="74" y="434" type="curve" smooth="yes"/>
      <point x="74" y="139"/>
      <point x="272" y="-29"/>
    </contour>
    <contour>
      <point x="487" y="682" type="line"/>
      <point x="539" y="831"/>
      <point x="638" y="909"/>
      <point x="778" y="909" type="curve" smooth="yes"/>
      <point x="887" y="909"/>
      <point x="956" y="842"/>
      <point x="956" y="735" type="curve" smooth="yes"/>
      <point x="956" y="718"/>
      <point x="954" y="699"/>
      <point x="950" y="682" type="curve"/>
    </contour>
  </outline>
</glyph>
<glyph name="f" format="2">
  <advance width="891"/>
  <unicode hex="0066"/>
  <anchor x="295" y="1520" name="half"/>
  <anchor x="683" y="1520" name="above"/>
  <anchor x="243" y="0" name="below"/>
  <outline>
    <contour>
      <point x="1106" y="1556" type="line"/>
      <point x="1059" y="1321" type="line"/>
      <point x="862" y="1321" type="line" smooth="yes"/>
      <point x="787" y="1321"/>
      <point x="718" y="1266"/>
      <point x="705" y="1199" type="qcurve"/>
      <point x="688" y="1120" type="line"/>
      <point x="991" y="1120" type="line"/>
      <point x="942" y="864" type="line"/>
      <point x="639" y="864" type="line"/>
      <point x="471" y="0" type="line"/>
      <point x="111" y="0" type="line"/>
      <point x="279" y="864" type="line"/>
      <point x="102" y="864" type="line"/>
      <point x="152" y="1120" type="line"/>
      <point x="328" y="1120" type="line"/>
      <point x="344" y="1198" type="line"/>
      <point x="381" y="1384"/>
      <point x="615" y="1556"/>
      <point x="831" y="1556" type="qcurve" smooth="yes"/>
    </contour>
  </outline>
</glyph>
<glyph name="g" format="2">
  <advance width="1466"/>
  <unicode hex="0067"/>
  <anchor x="546" y="-430" name="below"/>
  <anchor x="295" y="1520" name="half"/>
  <anchor x="825" y="1147" name="above"/>
  <outline>
    <contour>
      <point x="432" y="-442" type="curve" smooth="yes"/>
      <point x="883" y="-442"/>
      <point x="1131" y="-254"/>
      <point x="1208" y="147" type="curve" smooth="yes"/>
      <point x="1397" y="1120" type="line"/>
      <point x="1036" y="1120" type="line"/>
      <point x="1006" y="954" type="line"/>
      <point x="933" y="1086"/>
      <point x="829" y="1145"/>
      <point x="672" y="1145" type="curve" smooth="yes"/>
      <point x="497" y="1145"/>
      <point x="342" y="1058"/>
      <point x="225" y="897" type="curve" smooth="yes"/>
      <point x="129" y="764"/>
      <point x="76" y="608"/>
      <point x="76" y="457" type="curve" smooth="yes"/>
      <point x="76" y="174"/>
      <point x="234" y="0"/>
      <point x="487" y="0" type="curve" smooth="yes"/>
      <point x="627" y="0"/>
      <point x="741" y="59"/>
      <point x="856" y="190" type="curve"/>
      <point x="840" y="113" type="line" smooth="yes"/>
      <point x="796" y="-108"/>
      <point x="675" y="-205"/>
      <point x="438" y="-205" type="curve" smooth="yes"/>
      <point x="319" y="-205"/>
      <point x="207" y="-170"/>
      <point x="94" y="-98" type="curve"/>
      <point x="41" y="-377" type="line"/>
      <point x="166" y="-421"/>
      <point x="293" y="-442"/>
    </contour>
    <contour>
      <point x="633" y="260" type="curve" smooth="yes"/>
      <point x="513" y="260"/>
      <point x="449" y="333"/>
      <point x="449" y="469" type="curve" smooth="yes"/>
      <point x="449" y="709"/>
      <point x="580" y="887"/>
      <point x="756" y="887" type="curve" smooth="yes"/>
      <point x="876" y="887"/>
      <point x="940" y="813"/>
      <point x="940" y="674" type="curve" smooth="yes"/>
      <point x="940" y="438"/>
      <point x="808" y="260"/>
    </contour>
  </outline>
</glyph>
<glyph name="i" format="2">
  <advance width="702"/>
  <unicode hex="0069"/>
  <anchor x="351" y="0" name="ogonek"/>
  <anchor x="295" y="1520" name="half"/>
  <anchor x="239" y="0" name="cedilla"/>
  <anchor x="546" y="1583" name="above"/>
  <anchor x="239" y="0" name="below"/>
  <outline>
    <contour>
      <point x="281" y="1120" type="line"/>
      <point x="641" y="1120" type="line"/>
      <point x="422" y="0" type="line"/>
      <point x="63" y="0" type="line"/>
    </contour>
    <contour>
      <point x="365" y="1556" type="line"/>
      <point x="725" y="1556" type="line"/>
      <point x="668" y="1264" type="line"/>
      <point x="307" y="1264" type="line"/>
    </contour>
  </outline>
</glyph>
<glyph name="j" format="2">
  <advance width="702"/>
  <unicode hex="006A"/>
  <anchor x="295" y="1520" name="half"/>
  <anchor x="159" y="-430" name="below"/>
  <anchor x="576" y="1583" name="above"/>
  <outline>
    <contour>
      <point x="281" y="1120" type="line"/>
      <point x="641" y="1120" type="line"/>
      <point x="426" y="20" type="line" smooth="yes"/>
      <point x="380" y="-215"/>
      <point x="129" y="-442"/>
      <point x="-84" y="-442" type="qcurve" smooth="yes"/>
      <point x="-262" y="-442" type="line"/>
      <point x="-217" y="-207" type="line"/>
      <point x="-154" y="-207" type="line" smooth="yes"/>
      <point x="-53" y="-207"/>
      <point x="40" y="-116"/>
      <point x="66" y="20" type="qcurve"/>
    </contour>
    <contour>
      <point x="365" y="1556" type="line"/>
      <point x="725" y="1556" type="line"/>
      <point x="668" y="1264" type="line"/>
      <point x="307" y="1264" type="line"/>
    </contour>
  </outline>
</glyph>
<glyph name="k" format="2">
  <advance width="1362"/>
  <unicode hex="006B"/>
  <anchor x="500" y="1520" name="above"/>
  <anchor x="295" y="1520" name="half"/>
  <anchor x="547" y="0" name="below"/>
  <outline>
    <contour>
      <point x="63" y="0" type="line"/>
      <point x="422" y="0" type="line"/>
      <point x="516" y="483" type="line"/>
      <point x="879" y="0" type="line"/>
      <point x="1288" y="0" type="line"/>
      <point x="815" y="602" type="line"/>
      <point x="1466" y="1120" type="line"/>
      <point x="1044" y="1120" type="line"/>
      <point x="561" y="713" type="line"/>
      <point x="725" y="1556" type="line"/>
      <point x="365" y="1556" type="line"/>
    </contour>
  </outline>
</glyph>
<glyph name="l" format="2">
  <advance width="702"/>
  <unicode hex="006C"/>
  <anchor x="500" y="1520" name="above"/>
  <anchor x="295" y="1520" name="half"/>
  <anchor x="205" y="0" name="below"/>
  <outline>
    <contour>
      <point x="63" y="0" type="line"/>
      <point x="422" y="0" type="line"/>
      <point x="725" y="1556" type="line"/>
      <point x="365" y="1556" type="line"/>
    </contour>
  </outline>
</glyph>
<glyph name="m" format="2">
  <advance width="2134"/>
  <unicode hex="006D"/>
  <anchor x="242" y="0" name="cedilla"/>
  <anchor x="295" y="1520" name="half"/>
  <anchor x="1182" y="1147" name="above"/>
  <anchor x="960" y="0" name="below"/>
  <outline>
    <contour>
      <point x="1284" y="934" type="qcurve"/>
      <point x="1367" y="1037"/>
      <point x="1578" y="1147"/>
      <point x="1692" y="1147" type="qcurve" smooth="yes"/>
      <point x="1842" y="1147"/>
      <point x="2015" y="982"/>
      <point x="2015" y="838" type="qcurve" smooth="yes"/>
      <point x="2015" y="808"/>
      <point x="2006" y="731"/>
      <point x="1997" y="682" type="qcurve"/>
      <point x="1864" y="0" type="line"/>
      <point x="1503" y="0" type="line"/>
      <point x="1616" y="584" type="line"/>
      <point x="1619" y="599" type="line" smooth="yes"/>
      <point x="1645" y="723"/>
      <point x="1645" y="758" type="qcurve" smooth="yes"/>
      <point x="1645" y="813"/>
      <point x="1582" y="877"/>
      <point x="1528" y="877" type="qcurve" smooth="yes"/>
      <point x="1425" y="877"/>
      <point x="1282" y="708"/>
      <point x="1251" y="551" type="qcurve" smooth="yes"/>
      <point x="1143" y="0" type="line"/>
      <point x="782" y="0" type="line"/>
      <point x="897" y="584" type="line"/>
      <point x="912" y="659"/>
      <point x="924" y="736"/>
      <point x="924" y="758" type="qcurve" smooth="yes"/>
      <point x="924" y="814"/>
      <point x="862" y="877"/>
      <point x="807" y="877" type="qcurve" smooth="yes"/>
      <point x="708" y="877"/>
      <point x="559" y="702"/>
      <point x="530" y="551" type="qcurve"/>
      <point x="422" y="0" type="line"/>
      <point x="63" y="0" type="line"/>
      <point x="281" y="1120" type="line"/>
      <point x="641" y="1120" type="line"/>
      <point x="608" y="956" type="line"/>
      <point x="692" y="1051"/>
      <point x="882" y="1147"/>
      <point x="985" y="1147" type="qcurve" smooth="yes"/>
      <point x="1101" y="1147"/>
      <point x="1267" y="1028"/>
    </contour>
  </outline>
</glyph>
<glyph name="n" format="2">
  <advance width="1458"/>
  <unicode hex="006E"/>
  <anchor x="242" y="0" name="cedilla"/>
  <anchor x="570" y="0" name="below"/>
  <anchor x="295" y="1520" name="half"/>
  <anchor x="809" y="1147" name="above"/>
  <outline>
    <contour>
      <point x="63" y="0" type="line"/>
      <point x="422" y="0" type="line"/>
      <point x="530" y="551" type="line" smooth="yes"/>
      <point x="571" y="755"/>
      <point x="683" y="877"/>
      <point x="831" y="877" type="curve" smooth="yes"/>
      <point x="918" y="877"/>
      <point x="967" y="828"/>
      <point x="967" y="743" type="curve" smooth="yes"/>
      <point x="967" y="712"/>
      <point x="958" y="660"/>
      <point x="942" y="584" type="curve" smooth="yes"/>
      <point x="829" y="0" type="line"/>
      <point x="1188" y="0" type="line"/>
      <point x="1321" y="682" type="line" smooth="yes"/>
      <point x="1333" y="743"/>
      <point x="1339" y="795"/>
      <point x="1339" y="838" type="curve" smooth="yes"/>
      <point x="1339" y="1034"/>
      <point x="1223" y="1147"/>
      <point x="1016" y="1147" type="curve" smooth="yes"/>
      <point x="871" y="1147"/>
      <point x="740" y="1085"/>
      <point x="608" y="956" type="curve"/>
      <point x="641" y="1120" type="line"/>
      <point x="281" y="1120" type="line"/>
    </contour>
  </outline>
</glyph>
<glyph name="o" format="2">
  <advance width="1407"/>
  <unicode hex="006F"/>
  <anchor x="596" y="0" name="ogonek"/>
  <anchor x="596" y="0" name="above-legacy"/>
  <anchor x="295" y="1520" name="half"/>
  <anchor x="596" y="0" name="below"/>
  <anchor x="797" y="1147" name="above"/>
  <outline>
    <contour>
      <point x="606" y="-29" type="curve" smooth="yes"/>
      <point x="834" y="-29"/>
      <point x="1021" y="52"/>
      <point x="1157" y="209" type="curve" smooth="yes"/>
      <point x="1272" y="341"/>
      <point x="1333" y="505"/>
      <point x="1333" y="674" type="curve" smooth="yes"/>
      <point x="1333" y="966"/>
      <point x="1130" y="1147"/>
      <point x="797" y="1147" type="curve" smooth="yes"/>
      <point x="573" y="1147"/>
      <point x="385" y="1066"/>
      <point x="252" y="911" type="curve" smooth="yes"/>
      <point x="137" y="778"/>
      <point x="74" y="612"/>
      <point x="74" y="444" type="curve" smooth="yes"/>
      <point x="74" y="152"/>
      <point x="277" y="-29"/>
    </contour>
    <contour>
      <point x="639" y="227" type="curve" smooth="yes"/>
      <point x="515" y="227"/>
      <point x="449" y="303"/>
      <point x="449" y="444" type="curve" smooth="yes"/>
      <point x="449" y="704"/>
      <point x="583" y="891"/>
      <point x="768" y="891" type="curve" smooth="yes"/>
      <point x="892" y="891"/>
      <point x="958" y="816"/>
      <point x="958" y="676" type="curve" smooth="yes"/>
      <point x="958" y="415"/>
      <point x="824" y="227"/>
    </contour>
  </outline>
</glyph>
<glyph name="q" format="2">
  <advance width="1466"/>
  <unicode hex="0071"/>
  <anchor x="882" y="1147" name="above"/>
  <anchor x="295" y="1520" name="half"/>
  <anchor x="575" y="-430" name="below"/>
  <outline>
    <contour>
      <point x="735" y="-426" type="line"/>
      <point x="1096" y="-426" type="line"/>
      <point x="1397" y="1120" type="line"/>
      <point x="1036" y="1120" type="line"/>
      <point x="1006" y="956" type="line"/>
      <point x="931" y="1087"/>
      <point x="827" y="1147"/>
      <point x="674" y="1147" type="curve" smooth="yes"/>
      <point x="499" y="1147"/>
      <point x="344" y="1059"/>
      <point x="223" y="891" type="curve" smooth="yes"/>
      <point x="127" y="758"/>
      <point x="74" y="590"/>
      <point x="74" y="418" type="curve" smooth="yes"/>
      <point x="74" y="142"/>
      <point x="231" y="-29"/>
      <point x="483" y="-29" type="curve" smooth="yes"/>
      <point x="626" y="-29"/>
      <point x="743" y="31"/>
      <point x="850" y="162" type="curve"/>
    </contour>
    <contour>
      <point x="629" y="231" type="curve" smooth="yes"/>
      <point x="509" y="231"/>
      <point x="444" y="304"/>
      <point x="444" y="440" type="curve" smooth="yes"/>
      <point x="444" y="701"/>
      <point x="575" y="887"/>
      <point x="756" y="887" type="curve" smooth="yes"/>
      <point x="872" y="887"/>
      <point x="940" y="814"/>
      <point x="940" y="690" type="curve" smooth="yes"/>
      <point x="940" y="417"/>
      <point x="813" y="231"/>
    </contour>
  </outline>
</glyph>
<glyph name="r" format="2">
  <advance width="1010"/>
  <unicode hex="0072"/>
  <anchor x="295" y="1520" name="half"/>
  <anchor x="238.522" y="0" name="below"/>
  <anchor x="743" y="1147" name="above"/>
  <outline>
    <contour>
      <point x="1053" y="815" type="line"/>
      <point x="1016" y="836"/>
      <point x="926" y="858"/>
      <point x="874" y="858" type="qcurve" smooth="yes"/>
      <point x="737" y="858"/>
      <point x="556" y="682"/>
      <point x="524" y="516" type="qcurve"/>
      <point x="422" y="0" type="line"/>
      <point x="63" y="0" type="line"/>
      <point x="281" y="1120" type="line"/>
      <point x="641" y="1120" type="line"/>
      <point x="602" y="928" type="line"/>
      <point x="673" y="1034"/>
      <point x="886" y="1147"/>
      <point x="1016" y="1147" type="qcurve" smooth="yes"/>
      <point x="1035" y="1147"/>
      <point x="1083" y="1143"/>
      <point x="1116" y="1139" type="qcurve"/>
    </contour>
  </outline>
</glyph>
<glyph name="s" format="2">
  <advance width="1219"/>
  <unicode hex="0073"/>
  <anchor x="295" y="1520" name="half"/>
  <anchor x="493" y="0" name="below"/>
  <anchor x="721" y="1147" name="above"/>
  <outline>
    <contour>
      <point x="1147" y="1085" type="qcurve"/>
      <point x="1094" y="807" type="line"/>
      <point x="989" y="857"/>
      <point x="781" y="909"/>
      <point x="688" y="909" type="qcurve" smooth="yes"/>
      <point x="582" y="909"/>
      <point x="467" y="854"/>
      <point x="467" y="803" type="qcurve" smooth="yes"/>
      <point x="467" y="773"/>
      <point x="531" y="737"/>
      <point x="625" y="717" type="qcurve"/>
      <point x="690" y="705" type="line"/>
      <point x="907" y="659"/>
      <point x="1081" y="514"/>
      <point x="1081" y="385" type="qcurve" smooth="yes"/>
      <point x="1081" y="190"/>
      <point x="775" y="-29"/>
      <point x="500" y="-29" type="qcurve" smooth="yes"/>
      <point x="385" y="-29"/>
      <point x="145" y="7"/>
      <point x="20" y="43" type="qcurve"/>
      <point x="74" y="324" type="line"/>
      <point x="171" y="267"/>
      <point x="392" y="209"/>
      <point x="508" y="209" type="qcurve" smooth="yes"/>
      <point x="621" y="209"/>
      <point x="735" y="263"/>
      <point x="735" y="315" type="qcurve" smooth="yes"/>
      <point x="735" y="351"/>
      <point x="671" y="391"/>
      <point x="571" y="412" type="qcurve"/>
      <point x="506" y="424" type="line"/>
      <point x="314" y="464"/>
      <point x="150" y="620"/>
      <point x="150" y="758" type="qcurve" smooth="yes"/>
      <point x="150" y="945"/>
      <point x="433" y="1147"/>
      <point x="696" y="1147" type="qcurve" smooth="yes"/>
      <point x="811" y="1147"/>
      <point x="1034" y="1116"/>
    </contour>
  </outline>
</glyph>
<glyph name="t" format="2">
  <advance width="979"/>
  <unicode hex="0074"/>
  <anchor x="295" y="1520" name="half"/>
  <anchor x="550" y="1520" name="above"/>
  <anchor x="254" y="0" name="below"/>
  <outline>
    <contour>
      <point x="737" y="1438" type="line"/>
      <point x="676" y="1120" type="line"/>
      <point x="1042" y="1120" type="line"/>
      <point x="991" y="864" type="line"/>
      <point x="625" y="864" type="line"/>
      <point x="533" y="390" type="line"/>
      <point x="529" y="374"/>
      <point x="526" y="352"/>
      <point x="526" y="342" type="qcurve" smooth="yes"/>
      <point x="526" y="296"/>
      <point x="587" y="256"/>
      <point x="659" y="256" type="qcurve" smooth="yes"/>
      <point x="844" y="256" type="line"/>
      <point x="793" y="0" type="line"/>
      <point x="492" y="0" type="line" smooth="yes"/>
      <point x="330" y="0"/>
      <point x="160" y="136"/>
      <point x="160" y="264" type="qcurve" smooth="yes"/>
      <point x="160" y="292"/>
      <point x="166" y="356"/>
      <point x="172" y="389" type="qcurve"/>
      <point x="264" y="864" type="line"/>
      <point x="88" y="864" type="line"/>
      <point x="137" y="1120" type="line"/>
      <point x="315" y="1120" type="line"/>
      <point x="377" y="1438" type="line"/>
    </contour>
  </outline>
</glyph>
<glyph name="u" format="2">
  <advance width="1458"/>
  <unicode hex="0075"/>
  <anchor x="1103" y="0" name="ogonek"/>
  <anchor x="618" y="0" name="below"/>
  <anchor x="295" y="1520" name="half"/>
  <anchor x="821" y="1147" name="above"/>
  <outline>
    <contour>
      <point x="444" y="-29" type="curve" smooth="yes"/>
      <point x="593" y="-29"/>
      <point x="727" y="35"/>
      <point x="850" y="164" type="curve"/>
      <point x="817" y="0" type="line"/>
      <point x="1178" y="0" type="line"/>
      <point x="1395" y="1120" type="line"/>
      <point x="1036" y="1120" type="line"/>
      <point x="928" y="569" type="line" smooth="yes"/>
      <point x="888" y="365"/>
      <point x="775" y="244"/>
      <point x="627" y="244" type="curve" smooth="yes"/>
      <point x="540" y="244"/>
      <point x="492" y="293"/>
      <point x="492" y="377" type="curve" smooth="yes"/>
      <point x="492" y="408"/>
      <point x="500" y="461"/>
      <point x="516" y="537" type="curve" smooth="yes"/>
      <point x="629" y="1120" type="line"/>
      <point x="270" y="1120" type="line"/>
      <point x="139" y="436" type="line" smooth="yes"/>
      <point x="128" y="380"/>
      <point x="123" y="328"/>
      <point x="123" y="281" type="curve" smooth="yes"/>
      <point x="123" y="84"/>
      <point x="240" y="-29"/>
    </contour>
  </outline>
</glyph>
<glyph name="v" format="2">
  <advance width="1335"/>
  <unicode hex="0076"/>
  <anchor x="295" y="1520" name="half"/>
  <anchor x="782" y="1147" name="above"/>
  <anchor x="559" y="0" name="below"/>
  <outline>
    <contour>
      <point x="129" y="1120" type="line"/>
      <point x="459" y="1120" type="line"/>
      <point x="604" y="338" type="line"/>
      <point x="1026" y="1120" type="line"/>
      <point x="1389" y="1120" type="line"/>
      <point x="731" y="0" type="line"/>
      <point x="352" y="0" type="line"/>
    </contour>
  </outline>
</glyph>
<glyph name="w" format="2">
  <advance width="1892"/>
  <unicode hex="0077"/>
  <anchor x="837" y="0" name="below"/>
  <anchor x="295" y="1520" name="half"/>
  <anchor x="1068" y="1147" name="above"/>
  <outline>
    <contour>
      <point x="256" y="0" type="line"/>
      <point x="627" y="0" type="line"/>
      <point x="969" y="770" type="line"/>
      <point x="1006" y="0" type="line"/>
      <point x="1386" y="0" type="line"/>
      <point x="1898" y="1120" type="line"/>
      <point x="1546" y="1120" type="line"/>
      <point x="1210" y="352" type="line"/>
      <point x="1169" y="1120" type="line"/>
      <point x="885" y="1120" type="line"/>
      <point x="547" y="350" type="line"/>
      <point x="508" y="1120" type="line"/>
      <point x="178" y="1120" type="line"/>
    </contour>
  </outline>
</glyph>
<glyph name="x" format="2">
  <advance width="1321"/>
  <unicode hex="0078"/>
  <anchor x="773" y="1147" name="above"/>
  <anchor x="295" y="1520" name="half"/>
  <anchor x="550" y="0" name="below"/>
  <outline>
    <contour>
      <point x="-84" y="0" type="line"/>
      <point x="305" y="0" type="line"/>
      <point x="627" y="354" type="line"/>
      <point x="803" y="0" type="line"/>
      <point x="1176" y="0" type="line"/>
      <point x="864" y="575" type="line"/>
      <point x="1374" y="1120" type="line"/>
      <point x="985" y="1120" type="line"/>
      <point x="694" y="788" type="line"/>
      <point x="528" y="1120" type="line"/>
      <point x="156" y="1120" type="line"/>
      <point x="453" y="573" type="line"/>
    </contour>
  </outline>
</glyph>
<glyph name="y" format="2">
  <advance width="1335"/>
  <unicode hex="0079"/>
  <anchor x="146" y="-442" name="ogonek"/>
  <anchor x="512" y="-430" name="below"/>
  <anchor x="295" y="1520" name="half"/>
  <anchor x="801" y="1147" name="above"/>
  <outline>
    <contour>
      <point x="0" y="-442" type="line"/>
      <point x="217" y="-442" type="line" smooth="yes"/>
      <point x="430" y="-442"/>
      <point x="539" y="-382"/>
      <point x="698" y="-106" type="curve" smooth="yes"/>
      <point x="1407" y="1120" type="line"/>
      <point x="1024" y="1120" type="line"/>
      <point x="627" y="344" type="line"/>
      <point x="473" y="1120" type="line"/>
      <point x="135" y="1120" type="line"/>
      <point x="406" y="-14" type="line"/>
      <point x="373" y="-74" type="line" smooth="yes"/>
      <point x="322" y="-173"/>
      <point x="267" y="-207"/>
      <point x="150" y="-207" type="curve" smooth="yes"/>
      <point x="37" y="-207" type="line"/>
    </contour>
  </outline>
</glyph>
<glyph name="z" format="2">
  <advance width="1192"/>
  <unicode hex="007A"/>
  <anchor x="487" y="0" name="cedilla"/>
  <anchor x="487" y="0" name="ogonek"/>
  <anchor x="295" y="1520" name="half"/>
  <anchor x="487" y="0" name="below"/>
  <anchor x="676" y="1147" name="above"/>
  <outline>
    <contour>
      <point x="223" y="1120" type="line"/>
      <point x="1200" y="1120" type="line"/>
      <point x="1151" y="870" type="line"/>
      <point x="453" y="256" type="line"/>
      <point x="1032" y="256" type="line"/>
      <point x="983" y="0" type="line"/>
      <point x="-18" y="0" type="line"/>
      <point x="29" y="250" type="line"/>
      <point x="729" y="864" type="line"/>
      <point x="174" y="864" type="line"/>
    </contour>
  </outline>
</glyph>
<glyph name="braceleft" format="2">
  <advance width="1458"/>
  <unicode hex="007B"/>
  <outline>
    <contour>
      <point x="786" y="-334" type="curve" smooth="yes"/>
      <point x="1004" y="-334" type="line"/>
      <point x="1047" y="-109" type="line"/>
      <point x="979" y="-109" type="line" smooth="yes"/>
      <point x="824" y="-109"/>
      <point x="782" y="-79"/>
      <point x="782" y="10" type="curve" smooth="yes"/>
      <point x="782" y="33"/>
      <point x="785" y="60"/>
      <point x="797" y="121" type="curve" smooth="yes"/>
      <point x="829" y="287" type="line" smooth="yes"/>
      <point x="841" y="340"/>
      <point x="846" y="384"/>
      <point x="846" y="424" type="curve" smooth="yes"/>
      <point x="846" y="527"/>
      <point x="799" y="584"/>
      <point x="692" y="612" type="curve"/>
      <point x="844" y="645"/>
      <point x="914" y="728"/>
      <point x="954" y="936" type="curve" smooth="yes"/>
      <point x="987" y="1102" type="line" smooth="yes"/>
      <point x="1024" y="1291"/>
      <point x="1072" y="1331"/>
      <point x="1257" y="1331" type="curve" smooth="yes"/>
      <point x="1327" y="1331" type="line"/>
      <point x="1370" y="1556" type="line"/>
      <point x="1153" y="1556" type="line" smooth="yes"/>
      <point x="861" y="1556"/>
      <point x="713" y="1445"/>
      <point x="664" y="1188" type="curve" smooth="yes"/>
      <point x="625" y="983" type="line" smooth="yes"/>
      <point x="586" y="783"/>
      <point x="512" y="717"/>
      <point x="324" y="717" type="curve" smooth="yes"/>
      <point x="262" y="717" type="line"/>
      <point x="217" y="494" type="line"/>
      <point x="281" y="494" type="line" smooth="yes"/>
      <point x="437" y="494"/>
      <point x="489" y="451"/>
      <point x="489" y="334" type="curve" smooth="yes"/>
      <point x="489" y="305"/>
      <point x="485" y="267"/>
      <point x="477" y="227" type="curve" smooth="yes"/>
      <point x="440" y="34" type="line" smooth="yes"/>
      <point x="431" y="-19"/>
      <point x="426" y="-59"/>
      <point x="426" y="-88" type="curve" smooth="yes"/>
      <point x="426" y="-252"/>
      <point x="547" y="-334"/>
    </contour>
  </outline>
</glyph>
<glyph name="bar" format="2">
  <advance width="748"/>
  <unicode hex="007C"/>
  <outline>
    <contour>
      <point x="260" y="-483" type="line"/>
      <point x="487" y="-483" type="line"/>
      <point x="487" y="1565" type="line"/>
      <point x="260" y="1565" type="line"/>
    </contour>
  </outline>
</glyph>
<glyph name="braceright" format="2">
  <advance width="1458"/>
  <unicode hex="007D"/>
  <outline>
    <contour>
      <point x="90" y="-334" type="line"/>
      <point x="307" y="-334" type="line" smooth="yes"/>
      <point x="599" y="-334"/>
      <point x="748" y="-222"/>
      <point x="797" y="35" type="curve" smooth="yes"/>
      <point x="834" y="227" type="line" smooth="yes"/>
      <point x="873" y="427"/>
      <point x="947" y="494"/>
      <point x="1135" y="494" type="curve" smooth="yes"/>
      <point x="1196" y="494" type="line"/>
      <point x="1241" y="717" type="line"/>
      <point x="1178" y="717" type="line" smooth="yes"/>
      <point x="1023" y="717"/>
      <point x="969" y="760"/>
      <point x="969" y="877" type="curve" smooth="yes"/>
      <point x="969" y="906"/>
      <point x="973" y="943"/>
      <point x="981" y="983" type="curve" smooth="yes"/>
      <point x="1020" y="1188" type="line" smooth="yes"/>
      <point x="1029" y="1233"/>
      <point x="1034" y="1274"/>
      <point x="1034" y="1311" type="curve" smooth="yes"/>
      <point x="1034" y="1475"/>
      <point x="915" y="1556"/>
      <point x="676" y="1556" type="curve" smooth="yes"/>
      <point x="457" y="1556" type="line"/>
      <point x="414" y="1331" type="line"/>
      <point x="481" y="1331" type="line" smooth="yes"/>
      <point x="636" y="1331"/>
      <point x="678" y="1303"/>
      <point x="678" y="1212" type="curve" smooth="yes"/>
      <point x="678" y="1188"/>
      <point x="675" y="1158"/>
      <point x="664" y="1102" type="curve" smooth="yes"/>
      <point x="631" y="936" type="line" smooth="yes"/>
      <point x="620" y="876"/>
      <point x="614" y="831"/>
      <point x="614" y="799" type="curve" smooth="yes"/>
      <point x="614" y="695"/>
      <point x="663" y="637"/>
      <point x="770" y="612" type="curve"/>
      <point x="617" y="577"/>
      <point x="546" y="494"/>
      <point x="506" y="287" type="curve" smooth="yes"/>
      <point x="473" y="121" type="line" smooth="yes"/>
      <point x="437" y="-67"/>
      <point x="390" y="-109"/>
      <point x="203" y="-109" type="curve" smooth="yes"/>
      <point x="133" y="-109" type="line"/>
    </contour>
  </outline>
</glyph>
<glyph name="asciitilde" format="2">
  <advance width="1716"/>
  <unicode hex="007E"/>
  <outline>
    <contour>
      <point x="1499" y="850" type="qcurve"/>
      <point x="1499" y="606" type="line"/>
      <point x="1393" y="526"/>
      <point x="1214" y="457"/>
      <point x="1118" y="457" type="qcurve" smooth="yes"/>
      <point x="1011" y="457"/>
      <point x="868" y="515" type="qcurve" smooth="yes"/>
      <point x="854" y="521"/>
      <point x="846" y="524" type="qcurve" smooth="yes"/>
      <point x="839" y="527"/>
      <point x="824" y="533" type="qcurve" smooth="yes"/>
      <point x="669" y="594"/>
      <point x="575" y="594" type="qcurve" smooth="yes"/>
      <point x="487" y="594"/>
      <point x="315" y="517"/>
      <point x="217" y="434" type="qcurve"/>
      <point x="217" y="678" type="line"/>
      <point x="324" y="758"/>
      <point x="502" y="827"/>
      <point x="598" y="827" type="qcurve" smooth="yes"/>
      <point x="705" y="827"/>
      <point x="848" y="769" type="qcurve" smooth="yes"/>
      <point x="863" y="763"/>
      <point x="870" y="760" type="qcurve" smooth="yes"/>
      <point x="877" y="757"/>
      <point x="892" y="751" type="qcurve" smooth="yes"/>
      <point x="1047" y="690"/>
      <point x="1141" y="690" type="qcurve" smooth="yes"/>
      <point x="1227" y="690"/>
      <point x="1396" y="765"/>
    </contour>
  </outline>
</glyph>
<glyph name="exclamdown" format="2">
  <advance width="934"/>
  <unicode hex="00A1"/>
  <outline>
    <contour>
      <point x="141" y="-373" type="line"/>
      <point x="502" y="-373" type="line"/>
      <point x="614" y="200" type="line"/>
      <point x="643" y="618" type="line"/>
      <point x="385" y="618" type="line"/>
      <point x="254" y="200" type="line"/>
    </contour>
    <contour>
      <point x="362" y="764" type="line"/>
      <point x="723" y="764" type="line"/>
      <point x="793" y="1120" type="line"/>
      <point x="432" y="1120" type="line"/>
    </contour>
  </outline>
</glyph>
<glyph name="cent" format="2">
  <advance width="1425"/>
  <unicode hex="00A2"/>
  <outline>
    <contour>
      <point x="741" y="856" type="line"/>
      <point x="639" y="810"/>
      <point x="516" y="601"/>
      <point x="516" y="473" type="qcurve" smooth="yes"/>
      <point x="516" y="399"/>
      <point x="573" y="290"/>
      <point x="625" y="264" type="qcurve"/>
    </contour>
    <contour>
      <point x="1249" y="1085" type="qcurve"/>
      <point x="1192" y="793" type="line"/>
      <point x="1117" y="843"/>
      <point x="982" y="891"/>
      <point x="918" y="891" type="qcurve" smooth="yes"/>
      <point x="909" y="891" type="line"/>
      <point x="781" y="227" type="line"/>
      <point x="870" y="229"/>
      <point x="1029" y="278"/>
      <point x="1100" y="326" type="qcurve"/>
      <point x="1044" y="33" type="line"/>
      <point x="972" y="8"/>
      <point x="816" y="-22"/>
      <point x="731" y="-27" type="qcurve"/>
      <point x="676" y="-313" type="line"/>
      <point x="514" y="-313" type="line"/>
      <point x="569" y="-23" type="line"/>
      <point x="368" y="-1"/>
      <point x="137" y="232"/>
      <point x="137" y="414" type="qcurve" smooth="yes"/>
      <point x="137" y="705"/>
      <point x="501" y="1107"/>
      <point x="797" y="1141" type="qcurve"/>
      <point x="852" y="1432" type="line"/>
      <point x="1014" y="1432" type="line"/>
      <point x="959" y="1145" type="line"/>
      <point x="1027" y="1143"/>
      <point x="1173" y="1113"/>
    </contour>
  </outline>
</glyph>
<glyph name="sterling" format="2">
  <advance width="1425"/>
  <unicode hex="00A3"/>
  <outline>
    <contour>
      <point x="1415" y="1466" type="qcurve"/>
      <point x="1360" y="1180" type="line"/>
      <point x="1301" y="1217"/>
      <point x="1161" y="1257"/>
      <point x="1090" y="1257" type="qcurve" smooth="yes"/>
      <point x="965" y="1257"/>
      <point x="825" y="1134"/>
      <point x="799" y="1001" type="qcurve" smooth="yes"/>
      <point x="766" y="831" type="line"/>
      <point x="1139" y="831" type="line"/>
      <point x="1094" y="592" type="line"/>
      <point x="719" y="592" type="line"/>
      <point x="655" y="266" type="line"/>
      <point x="1196" y="266" type="line"/>
      <point x="1145" y="0" type="line"/>
      <point x="14" y="0" type="line"/>
      <point x="66" y="266" type="line"/>
      <point x="291" y="266" type="line"/>
      <point x="354" y="592" type="line"/>
      <point x="162" y="592" type="line"/>
      <point x="207" y="831" type="line"/>
      <point x="401" y="831" type="line"/>
      <point x="434" y="1001" type="line" smooth="yes"/>
      <point x="486" y="1271"/>
      <point x="788" y="1520"/>
      <point x="1063" y="1520" type="qcurve" smooth="yes"/>
      <point x="1155" y="1520"/>
      <point x="1331" y="1493"/>
    </contour>
  </outline>
</glyph>
<glyph name="currency" format="2">
  <advance width="1303"/>
  <unicode hex="00A4"/>
  <outline>
    <contour>
      <point x="227" y="61" type="line"/>
      <point x="434" y="268" type="line"/>
      <point x="505" y="231"/>
      <point x="576" y="213"/>
      <point x="653" y="213" type="curve" smooth="yes"/>
      <point x="737" y="213"/>
      <point x="807" y="232"/>
      <point x="868" y="272" type="curve"/>
      <point x="1075" y="66" type="line"/>
      <point x="1229" y="219" type="line"/>
      <point x="1022" y="426" type="line"/>
      <point x="1062" y="489"/>
      <point x="1081" y="557"/>
      <point x="1081" y="641" type="curve" smooth="yes"/>
      <point x="1081" y="713"/>
      <point x="1063" y="787"/>
      <point x="1024" y="860" type="curve"/>
      <point x="1231" y="1067" type="line"/>
      <point x="1079" y="1221" type="line"/>
      <point x="872" y="1014" type="line"/>
      <point x="796" y="1051"/>
      <point x="725" y="1069"/>
      <point x="653" y="1069" type="curve" smooth="yes"/>
      <point x="572" y="1069"/>
      <point x="500" y="1050"/>
      <point x="436" y="1010" type="curve"/>
      <point x="229" y="1217" type="line"/>
      <point x="76" y="1063" type="line"/>
      <point x="285" y="858" type="line"/>
      <point x="245" y="797"/>
      <point x="225" y="725"/>
      <point x="225" y="641" type="curve" smooth="yes"/>
      <point x="225" y="557"/>
      <point x="244" y="487"/>
      <point x="281" y="422" type="curve"/>
      <point x="74" y="215" type="line"/>
    </contour>
    <contour>
      <point x="653" y="422" type="curve" smooth="yes"/>
      <point x="529" y="422"/>
      <point x="434" y="517"/>
      <point x="434" y="641" type="curve" smooth="yes"/>
      <point x="434" y="764"/>
      <point x="532" y="860"/>
      <point x="653" y="860" type="curve" smooth="yes"/>
      <point x="776" y="860"/>
      <point x="872" y="764"/>
      <point x="872" y="641" type="curve" smooth="yes"/>
      <point x="872" y="518"/>
      <point x="774" y="422"/>
    </contour>
  </outline>
</glyph>
<glyph name="yen" format="2">
  <advance width="1425"/>
  <unicode hex="00A5"/>
  <outline>
    <contour>
      <point x="1294" y="416" type="line"/>
      <point x="840" y="416" type="line"/>
      <point x="758" y="0" type="line"/>
      <point x="377" y="0" type="line"/>
      <point x="459" y="416" type="line"/>
      <point x="12" y="416" type="line"/>
      <point x="51" y="610" type="line"/>
      <point x="496" y="610" type="line"/>
      <point x="510" y="686" type="line"/>
      <point x="481" y="762" type="line"/>
      <point x="80" y="762" type="line"/>
      <point x="117" y="954" type="line"/>
      <point x="408" y="954" type="line"/>
      <point x="193" y="1493" type="line"/>
      <point x="561" y="1493" type="line"/>
      <point x="756" y="993" type="line"/>
      <point x="1141" y="1493" type="line"/>
      <point x="1546" y="1493" type="line"/>
      <point x="1106" y="954" type="line"/>
      <point x="1399" y="954" type="line"/>
      <point x="1362" y="762" type="line"/>
      <point x="954" y="762" type="line"/>
      <point x="895" y="686" type="line"/>
      <point x="877" y="610" type="line"/>
      <point x="1331" y="610" type="line"/>
    </contour>
  </outline>
</glyph>
<glyph name="section" format="2">
  <advance width="1024"/>
  <unicode hex="00A7"/>
  <outline>
    <contour>
      <point x="1012" y="1462" type="qcurve"/>
      <point x="969" y="1235" type="line"/>
      <point x="879" y="1275"/>
      <point x="735" y="1313"/>
      <point x="674" y="1313" type="qcurve" smooth="yes"/>
      <point x="594" y="1313"/>
      <point x="500" y="1252"/>
      <point x="500" y="1202" type="qcurve" smooth="yes"/>
      <point x="500" y="1172"/>
      <point x="549" y="1122"/>
      <point x="606" y="1096" type="qcurve" smooth="yes"/>
      <point x="696" y="1055" type="line" smooth="yes"/>
      <point x="871" y="977"/>
      <point x="999" y="826"/>
      <point x="999" y="715" type="qcurve" smooth="yes"/>
      <point x="999" y="592"/>
      <point x="845" y="402"/>
      <point x="698" y="344" type="qcurve"/>
      <point x="755" y="308"/>
      <point x="809" y="220"/>
      <point x="809" y="166" type="qcurve" smooth="yes"/>
      <point x="809" y="4"/>
      <point x="527" y="-195"/>
      <point x="291" y="-195" type="qcurve" smooth="yes"/>
      <point x="207" y="-195"/>
      <point x="27" y="-166"/>
      <point x="-68" y="-137" type="qcurve"/>
      <point x="-20" y="100" type="line"/>
      <point x="82" y="57"/>
      <point x="242" y="14"/>
      <point x="303" y="14" type="qcurve" smooth="yes"/>
      <point x="380" y="14"/>
      <point x="477" y="77"/>
      <point x="477" y="125" type="qcurve" smooth="yes"/>
      <point x="477" y="156"/>
      <point x="429" y="203"/>
      <point x="350" y="240" type="qcurve" smooth="yes"/>
      <point x="215" y="301" type="line" smooth="yes"/>
      <point x="96" y="355"/>
      <point x="-16" y="502"/>
      <point x="-16" y="604" type="qcurve" smooth="yes"/>
      <point x="-16" y="727"/>
      <point x="131" y="918"/>
      <point x="272" y="977" type="qcurve"/>
      <point x="220" y="1018"/>
      <point x="170" y="1110"/>
      <point x="170" y="1163" type="qcurve" smooth="yes"/>
      <point x="170" y="1319"/>
      <point x="447" y="1520"/>
      <point x="668" y="1520" type="qcurve" smooth="yes"/>
      <point x="751" y="1520"/>
      <point x="923" y="1491"/>
    </contour>
    <contour>
      <point x="444" y="854" type="qcurve"/>
      <point x="364" y="833"/>
      <point x="279" y="744"/>
      <point x="279" y="682" type="qcurve" smooth="yes"/>
      <point x="279" y="621"/>
      <point x="376" y="535"/>
      <point x="539" y="471" type="qcurve"/>
      <point x="619" y="498"/>
      <point x="707" y="589"/>
      <point x="707" y="645" type="qcurve" smooth="yes"/>
      <point x="707" y="706"/>
      <point x="593" y="799"/>
    </contour>
  </outline>
</glyph>
<glyph name="dieresis" format="2">
  <advance width="1024"/>
  <unicode hex="00A8"/>
  <outline>
    <contour>
      <point x="311" y="1339" type="line"/>
      <point x="547" y="1339" type="line"/>
      <point x="596" y="1585" type="line"/>
      <point x="358" y="1585" type="line"/>
    </contour>
    <contour>
      <point x="707" y="1339" type="line"/>
      <point x="942" y="1339" type="line"/>
      <point x="991" y="1585" type="line"/>
      <point x="756" y="1585" type="line"/>
    </contour>
  </outline>
</glyph>
<glyph name="copyright" format="2">
  <advance width="2048"/>
  <unicode hex="00A9"/>
  <outline>
    <contour>
      <point x="1024" y="0" type="curve" smooth="yes"/>
      <point x="1227" y="0"/>
      <point x="1403" y="74"/>
      <point x="1548" y="219" type="curve" smooth="yes"/>
      <point x="1693" y="364"/>
      <point x="1765" y="538"/>
      <point x="1765" y="741" type="curve" smooth="yes"/>
      <point x="1765" y="946"/>
      <point x="1693" y="1121"/>
      <point x="1548" y="1266" type="curve" smooth="yes"/>
      <point x="1403" y="1411"/>
      <point x="1227" y="1485"/>
      <point x="1024" y="1485" type="curve" smooth="yes"/>
      <point x="821" y="1485"/>
      <point x="645" y="1411"/>
      <point x="500" y="1266" type="curve" smooth="yes"/>
      <point x="355" y="1121"/>
      <point x="283" y="946"/>
      <point x="283" y="741" type="curve" smooth="yes"/>
      <point x="283" y="538"/>
      <point x="355" y="364"/>
      <point x="500" y="219" type="curve" smooth="yes"/>
      <point x="645" y="74"/>
      <point x="821" y="0"/>
    </contour>
    <contour>
      <point x="1065" y="313" type="curve" smooth="yes"/>
      <point x="1148" y="313"/>
      <point x="1236" y="329"/>
      <point x="1323" y="358" type="curve"/>
      <point x="1323" y="571" type="line"/>
      <point x="1262" y="524"/>
      <point x="1183" y="500"/>
      <point x="1098" y="500" type="curve" smooth="yes"/>
      <point x="946" y="500"/>
      <point x="858" y="588"/>
      <point x="858" y="741" type="curve" smooth="yes"/>
      <point x="858" y="893"/>
      <point x="947" y="983"/>
      <point x="1098" y="983" type="curve" smooth="yes"/>
      <point x="1174" y="983"/>
      <point x="1247" y="960"/>
      <point x="1323" y="911" type="curve"/>
      <point x="1323" y="1126" type="line"/>
      <point x="1242" y="1155"/>
      <point x="1157" y="1169"/>
      <point x="1065" y="1169" type="curve" smooth="yes"/>
      <point x="784" y="1169"/>
      <point x="600" y="1001"/>
      <point x="600" y="741" type="curve" smooth="yes"/>
      <point x="600" y="482"/>
      <point x="784" y="313"/>
    </contour>
    <contour>
      <point x="1024" y="154" type="curve" smooth="yes"/>
      <point x="863" y="154"/>
      <point x="723" y="211"/>
      <point x="608" y="326" type="curve" smooth="yes"/>
      <point x="492" y="442"/>
      <point x="434" y="580"/>
      <point x="434" y="741" type="curve" smooth="yes"/>
      <point x="434" y="904"/>
      <point x="492" y="1041"/>
      <point x="608" y="1157" type="curve" smooth="yes"/>
      <point x="724" y="1273"/>
      <point x="863" y="1331"/>
      <point x="1024" y="1331" type="curve" smooth="yes"/>
      <point x="1185" y="1331"/>
      <point x="1323" y="1274"/>
      <point x="1440" y="1157" type="curve" smooth="yes"/>
      <point x="1556" y="1041"/>
      <point x="1614" y="904"/>
      <point x="1614" y="741" type="curve" smooth="yes"/>
      <point x="1614" y="580"/>
      <point x="1556" y="442"/>
      <point x="1440" y="326" type="curve" smooth="yes"/>
      <point x="1324" y="210"/>
      <point x="1188" y="154"/>
    </contour>
  </outline>
</glyph>
<glyph name="ordfeminine" format="2">
  <advance width="1155"/>
  <unicode hex="00AA"/>
  <outline>
    <contour>
      <point x="442" y="696" type="curve" smooth="yes"/>
      <point x="577" y="696"/>
      <point x="672" y="741"/>
      <point x="760" y="842" type="curve"/>
      <point x="735" y="717" type="line"/>
      <point x="983" y="717" type="line"/>
      <point x="1069" y="1165" type="line" smooth="yes"/>
      <point x="1076" y="1196"/>
      <point x="1079" y="1229"/>
      <point x="1079" y="1270" type="curve" smooth="yes"/>
      <point x="1079" y="1433"/>
      <point x="946" y="1520"/>
      <point x="698" y="1520" type="curve" smooth="yes"/>
      <point x="598" y="1520"/>
      <point x="481" y="1501"/>
      <point x="350" y="1464" type="curve"/>
      <point x="315" y="1284" type="line"/>
      <point x="428" y="1331"/>
      <point x="545" y="1354"/>
      <point x="662" y="1354" type="curve" smooth="yes"/>
      <point x="763" y="1354"/>
      <point x="815" y="1323"/>
      <point x="815" y="1264" type="curve" smooth="yes"/>
      <point x="815" y="1257"/>
      <point x="815" y="1251"/>
      <point x="815" y="1248" type="curve" smooth="yes"/>
      <point x="814" y="1245"/>
      <point x="814" y="1242"/>
      <point x="813" y="1239" type="curve"/>
      <point x="809" y="1219" type="line"/>
      <point x="668" y="1219" type="line" smooth="yes"/>
      <point x="344" y="1219"/>
      <point x="178" y="1114"/>
      <point x="178" y="907" type="curve" smooth="yes"/>
      <point x="178" y="774"/>
      <point x="275" y="696"/>
    </contour>
    <contour>
      <point x="88" y="373" type="line"/>
      <point x="903" y="373" type="line"/>
      <point x="942" y="573" type="line"/>
      <point x="127" y="573" type="line"/>
    </contour>
    <contour>
      <point x="547" y="858" type="curve" smooth="yes"/>
      <point x="476" y="858"/>
      <point x="432" y="895"/>
      <point x="432" y="954" type="curve" smooth="yes"/>
      <point x="432" y="1001"/>
      <point x="451" y="1034"/>
      <point x="488" y="1053" type="curve" smooth="yes"/>
      <point x="525" y="1072"/>
      <point x="593" y="1081"/>
      <point x="692" y="1081" type="curve" smooth="yes"/>
      <point x="782" y="1081" type="line"/>
      <point x="778" y="1059" type="line" smooth="yes"/>
      <point x="755" y="942"/>
      <point x="659" y="858"/>
    </contour>
  </outline>
</glyph>
<glyph name="guillemotleft" format="2">
  <advance width="1331"/>
  <unicode hex="00AB"/>
  <outline>
    <contour>
      <point x="1217" y="1063" type="line"/>
      <point x="1167" y="811" type="line"/>
      <point x="821" y="582" type="line"/>
      <point x="1079" y="360" type="line"/>
      <point x="1036" y="137" type="line"/>
      <point x="614" y="506" type="line"/>
      <point x="651" y="692" type="line"/>
    </contour>
    <contour>
      <point x="727" y="1063" type="line"/>
      <point x="678" y="811" type="line"/>
      <point x="332" y="582" type="line"/>
      <point x="590" y="360" type="line"/>
      <point x="547" y="137" type="line"/>
      <point x="125" y="506" type="line"/>
      <point x="162" y="692" type="line"/>
    </contour>
  </outline>
</glyph>
<glyph name="logicalnot" format="2">
  <advance width="1716"/>
  <unicode hex="00AC"/>
  <outline>
    <contour>
      <point x="217" y="909" type="line"/>
      <point x="1499" y="909" type="line"/>
      <point x="1499" y="287" type="line"/>
      <point x="1264" y="287" type="line"/>
      <point x="1264" y="672" type="line"/>
      <point x="217" y="672" type="line"/>
    </contour>
  </outline>
</glyph>
<glyph name="sfthyphen" format="2">
  <advance width="850"/>
  <unicode hex="00AD"/>
  <outline>
    <contour>
      <point x="51" y="444" type="line"/>
      <point x="680" y="444" type="line"/>
      <point x="737" y="735" type="line"/>
      <point x="109" y="735" type="line"/>
    </contour>
  </outline>
</glyph>
<glyph name="registered" format="2">
  <advance width="2048"/>
  <unicode hex="00AE"/>
  <outline>
    <contour>
      <point x="1024" y="1331" type="qcurve" smooth="yes"/>
      <point x="903" y="1331"/>
      <point x="695" y="1244"/>
      <point x="608" y="1157" type="qcurve" smooth="yes"/>
      <point x="521" y="1070"/>
      <point x="434" y="863"/>
      <point x="434" y="741" type="qcurve" smooth="yes"/>
      <point x="434" y="620"/>
      <point x="521" y="413"/>
      <point x="608" y="326" type="qcurve" smooth="yes"/>
      <point x="694" y="240"/>
      <point x="903" y="154"/>
      <point x="1024" y="154" type="qcurve" smooth="yes"/>
      <point x="1147" y="154"/>
      <point x="1353" y="239"/>
      <point x="1440" y="326" type="qcurve" smooth="yes"/>
      <point x="1527" y="413"/>
      <point x="1614" y="620"/>
      <point x="1614" y="741" type="qcurve" smooth="yes"/>
      <point x="1614" y="863"/>
      <point x="1527" y="1070"/>
      <point x="1440" y="1157" type="qcurve" smooth="yes"/>
      <point x="1352" y="1245"/>
      <point x="1145" y="1331"/>
    </contour>
    <contour>
      <point x="967" y="1036" type="qcurve" smooth="yes"/>
      <point x="932" y="1036" type="line"/>
      <point x="932" y="829" type="line"/>
      <point x="967" y="829" type="line" smooth="yes"/>
      <point x="1045" y="829"/>
      <point x="1124" y="882"/>
      <point x="1124" y="934" type="qcurve" smooth="yes"/>
      <point x="1124" y="986"/>
      <point x="1047" y="1036"/>
    </contour>
    <contour>
      <point x="1004" y="1174" type="line" smooth="yes"/>
      <point x="1180" y="1174"/>
      <point x="1354" y="1055"/>
      <point x="1354" y="934" type="qcurve" smooth="yes"/>
      <point x="1354" y="848"/>
      <point x="1249" y="736"/>
      <point x="1153" y="719" type="qcurve"/>
      <point x="1194" y="697"/>
      <point x="1265" y="617"/>
      <point x="1294" y="559" type="qcurve" smooth="yes"/>
      <point x="1405" y="338" type="line"/>
      <point x="1176" y="338" type="line"/>
      <point x="1069" y="551" type="line"/>
      <point x="1031" y="629"/>
      <point x="973" y="694"/>
      <point x="944" y="694" type="qcurve" smooth="yes"/>
      <point x="932" y="694" type="line"/>
      <point x="932" y="338" type="line"/>
      <point x="719" y="338" type="line"/>
      <point x="719" y="1174" type="line"/>
    </contour>
    <contour>
      <point x="1024" y="1485" type="qcurve" smooth="yes"/>
      <point x="1176" y="1485"/>
      <point x="1439" y="1375"/>
      <point x="1548" y="1266" type="qcurve" smooth="yes"/>
      <point x="1657" y="1157"/>
      <point x="1765" y="895"/>
      <point x="1765" y="741" type="qcurve" smooth="yes"/>
      <point x="1765" y="589"/>
      <point x="1657" y="328"/>
      <point x="1548" y="219" type="qcurve" smooth="yes"/>
      <point x="1439" y="110"/>
      <point x="1176" y="0"/>
      <point x="1024" y="0" type="qcurve" smooth="yes"/>
      <point x="872" y="0"/>
      <point x="609" y="110"/>
      <point x="500" y="219" type="qcurve" smooth="yes"/>
      <point x="391" y="328"/>
      <point x="283" y="589"/>
      <point x="283" y="741" type="qcurve" smooth="yes"/>
      <point x="283" y="895"/>
      <point x="391" y="1157"/>
      <point x="500" y="1266" type="qcurve" smooth="yes"/>
      <point x="609" y="1375"/>
      <point x="872" y="1485"/>
    </contour>
  </outline>
</glyph>
<glyph name="macron" format="2">
  <advance width="1024"/>
  <unicode hex="00AF"/>
  <outline>
    <contour>
      <point x="354" y="1556" type="line"/>
      <point x="985" y="1556" type="line"/>
      <point x="948" y="1368" type="line"/>
      <point x="317" y="1368" type="line"/>
    </contour>
  </outline>
</glyph>
<glyph name="twosuperior" format="2">
  <advance width="897"/>
  <unicode hex="00B2"/>
  <outline>
    <contour>
      <point x="424" y="836" type="line"/>
      <point x="801" y="836" type="line"/>
      <point x="768" y="668" type="line"/>
      <point x="92" y="668" type="line"/>
      <point x="123" y="821" type="line"/>
      <point x="489" y="1087" type="line" smooth="yes"/>
      <point x="569" y="1145"/>
      <point x="647" y="1244"/>
      <point x="647" y="1286" type="qcurve" smooth="yes"/>
      <point x="647" y="1326"/>
      <point x="582" y="1372"/>
      <point x="524" y="1372" type="qcurve" smooth="yes"/>
      <point x="456" y="1372"/>
      <point x="309" y="1326"/>
      <point x="238" y="1282" type="qcurve"/>
      <point x="274" y="1468" type="line"/>
      <point x="357" y="1494"/>
      <point x="506" y="1520"/>
      <point x="575" y="1520" type="qcurve" smooth="yes"/>
      <point x="724" y="1520"/>
      <point x="883" y="1411"/>
      <point x="883" y="1311" type="qcurve" smooth="yes"/>
      <point x="883" y="1232"/>
      <point x="775" y="1083"/>
      <point x="655" y="999" type="qcurve" smooth="yes"/>
    </contour>
  </outline>
</glyph>
<glyph name="threesuperior" format="2">
  <advance width="897"/>
  <unicode hex="00B3"/>
  <outline>
    <contour>
      <point x="666" y="1120" type="qcurve"/>
      <point x="741" y="1107"/>
      <point x="819" y="1014"/>
      <point x="819" y="938" type="qcurve" smooth="yes"/>
      <point x="819" y="801"/>
      <point x="585" y="653"/>
      <point x="369" y="653" type="qcurve" smooth="yes"/>
      <point x="289" y="653"/>
      <point x="144" y="677"/>
      <point x="82" y="700" type="qcurve"/>
      <point x="115" y="872" type="line"/>
      <point x="173" y="836"/>
      <point x="292" y="799"/>
      <point x="352" y="799" type="qcurve" smooth="yes"/>
      <point x="461" y="799"/>
      <point x="584" y="875"/>
      <point x="584" y="942" type="qcurve" smooth="yes"/>
      <point x="584" y="996"/>
      <point x="485" y="1047"/>
      <point x="381" y="1047" type="qcurve" smooth="yes"/>
      <point x="305" y="1047" type="line"/>
      <point x="332" y="1184" type="line"/>
      <point x="418" y="1184" type="line" smooth="yes"/>
      <point x="524" y="1184"/>
      <point x="637" y="1242"/>
      <point x="637" y="1296" type="qcurve" smooth="yes"/>
      <point x="637" y="1334"/>
      <point x="561" y="1372"/>
      <point x="487" y="1372" type="qcurve" smooth="yes"/>
      <point x="433" y="1372"/>
      <point x="306" y="1346"/>
      <point x="229" y="1319" type="qcurve"/>
      <point x="260" y="1485" type="line"/>
      <point x="332" y="1502"/>
      <point x="480" y="1520"/>
      <point x="553" y="1520" type="qcurve" smooth="yes"/>
      <point x="708" y="1520"/>
      <point x="874" y="1420"/>
      <point x="874" y="1327" type="qcurve" smooth="yes"/>
      <point x="874" y="1246"/>
      <point x="761" y="1134"/>
    </contour>
  </outline>
</glyph>
<glyph name="acute" format="2">
  <advance width="1024"/>
  <unicode hex="00B4"/>
  <outline>
    <contour>
      <point x="811" y="1638" type="line"/>
      <point x="1104" y="1638" type="line"/>
      <point x="666" y="1262" type="line"/>
      <point x="465" y="1262" type="line"/>
    </contour>
  </outline>
</glyph>
<glyph name="mu" format="2">
  <advance width="1507"/>
  <unicode hex="00B5"/>
  <outline>
    <contour>
      <point x="-55" y="-428" type="line"/>
      <point x="307" y="-428" type="line"/>
      <point x="403" y="66" type="line"/>
      <point x="432" y="2"/>
      <point x="493" y="-29"/>
      <point x="592" y="-29" type="curve" smooth="yes"/>
      <point x="709" y="-29"/>
      <point x="810" y="24"/>
      <point x="893" y="129" type="curve"/>
      <point x="920" y="20"/>
      <point x="983" y="-29"/>
      <point x="1100" y="-29" type="curve" smooth="yes"/>
      <point x="1160" y="-29"/>
      <point x="1224" y="-15"/>
      <point x="1300" y="16" type="curve"/>
      <point x="1350" y="266" type="line"/>
      <point x="1323" y="251"/>
      <point x="1297" y="244"/>
      <point x="1274" y="244" type="curve" smooth="yes"/>
      <point x="1237" y="244"/>
      <point x="1219" y="262"/>
      <point x="1219" y="301" type="curve" smooth="yes"/>
      <point x="1219" y="320"/>
      <point x="1222" y="343"/>
      <point x="1227" y="371" type="curve" smooth="yes"/>
      <point x="1372" y="1120" type="line"/>
      <point x="1012" y="1120" type="line"/>
      <point x="885" y="469" type="line" smooth="yes"/>
      <point x="853" y="313"/>
      <point x="775" y="240"/>
      <point x="639" y="240" type="curve" smooth="yes"/>
      <point x="530" y="240"/>
      <point x="471" y="294"/>
      <point x="471" y="391" type="curve" smooth="yes"/>
      <point x="471" y="414"/>
      <point x="474" y="441"/>
      <point x="479" y="469" type="curve" smooth="yes"/>
      <point x="606" y="1120" type="line"/>
      <point x="246" y="1120" type="line"/>
    </contour>
  </outline>
</glyph>
<glyph name="paragraph" format="2">
  <advance width="1303"/>
  <unicode hex="00B6"/>
  <outline>
    <contour>
      <point x="715" y="1493" type="qcurve" smooth="yes"/>
      <point x="1235" y="1493" type="line"/>
      <point x="907" y="-197" type="line"/>
      <point x="717" y="-197" type="line"/>
      <point x="1016" y="1346" type="line"/>
      <point x="827" y="1346" type="line"/>
      <point x="526" y="-197" type="line"/>
      <point x="338" y="-197" type="line"/>
      <point x="502" y="649" type="line"/>
      <point x="334" y="669"/>
      <point x="152" y="853"/>
      <point x="152" y="1001" type="qcurve" smooth="yes"/>
      <point x="152" y="1216"/>
      <point x="465" y="1493"/>
    </contour>
  </outline>
</glyph>
<glyph name="periodcentered" format="2">
  <advance width="778"/>
  <unicode hex="00B7"/>
  <outline>
    <contour>
      <point x="172" y="518" type="line"/>
      <point x="532" y="518" type="line"/>
      <point x="608" y="905" type="line"/>
      <point x="248" y="905" type="line"/>
    </contour>
  </outline>
</glyph>
<glyph name="cedilla" format="2">
  <advance width="1024"/>
  <unicode hex="00B8"/>
  <outline>
    <contour>
      <point x="242" y="-401" type="curve" smooth="yes"/>
      <point x="425" y="-401"/>
      <point x="530" y="-321"/>
      <point x="530" y="-182" type="curve" smooth="yes"/>
      <point x="530" y="-126"/>
      <point x="508" y="-69"/>
      <point x="459" y="0" type="curve"/>
      <point x="317" y="0" type="line"/>
      <point x="358" y="-73"/>
      <point x="375" y="-115"/>
      <point x="375" y="-150" type="curve" smooth="yes"/>
      <point x="375" y="-213"/>
      <point x="321" y="-254"/>
      <point x="233" y="-254" type="curve" smooth="yes"/>
      <point x="182" y="-254"/>
      <point x="127" y="-242"/>
      <point x="74" y="-219" type="curve"/>
      <point x="45" y="-375" type="line"/>
      <point x="113" y="-392"/>
      <point x="177" y="-401"/>
    </contour>
  </outline>
</glyph>
<glyph name="onesuperior" format="2">
  <advance width="897"/>
  <unicode hex="00B9"/>
  <outline>
    <contour>
      <point x="168" y="825" type="line"/>
      <point x="373" y="825" type="line"/>
      <point x="475" y="1346" type="line"/>
      <point x="242" y="1294" type="line"/>
      <point x="272" y="1454" type="line"/>
      <point x="516" y="1503" type="line"/>
      <point x="735" y="1503" type="line"/>
      <point x="602" y="825" type="line"/>
      <point x="809" y="825" type="line"/>
      <point x="778" y="668" type="line"/>
      <point x="137" y="668" type="line"/>
    </contour>
  </outline>
</glyph>
<glyph name="ordmasculine" format="2">
  <advance width="1155"/>
  <unicode hex="00BA"/>
  <outline>
    <contour>
      <point x="719" y="1520" type="qcurve" smooth="yes"/>
      <point x="902" y="1520"/>
      <point x="1116" y="1339"/>
      <point x="1116" y="1186" type="qcurve" smooth="yes"/>
      <point x="1116" y="967"/>
      <point x="821" y="698"/>
      <point x="578" y="698" type="qcurve" smooth="yes"/>
      <point x="396" y="698"/>
      <point x="178" y="881"/>
      <point x="178" y="1032" type="qcurve" smooth="yes"/>
      <point x="178" y="1249"/>
      <point x="476" y="1520"/>
    </contour>
    <contour>
      <point x="133" y="573" type="line"/>
      <point x="956" y="573" type="line"/>
      <point x="918" y="373" type="line"/>
      <point x="94" y="373" type="line"/>
    </contour>
    <contour>
      <point x="694" y="1350" type="qcurve" smooth="yes"/>
      <point x="595" y="1350"/>
      <point x="465" y="1165"/>
      <point x="465" y="1024" type="qcurve" smooth="yes"/>
      <point x="465" y="948"/>
      <point x="535" y="868"/>
      <point x="602" y="868" type="qcurve" smooth="yes"/>
      <point x="701" y="868"/>
      <point x="831" y="1052"/>
      <point x="831" y="1194" type="qcurve" smooth="yes"/>
      <point x="831" y="1269"/>
      <point x="760" y="1350"/>
    </contour>
  </outline>
</glyph>
<glyph name="guillemotright" format="2">
  <advance width="1331"/>
  <unicode hex="00BB"/>
  <outline>
    <contour>
      <point x="117" y="135" type="line"/>
      <point x="166" y="389" type="line"/>
      <point x="510" y="618" type="line"/>
      <point x="254" y="840" type="line"/>
      <point x="297" y="1063" type="line"/>
      <point x="717" y="692" type="line"/>
      <point x="682" y="506" type="line"/>
    </contour>
    <contour>
      <point x="606" y="135" type="line"/>
      <point x="655" y="389" type="line"/>
      <point x="999" y="618" type="line"/>
      <point x="741" y="840" type="line"/>
      <point x="786" y="1063" type="line"/>
      <point x="1206" y="692" type="line"/>
      <point x="1171" y="506" type="line"/>
    </contour>
  </outline>
</glyph>
<glyph name="questiondown" format="2">
  <advance width="1188"/>
  <unicode hex="00BF"/>
  <outline>
    <contour>
      <point x="492" y="-400" type="curve" smooth="yes"/>
      <point x="620" y="-400"/>
      <point x="757" y="-374"/>
      <point x="926" y="-318" type="curve"/>
      <point x="987" y="-4" type="line"/>
      <point x="835" y="-91"/>
      <point x="697" y="-137"/>
      <point x="590" y="-137" type="curve" smooth="yes"/>
      <point x="489" y="-137"/>
      <point x="434" y="-95"/>
      <point x="434" y="-19" type="curve" smooth="yes"/>
      <point x="434" y="53"/>
      <point x="477" y="119"/>
      <point x="584" y="200" type="curve" smooth="yes"/>
      <point x="659" y="260" type="line" smooth="yes"/>
      <point x="834" y="396"/>
      <point x="871" y="458"/>
      <point x="891" y="565" type="curve" smooth="yes"/>
      <point x="901" y="616" type="line"/>
      <point x="541" y="616" type="line"/>
      <point x="532" y="571" type="line" smooth="yes"/>
      <point x="521" y="515"/>
      <point x="496" y="476"/>
      <point x="385" y="389" type="curve" smooth="yes"/>
      <point x="309" y="329" type="line" smooth="yes"/>
      <point x="140" y="193"/>
      <point x="76" y="79"/>
      <point x="76" y="-80" type="curve" smooth="yes"/>
      <point x="76" y="-279"/>
      <point x="232" y="-400"/>
    </contour>
    <contour>
      <point x="569" y="764" type="line"/>
      <point x="930" y="764" type="line"/>
      <point x="999" y="1120" type="line"/>
      <point x="639" y="1120" type="line"/>
    </contour>
  </outline>
</glyph>
<glyph name="Aring" format="2">
  <advance width="1585"/>
  <unicode hex="00C5"/>
  <outline>
    <contour>
      <point x="795" y="1616" type="qcurve" smooth="yes"/>
      <point x="795" y="1562"/>
      <point x="872" y="1485"/>
      <point x="926" y="1485" type="qcurve" smooth="yes"/>
      <point x="980" y="1485"/>
      <point x="1057" y="1562"/>
      <point x="1057" y="1616" type="qcurve" smooth="yes"/>
      <point x="1057" y="1670"/>
      <point x="979" y="1747"/>
      <point x="926" y="1747" type="qcurve" smooth="yes"/>
      <point x="872" y="1747"/>
      <point x="795" y="1670"/>
    </contour>
    <contour>
      <point x="1155" y="1456" type="qcurve"/>
      <point x="1415" y="0" type="line"/>
      <point x="1049" y="0" type="line"/>
      <point x="1006" y="272" type="line"/>
      <point x="410" y="272" type="line"/>
      <point x="262" y="0" type="line"/>
      <point x="-133" y="0" type="line"/>
      <point x="692" y="1458" type="line"/>
      <point x="666" y="1495"/>
      <point x="641" y="1572"/>
      <point x="641" y="1616" type="qcurve" smooth="yes"/>
      <point x="641" y="1733"/>
      <point x="808" y="1901"/>
      <point x="926" y="1901" type="qcurve" smooth="yes"/>
      <point x="1043" y="1901"/>
      <point x="1210" y="1733"/>
      <point x="1210" y="1616" type="qcurve" smooth="yes"/>
      <point x="1210" y="1568"/>
      <point x="1184" y="1491"/>
    </contour>
    <contour>
      <point x="555" y="543" type="line"/>
      <point x="956" y="543" type="line"/>
      <point x="866" y="1118" type="line"/>
    </contour>
  </outline>
</glyph>
<glyph name="AE" format="2">
  <advance width="2222"/>
  <unicode hex="00C6"/>
  <outline>
    <contour>
      <point x="-160" y="0" type="line"/>
      <point x="225" y="0" type="line"/>
      <point x="442" y="350" type="line"/>
      <point x="934" y="350" type="line"/>
      <point x="866" y="0" type="line"/>
      <point x="1927" y="0" type="line"/>
      <point x="1982" y="291" type="line"/>
      <point x="1309" y="291" type="line"/>
      <point x="1374" y="633" type="line"/>
      <point x="1989" y="633" type="line"/>
      <point x="2046" y="924" type="line"/>
      <point x="1432" y="924" type="line"/>
      <point x="1485" y="1202" type="line"/>
      <point x="2138" y="1202" type="line"/>
      <point x="2195" y="1493" type="line"/>
      <point x="774" y="1493" type="line"/>
    </contour>
    <contour>
      <point x="610" y="627" type="line"/>
      <point x="985" y="1237" type="line"/>
      <point x="1106" y="1237" type="line"/>
      <point x="987" y="627" type="line"/>
    </contour>
  </outline>
</glyph>
<glyph name="Eth" format="2">
  <advance width="1731"/>
  <unicode hex="00D0"/>
  <outline>
    <contour>
      <point x="696" y="1202" type="line"/>
      <point x="639" y="903" type="line"/>
      <point x="885" y="903" type="line"/>
      <point x="834" y="643" type="line"/>
      <point x="588" y="643" type="line"/>
      <point x="518" y="291" type="line"/>
      <point x="655" y="291" type="line" smooth="yes"/>
      <point x="926" y="291"/>
      <point x="1241" y="594"/>
      <point x="1241" y="850" type="qcurve" smooth="yes"/>
      <point x="1241" y="1024"/>
      <point x="1034" y="1202"/>
      <point x="831" y="1202" type="qcurve" smooth="yes"/>
    </contour>
    <contour>
      <point x="367" y="1493" type="line"/>
      <point x="772" y="1493" type="line" smooth="yes"/>
      <point x="1062" y="1493"/>
      <point x="1352" y="1424"/>
      <point x="1448" y="1343" type="qcurve" smooth="yes"/>
      <point x="1545" y="1262"/>
      <point x="1645" y="1030"/>
      <point x="1645" y="885" type="qcurve" smooth="yes"/>
      <point x="1645" y="684"/>
      <point x="1476" y="324"/>
      <point x="1325" y="201" type="qcurve" smooth="yes"/>
      <point x="1193" y="92"/>
      <point x="844" y="0"/>
      <point x="481" y="0" type="qcurve" smooth="yes"/>
      <point x="76" y="0" type="line"/>
      <point x="201" y="643" type="line"/>
      <point x="-4" y="643" type="line"/>
      <point x="47" y="903" type="line"/>
      <point x="252" y="903" type="line"/>
    </contour>
  </outline>
</glyph>
<glyph name="multiply" format="2">
  <advance width="1716"/>
  <unicode hex="00D7"/>
  <outline>
    <contour>
      <point x="424" y="41" type="line"/>
      <point x="858" y="473" type="line"/>
      <point x="1292" y="41" type="line"/>
      <point x="1460" y="209" type="line"/>
      <point x="1026" y="641" type="line"/>
      <point x="1460" y="1075" type="line"/>
      <point x="1292" y="1243" type="line"/>
      <point x="858" y="809" type="line"/>
      <point x="424" y="1243" type="line"/>
      <point x="256" y="1075" type="line"/>
      <point x="690" y="641" type="line"/>
      <point x="256" y="209" type="line"/>
    </contour>
  </outline>
</glyph>
<glyph name="Oslash" format="2">
  <advance width="1741"/>
  <unicode hex="00D8"/>
  <anchor x="725" y="0" name="cedilla"/>
  <anchor x="725" y="0" name="below"/>
  <anchor x="1021" y="1520" name="above"/>
  <anchor x="295" y="1520" name="half"/>
  <anchor x="725" y="0" name="ogonek"/>
  <outline>
    <contour>
      <point x="1196" y="1128" type="line"/>
      <point x="1156" y="1185"/>
      <point x="1034" y="1241"/>
      <point x="952" y="1241" type="qcurve" smooth="yes"/>
      <point x="750" y="1241"/>
      <point x="481" y="884"/>
      <point x="481" y="612" type="qcurve" smooth="yes"/>
      <point x="481" y="590"/>
      <point x="485" y="538" type="qcurve" smooth="yes"/>
      <point x="485" y="532" type="line"/>
    </contour>
    <contour>
      <point x="158" y="258" type="line"/>
      <point x="116" y="332"/>
      <point x="74" y="489"/>
      <point x="74" y="569" type="qcurve" smooth="yes"/>
      <point x="74" y="752"/>
      <point x="184" y="1076"/>
      <point x="291" y="1206" type="qcurve" smooth="yes"/>
      <point x="420" y="1365"/>
      <point x="773" y="1520"/>
      <point x="1006" y="1520" type="qcurve" smooth="yes"/>
      <point x="1154" y="1520"/>
      <point x="1387" y="1442"/>
      <point x="1475" y="1364" type="qcurve"/>
      <point x="1733" y="1579" type="line"/>
      <point x="1835" y="1456" type="line"/>
      <point x="1577" y="1243" type="line"/>
      <point x="1622" y="1167"/>
      <point x="1667" y="1005"/>
      <point x="1667" y="920" type="qcurve" smooth="yes"/>
      <point x="1667" y="738"/>
      <point x="1556" y="414"/>
      <point x="1450" y="285" type="qcurve" smooth="yes"/>
      <point x="1320" y="127"/>
      <point x="964" y="-29"/>
      <point x="733" y="-29" type="qcurve" smooth="yes"/>
      <point x="586" y="-29"/>
      <point x="350" y="53"/>
      <point x="258" y="135" type="qcurve"/>
      <point x="6" y="-78" type="line"/>
      <point x="-96" y="45" type="line"/>
    </contour>
    <contour>
      <point x="539" y="371" type="line"/>
      <point x="578" y="312"/>
      <point x="700" y="250"/>
      <point x="778" y="250" type="qcurve" smooth="yes"/>
      <point x="893" y="250"/>
      <point x="1072" y="347"/>
      <point x="1135" y="442" type="qcurve" smooth="yes"/>
      <point x="1195" y="534"/>
      <point x="1262" y="763"/>
      <point x="1262" y="879" type="qcurve" smooth="yes"/>
      <point x="1262" y="904"/>
      <point x="1255" y="957" type="qcurve" smooth="yes"/>
      <point x="1254" y="965"/>
      <point x="1253" y="969" type="qcurve"/>
    </contour>
  </outline>
</glyph>
<glyph name="Thorn" format="2">
  <advance width="1520"/>
  <unicode hex="00DE"/>
  <outline>
    <contour>
      <point x="43" y="0" type="line"/>
      <point x="428" y="0" type="line"/>
      <point x="485" y="295" type="line"/>
      <point x="731" y="295" type="line" smooth="yes"/>
      <point x="976" y="295"/>
      <point x="1134" y="344"/>
      <point x="1253" y="459" type="curve" smooth="yes"/>
      <point x="1364" y="564"/>
      <point x="1423" y="708"/>
      <point x="1423" y="864" type="curve" smooth="yes"/>
      <point x="1423" y="1119"/>
      <point x="1235" y="1270"/>
      <point x="922" y="1270" type="curve" smooth="yes"/>
      <point x="676" y="1270" type="line"/>
      <point x="719" y="1493" type="line"/>
      <point x="334" y="1493" type="line"/>
    </contour>
    <contour>
      <point x="541" y="573" type="line"/>
      <point x="621" y="993" type="line"/>
      <point x="827" y="993" type="line" smooth="yes"/>
      <point x="958" y="993"/>
      <point x="1026" y="934"/>
      <point x="1026" y="825" type="curve" smooth="yes"/>
      <point x="1026" y="662"/>
      <point x="926" y="573"/>
      <point x="745" y="573" type="curve" smooth="yes"/>
    </contour>
  </outline>
</glyph>
<glyph name="germandbls" format="2">
  <advance width="1473"/>
  <unicode hex="00DF"/>
  <outline>
    <contour>
      <point x="279" y="1114" type="line"/>
      <point x="321" y="1338"/>
      <point x="630" y="1556"/>
      <point x="903" y="1556" type="qcurve" smooth="yes"/>
      <point x="1129" y="1556"/>
      <point x="1364" y="1380"/>
      <point x="1364" y="1210" type="qcurve" smooth="yes"/>
      <point x="1364" y="1190"/>
      <point x="1359" y="1142"/>
      <point x="1354" y="1115" type="qcurve"/>
      <point x="1339" y="1042" type="line"/>
      <point x="1188" y="1037"/>
      <point x="1010" y="944"/>
      <point x="1010" y="872" type="qcurve" smooth="yes"/>
      <point x="1010" y="817"/>
      <point x="1112" y="745" type="qcurve" smooth="yes"/>
      <point x="1121" y="739"/>
      <point x="1127" y="735" type="qcurve" smooth="yes"/>
      <point x="1188" y="692" type="line" smooth="yes"/>
      <point x="1272" y="633"/>
      <point x="1350" y="494"/>
      <point x="1350" y="403" type="qcurve" smooth="yes"/>
      <point x="1350" y="210"/>
      <point x="1072" y="-29"/>
      <point x="844" y="-29" type="qcurve" smooth="yes"/>
      <point x="766" y="-29"/>
      <point x="615" y="-4"/>
      <point x="541" y="20" type="qcurve"/>
      <point x="590" y="264" type="line"/>
      <point x="646" y="237"/>
      <point x="757" y="209"/>
      <point x="809" y="209" type="qcurve" smooth="yes"/>
      <point x="891" y="209"/>
      <point x="991" y="285"/>
      <point x="991" y="346" type="qcurve" smooth="yes"/>
      <point x="991" y="386"/>
      <point x="945" y="451"/>
      <point x="868" y="506" type="qcurve" smooth="yes"/>
      <point x="807" y="549" type="line" smooth="yes"/>
      <point x="740" y="596"/>
      <point x="680" y="697"/>
      <point x="680" y="760" type="qcurve" smooth="yes"/>
      <point x="680" y="898"/>
      <point x="863" y="1096"/>
      <point x="1036" y="1145" type="qcurve"/>
      <point x="1037" y="1151"/>
      <point x="1038" y="1167"/>
      <point x="1038" y="1182" type="qcurve" smooth="yes"/>
      <point x="1038" y="1249"/>
      <point x="956" y="1319"/>
      <point x="877" y="1319" type="qcurve" smooth="yes"/>
      <point x="775" y="1319"/>
      <point x="658" y="1212"/>
      <point x="637" y="1100" type="qcurve"/>
      <point x="422" y="0" type="line"/>
      <point x="63" y="0" type="line"/>
    </contour>
  </outline>
</glyph>
<glyph name="ae" format="2">
  <advance width="2146"/>
  <unicode hex="00E6"/>
  <anchor x="1177" y="1147" name="above"/>
  <anchor x="954" y="0" name="below"/>
  <outline>
    <contour>
      <point x="674" y="504" type="line" smooth="yes"/>
      <point x="540" y="504"/>
      <point x="403" y="421"/>
      <point x="403" y="340" type="qcurve" smooth="yes"/>
      <point x="403" y="279"/>
      <point x="484" y="209"/>
      <point x="555" y="209" type="qcurve" smooth="yes"/>
      <point x="665" y="209"/>
      <point x="813" y="342"/>
      <point x="838" y="463" type="qcurve"/>
      <point x="846" y="504" type="line"/>
    </contour>
    <contour>
      <point x="291" y="1090" type="line"/>
      <point x="408" y="1118"/>
      <point x="631" y="1147"/>
      <point x="735" y="1147" type="qcurve" smooth="yes"/>
      <point x="884" y="1147"/>
      <point x="1080" y="1074"/>
      <point x="1137" y="997" type="qcurve"/>
      <point x="1232" y="1074"/>
      <point x="1445" y="1147"/>
      <point x="1575" y="1147" type="qcurve" smooth="yes"/>
      <point x="1798" y="1147"/>
      <point x="2064" y="903"/>
      <point x="2064" y="702" type="qcurve" smooth="yes"/>
      <point x="2064" y="657"/>
      <point x="2054" y="565"/>
      <point x="2044" y="518" type="qcurve"/>
      <point x="2030" y="461" type="line"/>
      <point x="1194" y="461" type="line"/>
      <point x="1194" y="455"/>
      <point x="1192" y="432"/>
      <point x="1192" y="426" type="qcurve" smooth="yes"/>
      <point x="1192" y="317"/>
      <point x="1323" y="209"/>
      <point x="1454" y="209" type="qcurve" smooth="yes"/>
      <point x="1566" y="209"/>
      <point x="1815" y="276"/>
      <point x="1954" y="344" type="qcurve"/>
      <point x="1901" y="66" type="line"/>
      <point x="1770" y="18"/>
      <point x="1509" y="-29"/>
      <point x="1374" y="-29" type="qcurve" smooth="yes"/>
      <point x="1201" y="-29"/>
      <point x="965" y="74"/>
      <point x="899" y="178" type="qcurve"/>
      <point x="782" y="73"/>
      <point x="535" y="-29"/>
      <point x="397" y="-29" type="qcurve" smooth="yes"/>
      <point x="227" y="-29"/>
      <point x="35" y="133"/>
      <point x="35" y="274" type="qcurve" smooth="yes"/>
      <point x="35" y="490"/>
      <point x="366" y="717"/>
      <point x="682" y="717" type="qcurve" smooth="yes"/>
      <point x="887" y="717" type="line"/>
      <point x="893" y="746" type="line"/>
      <point x="896" y="759"/>
      <point x="897" y="771"/>
      <point x="897" y="776" type="qcurve" smooth="yes"/>
      <point x="897" y="842"/>
      <point x="773" y="909"/>
      <point x="653" y="909" type="qcurve" smooth="yes"/>
      <point x="539" y="909"/>
      <point x="332" y="863"/>
      <point x="238" y="817" type="qcurve"/>
    </contour>
    <contour>
      <point x="1706" y="682" type="line"/>
      <point x="1709" y="695"/>
      <point x="1712" y="722"/>
      <point x="1712" y="735" type="qcurve" smooth="yes"/>
      <point x="1712" y="815"/>
      <point x="1615" y="909"/>
      <point x="1534" y="909" type="qcurve" smooth="yes"/>
      <point x="1429" y="909"/>
      <point x="1280" y="793"/>
      <point x="1243" y="682" type="qcurve"/>
    </contour>
  </outline>
</glyph>
<glyph name="eth" format="2">
  <advance width="1407"/>
  <unicode hex="00F0"/>
  <anchor x="557" y="0" name="below"/>
  <anchor x="852" y="1520" name="above"/>
  <outline>
    <contour>
      <point x="604" y="-29" type="curve" smooth="yes"/>
      <point x="832" y="-29"/>
      <point x="1020" y="52"/>
      <point x="1155" y="207" type="curve" smooth="yes"/>
      <point x="1271" y="340"/>
      <point x="1333" y="507"/>
      <point x="1333" y="680" type="curve" smooth="yes"/>
      <point x="1333" y="835"/>
      <point x="1289" y="977"/>
      <point x="1204" y="1100" type="curve" smooth="yes"/>
      <point x="1049" y="1325" type="line"/>
      <point x="1389" y="1419" type="line"/>
      <point x="1354" y="1546" type="line"/>
      <point x="969" y="1440" type="line"/>
      <point x="887" y="1556" type="line"/>
      <point x="535" y="1556" type="line"/>
      <point x="672" y="1358" type="line"/>
      <point x="332" y="1264" type="line"/>
      <point x="367" y="1135" type="line"/>
      <point x="752" y="1243" type="line"/>
      <point x="903" y="1028" type="line"/>
      <point x="855" y="1045"/>
      <point x="796" y="1055"/>
      <point x="731" y="1055" type="curve" smooth="yes"/>
      <point x="340" y="1055"/>
      <point x="74" y="799"/>
      <point x="74" y="426" type="curve" smooth="yes"/>
      <point x="74" y="153"/>
      <point x="283" y="-29"/>
    </contour>
    <contour>
      <point x="643" y="227" type="curve" smooth="yes"/>
      <point x="518" y="227"/>
      <point x="449" y="306"/>
      <point x="449" y="451" type="curve" smooth="yes"/>
      <point x="449" y="662"/>
      <point x="565" y="797"/>
      <point x="752" y="797" type="curve" smooth="yes"/>
      <point x="821" y="797"/>
      <point x="889" y="779"/>
      <point x="958" y="743" type="curve"/>
      <point x="959" y="740"/>
      <point x="959" y="736"/>
      <point x="959" y="731" type="curve"/>
      <point x="962" y="704"/>
      <point x="963" y="687"/>
      <point x="963" y="678" type="curve" smooth="yes"/>
      <point x="963" y="414"/>
      <point x="830" y="227"/>
    </contour>
  </outline>
</glyph>
<glyph name="divide" format="2">
  <advance width="1716"/>
  <unicode hex="00F7"/>
  <outline>
    <contour>
      <point x="217" y="524" type="line"/>
      <point x="1499" y="524" type="line"/>
      <point x="1499" y="760" type="line"/>
      <point x="217" y="760" type="line"/>
    </contour>
    <contour>
      <point x="705" y="86" type="line"/>
      <point x="1012" y="86" type="line"/>
      <point x="1012" y="395" type="line"/>
      <point x="705" y="395" type="line"/>
    </contour>
    <contour>
      <point x="705" y="889" type="line"/>
      <point x="1012" y="889" type="line"/>
      <point x="1012" y="1198" type="line"/>
      <point x="705" y="1198" type="line"/>
    </contour>
  </outline>
</glyph>
<glyph name="oslash" format="2">
  <advance width="1407"/>
  <unicode hex="00F8"/>
  <anchor x="596" y="0" name="above-legacy"/>
  <anchor x="797" y="1147" name="above"/>
  <anchor x="596" y="0" name="below"/>
  <anchor x="295" y="1520" name="half"/>
  <anchor x="596" y="0" name="ogonek"/>
  <outline>
    <contour>
      <point x="905" y="842" type="line"/>
      <point x="882" y="866"/>
      <point x="813" y="891"/>
      <point x="768" y="891" type="qcurve" smooth="yes"/>
      <point x="628" y="891"/>
      <point x="459" y="652"/>
      <point x="449" y="438" type="qcurve"/>
    </contour>
    <contour>
      <point x="152" y="174" type="line"/>
      <point x="113" y="233"/>
      <point x="74" y="370"/>
      <point x="74" y="446" type="qcurve" smooth="yes"/>
      <point x="74" y="572"/>
      <point x="165" y="811"/>
      <point x="252" y="911" type="qcurve" smooth="yes"/>
      <point x="352" y="1028"/>
      <point x="629" y="1147"/>
      <point x="801" y="1147" type="qcurve" smooth="yes"/>
      <point x="905" y="1147"/>
      <point x="1077" y="1101"/>
      <point x="1145" y="1055" type="qcurve"/>
      <point x="1337" y="1223" type="line"/>
      <point x="1434" y="1112" type="line"/>
      <point x="1251" y="950" type="line"/>
      <point x="1292" y="891"/>
      <point x="1333" y="753"/>
      <point x="1333" y="674" type="qcurve" smooth="yes"/>
      <point x="1333" y="547"/>
      <point x="1243" y="308"/>
      <point x="1157" y="209" type="qcurve" smooth="yes"/>
      <point x="1056" y="93"/>
      <point x="775" y="-29"/>
      <point x="606" y="-29" type="qcurve" smooth="yes"/>
      <point x="497" y="-29"/>
      <point x="322" y="20"/>
      <point x="254" y="70" type="qcurve"/>
      <point x="61" y="-102" type="line"/>
      <point x="-35" y="10" type="line"/>
    </contour>
    <contour>
      <point x="498" y="283" type="line"/>
      <point x="523" y="255"/>
      <point x="592" y="227"/>
      <point x="639" y="227" type="qcurve" smooth="yes"/>
      <point x="780" y="227"/>
      <point x="951" y="475"/>
      <point x="958" y="692" type="qcurve"/>
    </contour>
  </outline>
</glyph>
<glyph name="thorn" format="2">
  <advance width="1466"/>
  <unicode hex="00FE"/>
  <outline>
    <contour>
      <point x="455" y="162" type="qcurve"/>
      <point x="340" y="-426" type="line"/>
      <point x="-20" y="-426" type="line"/>
      <point x="365" y="1556" type="line"/>
      <point x="725" y="1556" type="line"/>
      <point x="608" y="956" type="line"/>
      <point x="690" y="1054"/>
      <point x="870" y="1147"/>
      <point x="977" y="1147" type="qcurve" smooth="yes"/>
      <point x="1166" y="1147"/>
      <point x="1386" y="907"/>
      <point x="1386" y="700" type="qcurve" smooth="yes"/>
      <point x="1386" y="571"/>
      <point x="1309" y="327"/>
      <point x="1237" y="227" type="qcurve" smooth="yes"/>
      <point x="1146" y="101"/>
      <point x="917" y="-29"/>
      <point x="786" y="-29" type="qcurve" smooth="yes"/>
      <point x="671" y="-29"/>
      <point x="510" y="64"/>
    </contour>
    <contour>
      <point x="831" y="887" type="qcurve" smooth="yes"/>
      <point x="693" y="887"/>
      <point x="518" y="632"/>
      <point x="518" y="428" type="qcurve" smooth="yes"/>
      <point x="518" y="336"/>
      <point x="617" y="231"/>
      <point x="705" y="231" type="qcurve" smooth="yes"/>
      <point x="840" y="231"/>
      <point x="1016" y="482"/>
      <point x="1016" y="678" type="qcurve" smooth="yes"/>
      <point x="1016" y="780"/>
      <point x="921" y="887"/>
    </contour>
  </outline>
</glyph>
<glyph name="dcroat" format="2">
  <advance width="1466"/>
  <unicode hex="0111"/>
  <outline>
    <contour>
      <point x="483" y="-29" type="curve" smooth="yes"/>
      <point x="626" y="-29"/>
      <point x="743" y="31"/>
      <point x="852" y="162" type="curve"/>
      <point x="819" y="0" type="line"/>
      <point x="1180" y="0" type="line"/>
      <point x="1423" y="1251" type="line"/>
      <point x="1636" y="1251" type="line"/>
      <point x="1673" y="1440" type="line"/>
      <point x="1460" y="1440" type="line"/>
      <point x="1483" y="1556" type="line"/>
      <point x="1122" y="1556" type="line"/>
      <point x="1100" y="1440" type="line"/>
      <point x="705" y="1440" type="line"/>
      <point x="668" y="1251" type="line"/>
      <point x="1063" y="1251" type="line"/>
      <point x="1006" y="956" type="line"/>
      <point x="931" y="1087"/>
      <point x="827" y="1147"/>
      <point x="674" y="1147" type="curve" smooth="yes"/>
      <point x="499" y="1147"/>
      <point x="344" y="1059"/>
      <point x="223" y="891" type="curve" smooth="yes"/>
      <point x="127" y="758"/>
      <point x="74" y="590"/>
      <point x="74" y="418" type="curve" smooth="yes"/>
      <point x="74" y="142"/>
      <point x="231" y="-29"/>
    </contour>
    <contour>
      <point x="629" y="231" type="curve" smooth="yes"/>
      <point x="509" y="231"/>
      <point x="444" y="304"/>
      <point x="444" y="440" type="curve" smooth="yes"/>
      <point x="444" y="701"/>
      <point x="575" y="887"/>
      <point x="756" y="887" type="curve" smooth="yes"/>
      <point x="872" y="887"/>
      <point x="940" y="814"/>
      <point x="940" y="690" type="curve" smooth="yes"/>
      <point x="940" y="417"/>
      <point x="813" y="231"/>
    </contour>
  </outline>
</glyph>
<glyph name="Hbar" format="2">
  <advance width="1994"/>
  <unicode hex="0126"/>
  <anchor x="1145" y="1520" name="above"/>
  <anchor x="850" y="0" name="below"/>
  <outline>
    <contour>
      <point x="473" y="1493" type="line"/>
      <point x="858" y="1493" type="line"/>
      <point x="822" y="1306" type="line"/>
      <point x="1390" y="1306" type="line"/>
      <point x="1426" y="1493" type="line"/>
      <point x="1811" y="1493" type="line"/>
      <point x="1775" y="1306" type="line"/>
      <point x="1915" y="1306" type="line"/>
      <point x="1877" y="1112" type="line"/>
      <point x="1737" y="1112" type="line"/>
      <point x="1521" y="0" type="line"/>
      <point x="1136" y="0" type="line"/>
      <point x="1259" y="633" type="line"/>
      <point x="691" y="633" type="line"/>
      <point x="568" y="0" type="line"/>
      <point x="183" y="0" type="line"/>
      <point x="399" y="1112" type="line"/>
      <point x="259" y="1112" type="line"/>
      <point x="297" y="1306" type="line"/>
      <point x="437" y="1306" type="line"/>
    </contour>
    <contour>
      <point x="784" y="1112" type="line"/>
      <point x="748" y="924" type="line"/>
      <point x="1316" y="924" type="line"/>
      <point x="1352" y="1112" type="line"/>
    </contour>
  </outline>
</glyph>
<glyph name="hbar" format="2">
  <advance width="1618"/>
  <unicode hex="0127"/>
  <anchor x="677" y="1520" name="above"/>
  <outline>
    <contour>
      <point x="175" y="0" type="line"/>
      <point x="533" y="0" type="line"/>
      <point x="640" y="551" type="line" smooth="yes"/>
      <point x="680" y="755"/>
      <point x="794" y="877"/>
      <point x="943" y="877" type="curve" smooth="yes"/>
      <point x="974" y="877"/>
      <point x="1001" y="871"/>
      <point x="1022" y="858" type="curve" smooth="yes"/>
      <point x="1043" y="845"/>
      <point x="1058" y="826"/>
      <point x="1068" y="803" type="curve" smooth="yes"/>
      <point x="1073" y="790"/>
      <point x="1076" y="773"/>
      <point x="1076" y="750" type="curve" smooth="yes"/>
      <point x="1076" y="741"/>
      <point x="1075" y="732"/>
      <point x="1075" y="722" type="curve" smooth="yes"/>
      <point x="1071" y="682"/>
      <point x="1060" y="615"/>
      <point x="1042" y="520" type="curve" smooth="yes"/>
      <point x="941" y="0" type="line"/>
      <point x="1301" y="0" type="line"/>
      <point x="1434" y="682" type="line" smooth="yes"/>
      <point x="1444" y="737"/>
      <point x="1450" y="787"/>
      <point x="1450" y="833" type="curve" smooth="yes"/>
      <point x="1450" y="912"/>
      <point x="1433" y="977"/>
      <point x="1400" y="1028" type="curve" smooth="yes"/>
      <point x="1348" y="1107"/>
      <point x="1258" y="1147"/>
      <point x="1129" y="1147" type="curve" smooth="yes"/>
      <point x="1055" y="1147"/>
      <point x="985" y="1132"/>
      <point x="919" y="1101" type="curve" smooth="yes"/>
      <point x="852" y="1070"/>
      <point x="786" y="1021"/>
      <point x="719" y="956" type="curve"/>
      <point x="777" y="1255" type="line"/>
      <point x="1140" y="1255" type="line"/>
      <point x="1177" y="1449" type="line"/>
      <point x="814" y="1449" type="line"/>
      <point x="835" y="1556" type="line"/>
      <point x="477" y="1556" type="line"/>
      <point x="456" y="1449" type="line"/>
      <point x="296" y="1449" type="line"/>
      <point x="259" y="1255" type="line"/>
      <point x="419" y="1255" type="line"/>
    </contour>
  </outline>
</glyph>
<glyph name="dotlessi" format="2">
  <advance width="702"/>
  <unicode hex="0131"/>
  <anchor x="239" y="0" name="below"/>
  <anchor x="239" y="0" name="cedilla"/>
  <anchor x="295" y="1520" name="half"/>
  <anchor x="351" y="0" name="ogonek"/>
  <anchor x="463" y="1147" name="above"/>
  <outline>
    <contour>
      <point x="281" y="1120" type="line"/>
      <point x="641" y="1120" type="line"/>
      <point x="422" y="0" type="line"/>
      <point x="63" y="0" type="line"/>
    </contour>
  </outline>
</glyph>
<glyph name="kgreenlandic" format="2">
  <advance width="1362"/>
  <unicode hex="0138"/>
  <anchor x="589" y="0" name="below"/>
  <anchor x="812" y="1147" name="above"/>
  <outline>
    <contour>
      <point x="63" y="0" type="line"/>
      <point x="421" y="0" type="line"/>
      <point x="512" y="467" type="line"/>
      <point x="858" y="0" type="line"/>
      <point x="1292" y="0" type="line"/>
      <point x="820" y="606" type="line"/>
      <point x="1467" y="1120" type="line"/>
      <point x="1051" y="1120" type="line"/>
      <point x="559" y="709" type="line"/>
      <point x="639" y="1120" type="line"/>
      <point x="281" y="1120" type="line"/>
    </contour>
  </outline>
</glyph>
<glyph name="Lslash" format="2">
  <advance width="1352"/>
  <unicode hex="0141"/>
  <outline>
    <contour>
      <point x="410" y="1493" type="line"/>
      <point x="795" y="1493" type="line"/>
      <point x="694" y="977" type="line"/>
      <point x="1034" y="1128" type="line"/>
      <point x="1139" y="918" type="line"/>
      <point x="639" y="698" type="line"/>
      <point x="561" y="291" type="line"/>
      <point x="1235" y="291" type="line"/>
      <point x="1180" y="0" type="line"/>
      <point x="119" y="0" type="line"/>
      <point x="217" y="502" type="line"/>
      <point x="57" y="428" type="line"/>
      <point x="-47" y="643" type="line"/>
      <point x="270" y="778" type="line"/>
    </contour>
  </outline>
</glyph>
<glyph name="lslash" format="2">
  <advance width="768"/>
  <unicode hex="0142"/>
  <outline>
    <contour>
      <point x="104" y="0" type="line"/>
      <point x="465" y="0" type="line"/>
      <point x="614" y="770" type="line"/>
      <point x="934" y="915" type="line"/>
      <point x="834" y="1118" type="line"/>
      <point x="666" y="1040" type="line"/>
      <point x="768" y="1556" type="line"/>
      <point x="408" y="1556" type="line"/>
      <point x="274" y="868" type="line"/>
      <point x="-14" y="733" type="line"/>
      <point x="82" y="530" type="line"/>
      <point x="221" y="598" type="line"/>
    </contour>
  </outline>
</glyph>
<glyph name="Eng" format="2">
  <advance width="1714"/>
  <unicode hex="014A"/>
  <outline>
    <contour>
      <point x="640" y="-410" type="line"/>
      <point x="718" y="-410" type="line" smooth="yes"/>
      <point x="923" y="-410"/>
      <point x="1085" y="-364"/>
      <point x="1204" y="-272" type="curve" smooth="yes"/>
      <point x="1307" y="-192"/>
      <point x="1378" y="-53"/>
      <point x="1416" y="145" type="curve" smooth="yes"/>
      <point x="1564" y="903" type="line" smooth="yes"/>
      <point x="1579" y="984"/>
      <point x="1587" y="1064"/>
      <point x="1587" y="1146" type="curve" smooth="yes"/>
      <point x="1587" y="1227"/>
      <point x="1570" y="1299"/>
      <point x="1535" y="1362" type="curve" smooth="yes"/>
      <point x="1476" y="1467"/>
      <point x="1371" y="1520"/>
      <point x="1220" y="1520" type="curve" smooth="yes"/>
      <point x="1027" y="1520"/>
      <point x="865" y="1446"/>
      <point x="682" y="1266" type="curve"/>
      <point x="726" y="1493" type="line"/>
      <point x="354" y="1493" type="line"/>
      <point x="64" y="0" type="line"/>
      <point x="432" y="0" type="line"/>
      <point x="574" y="730" type="line" smooth="yes"/>
      <point x="626" y="999"/>
      <point x="784" y="1162"/>
      <point x="993" y="1162" type="curve" smooth="yes"/>
      <point x="1087" y="1162"/>
      <point x="1159" y="1122"/>
      <point x="1184" y="1073" type="curve" smooth="yes"/>
      <point x="1197" y="1049"/>
      <point x="1203" y="1015"/>
      <point x="1203" y="972" type="curve" smooth="yes"/>
      <point x="1203" y="929"/>
      <point x="1189" y="835"/>
      <point x="1161" y="691" type="curve" smooth="yes"/>
      <point x="1055" y="145" type="line" smooth="yes"/>
      <point x="1023" y="-23"/>
      <point x="917" y="-119"/>
      <point x="757" y="-119" type="curve" smooth="yes"/>
      <point x="697" y="-119" type="line"/>
    </contour>
  </outline>
</glyph>
<glyph name="eng" format="2">
  <advance width="1458"/>
  <unicode hex="014B"/>
  <outline>
    <contour>
      <point x="440" y="-442" type="line"/>
      <point x="721" y="-442" type="line" smooth="yes"/>
      <point x="858" y="-442"/>
      <point x="970" y="-403"/>
      <point x="1057" y="-324" type="curve" smooth="yes"/>
      <point x="1146" y="-243"/>
      <point x="1204" y="-129"/>
      <point x="1233" y="20" type="curve" smooth="yes"/>
      <point x="1362" y="682" type="line" smooth="yes"/>
      <point x="1373" y="737"/>
      <point x="1378" y="788"/>
      <point x="1378" y="833" type="curve" smooth="yes"/>
      <point x="1378" y="912"/>
      <point x="1362" y="977"/>
      <point x="1329" y="1028" type="curve" smooth="yes"/>
      <point x="1277" y="1107"/>
      <point x="1186" y="1147"/>
      <point x="1057" y="1147" type="curve" smooth="yes"/>
      <point x="984" y="1147"/>
      <point x="914" y="1131"/>
      <point x="847" y="1100" type="curve" smooth="yes"/>
      <point x="780" y="1069"/>
      <point x="714" y="1021"/>
      <point x="647" y="956" type="curve"/>
      <point x="679" y="1120" type="line"/>
      <point x="321" y="1120" type="line"/>
      <point x="103" y="0" type="line"/>
      <point x="461" y="0" type="line"/>
      <point x="569" y="551" type="line" smooth="yes"/>
      <point x="588" y="653"/>
      <point x="625" y="733"/>
      <point x="679" y="790" type="curve" smooth="yes"/>
      <point x="733" y="848"/>
      <point x="797" y="877"/>
      <point x="872" y="877" type="curve" smooth="yes"/>
      <point x="903" y="877"/>
      <point x="929" y="871"/>
      <point x="950" y="858" type="curve" smooth="yes"/>
      <point x="971" y="845"/>
      <point x="987" y="826"/>
      <point x="997" y="803" type="curve" smooth="yes"/>
      <point x="1002" y="790"/>
      <point x="1005" y="772"/>
      <point x="1005" y="748" type="curve" smooth="yes"/>
      <point x="1005" y="740"/>
      <point x="1005" y="731"/>
      <point x="1004" y="722" type="curve" smooth="yes"/>
      <point x="1001" y="685"/>
      <point x="990" y="619"/>
      <point x="971" y="522" type="curve" smooth="yes"/>
      <point x="873" y="20" type="line" smooth="yes"/>
      <point x="838" y="-160"/>
      <point x="787" y="-207"/>
      <point x="651" y="-207" type="curve" smooth="yes"/>
      <point x="485" y="-207" type="line"/>
    </contour>
  </outline>
</glyph>
<glyph name="OE" format="2">
  <advance width="2390"/>
  <unicode hex="0152"/>
  <outline>
    <contour>
      <point x="881" y="0" type="curve" smooth="yes"/>
      <point x="936" y="0" type="line"/>
      <point x="2095" y="0" type="line"/>
      <point x="2152" y="291" type="line"/>
      <point x="1477" y="291" type="line"/>
      <point x="1542" y="633" type="line"/>
      <point x="2157" y="633" type="line"/>
      <point x="2214" y="924" type="line"/>
      <point x="1599" y="924" type="line"/>
      <point x="1655" y="1202" type="line"/>
      <point x="2306" y="1202" type="line"/>
      <point x="2363" y="1493" type="line"/>
      <point x="1235" y="1493" type="line"/>
      <point x="1178" y="1493" type="line" smooth="yes"/>
      <point x="905" y="1493"/>
      <point x="701" y="1447"/>
      <point x="530" y="1350" type="curve" smooth="yes"/>
      <point x="253" y="1187"/>
      <point x="86" y="898"/>
      <point x="86" y="575" type="curve" smooth="yes"/>
      <point x="86" y="211"/>
      <point x="376" y="0"/>
    </contour>
    <contour>
      <point x="985" y="291" type="line" smooth="yes"/>
      <point x="645" y="291"/>
      <point x="489" y="403"/>
      <point x="489" y="647" type="curve" smooth="yes"/>
      <point x="489" y="827"/>
      <point x="588" y="1007"/>
      <point x="739" y="1106" type="curve" smooth="yes"/>
      <point x="840" y="1171"/>
      <point x="976" y="1202"/>
      <point x="1163" y="1202" type="curve" smooth="yes"/>
      <point x="1268" y="1202" type="line"/>
      <point x="1092" y="291" type="line"/>
    </contour>
  </outline>
</glyph>
<glyph name="oe" format="2">
  <advance width="2241"/>
  <unicode hex="0153"/>
  <anchor x="1021" y="0" name="below"/>
  <anchor x="1244" y="1147" name="above"/>
  <outline>
    <contour>
      <point x="612" y="-29" type="curve" smooth="yes"/>
      <point x="795" y="-29"/>
      <point x="933" y="22"/>
      <point x="1053" y="131" type="curve"/>
      <point x="1130" y="22"/>
      <point x="1259" y="-29"/>
      <point x="1466" y="-29" type="curve" smooth="yes"/>
      <point x="1647" y="-29"/>
      <point x="1818" y="2"/>
      <point x="1993" y="66" type="curve"/>
      <point x="2048" y="344" type="line"/>
      <point x="1864" y="255"/>
      <point x="1695" y="209"/>
      <point x="1546" y="209" type="curve" smooth="yes"/>
      <point x="1371" y="209"/>
      <point x="1284" y="281"/>
      <point x="1284" y="426" type="curve" smooth="yes"/>
      <point x="1284" y="430"/>
      <point x="1284" y="436"/>
      <point x="1285" y="444" type="curve" smooth="yes"/>
      <point x="1286" y="451"/>
      <point x="1286" y="457"/>
      <point x="1286" y="461" type="curve"/>
      <point x="2124" y="461" type="line"/>
      <point x="2136" y="518" type="line" smooth="yes"/>
      <point x="2151" y="586"/>
      <point x="2159" y="649"/>
      <point x="2159" y="702" type="curve" smooth="yes"/>
      <point x="2159" y="970"/>
      <point x="1966" y="1147"/>
      <point x="1669" y="1147" type="curve" smooth="yes"/>
      <point x="1486" y="1147"/>
      <point x="1335" y="1093"/>
      <point x="1210" y="985" type="curve"/>
      <point x="1125" y="1093"/>
      <point x="990" y="1147"/>
      <point x="803" y="1147" type="curve" smooth="yes"/>
      <point x="574" y="1147"/>
      <point x="385" y="1067"/>
      <point x="250" y="911" type="curve" smooth="yes"/>
      <point x="137" y="779"/>
      <point x="74" y="613"/>
      <point x="74" y="444" type="curve" smooth="yes"/>
      <point x="74" y="151"/>
      <point x="277" y="-29"/>
    </contour>
    <contour>
      <point x="639" y="227" type="curve" smooth="yes"/>
      <point x="515" y="227"/>
      <point x="449" y="303"/>
      <point x="449" y="444" type="curve" smooth="yes"/>
      <point x="449" y="704"/>
      <point x="583" y="891"/>
      <point x="768" y="891" type="curve" smooth="yes"/>
      <point x="892" y="891"/>
      <point x="958" y="816"/>
      <point x="958" y="676" type="curve" smooth="yes"/>
      <point x="958" y="415"/>
      <point x="824" y="227"/>
    </contour>
    <contour>
      <point x="1333" y="682" type="line"/>
      <point x="1382" y="829"/>
      <point x="1486" y="909"/>
      <point x="1626" y="909" type="curve" smooth="yes"/>
      <point x="1735" y="909"/>
      <point x="1804" y="842"/>
      <point x="1804" y="735" type="curve" smooth="yes"/>
      <point x="1804" y="718"/>
      <point x="1802" y="699"/>
      <point x="1798" y="682" type="curve"/>
    </contour>
  </outline>
</glyph>
<glyph name="Tbar" format="2">
  <advance width="1397"/>
  <unicode hex="0166"/>
  <anchor x="848" y="1520" name="above"/>
  <anchor x="553" y="0" name="below"/>
  <anchor x="150" y="1520" name="half"/>
  <outline>
    <contour>
      <point x="155" y="1493" type="line"/>
      <point x="1531" y="1493" type="line"/>
      <point x="1475" y="1202" type="line"/>
      <point x="980" y="1202" type="line"/>
      <point x="895" y="765" type="line"/>
      <point x="1142" y="765" type="line"/>
      <point x="1091" y="505" type="line"/>
      <point x="844" y="505" type="line"/>
      <point x="746" y="0" type="line"/>
      <point x="361" y="0" type="line"/>
      <point x="459" y="505" type="line"/>
      <point x="212" y="505" type="line"/>
      <point x="263" y="765" type="line"/>
      <point x="510" y="765" type="line"/>
      <point x="595" y="1202" type="line"/>
      <point x="99" y="1202" type="line"/>
    </contour>
  </outline>
</glyph>
<glyph name="tbar" format="2">
  <advance width="979"/>
  <unicode hex="0167"/>
  <anchor x="550" y="1520" name="above"/>
  <anchor x="254" y="0" name="below"/>
  <anchor x="156" y="1520" name="half"/>
  <outline>
    <contour>
      <point x="703" y="1438" type="line"/>
      <point x="641" y="1120" type="line"/>
      <point x="1010" y="1120" type="line"/>
      <point x="960" y="864" type="line"/>
      <point x="591" y="864" type="line"/>
      <point x="564" y="722" type="line"/>
      <point x="933" y="722" type="line"/>
      <point x="883" y="466" type="line"/>
      <point x="514" y="466" type="line"/>
      <point x="499" y="389" type="line" smooth="yes"/>
      <point x="484" y="311"/>
      <point x="509" y="284" type="qcurve" smooth="yes"/>
      <point x="535" y="256"/>
      <point x="627" y="256" type="qcurve" smooth="yes"/>
      <point x="811" y="256" type="line"/>
      <point x="761" y="0" type="line"/>
      <point x="454" y="0" type="line" smooth="yes"/>
      <point x="242" y="0"/>
      <point x="171" y="88" type="qcurve" smooth="yes"/>
      <point x="99" y="177"/>
      <point x="141" y="389" type="qcurve" smooth="yes"/>
      <point x="156" y="466" type="line"/>
      <point x="-22" y="466" type="line"/>
      <point x="28" y="722" type="line"/>
      <point x="206" y="722" type="line"/>
      <point x="233" y="864" type="line"/>
      <point x="55" y="864" type="line"/>
      <point x="105" y="1120" type="line"/>
      <point x="283" y="1120" type="line"/>
      <point x="345" y="1438" type="line"/>
    </contour>
  </outline>
</glyph>
<glyph name="longs" format="2">
  <advance width="891"/>
  <unicode hex="017F"/>
  <anchor x="243" y="0" name="below"/>
  <anchor x="683" y="1520" name="above"/>
  <anchor x="295" y="1520" name="half"/>
  <outline>
    <contour>
      <point x="111" y="0" type="line"/>
      <point x="471" y="0" type="line"/>
      <point x="705" y="1199" type="line" smooth="yes"/>
      <point x="714" y="1244"/>
      <point x="729" y="1275"/>
      <point x="752" y="1294" type="curve" smooth="yes"/>
      <point x="775" y="1312"/>
      <point x="812" y="1321"/>
      <point x="862" y="1321" type="curve" smooth="yes"/>
      <point x="1059" y="1321" type="line"/>
      <point x="1106" y="1556" type="line"/>
      <point x="831" y="1556" type="line" smooth="yes"/>
      <point x="543" y="1556"/>
      <point x="393" y="1446"/>
      <point x="344" y="1198" type="curve" smooth="yes"/>
      <point x="328" y="1120" type="line"/>
      <point x="152" y="1120" type="line"/>
      <point x="102" y="864" type="line"/>
      <point x="279" y="864" type="line"/>
    </contour>
  </outline>
</glyph>
<glyph name="uni0180" format="2">
  <advance width="1466"/>
  <unicode hex="0180"/>
  <anchor x="503" y="1520" name="above"/>
  <outline>
    <contour>
      <point x="567" y="956" type="line"/>
      <point x="660" y="1054"/>
      <point x="760" y="1100" type="qcurve" smooth="yes"/>
      <point x="859" y="1147"/>
      <point x="976" y="1147" type="qcurve" smooth="yes"/>
      <point x="1183" y="1147"/>
      <point x="1284" y="982" type="qcurve" smooth="yes"/>
      <point x="1385" y="818"/>
      <point x="1334" y="559" type="qcurve" smooth="yes"/>
      <point x="1284" y="300"/>
      <point x="1119" y="136" type="qcurve" smooth="yes"/>
      <point x="954" y="-29"/>
      <point x="747" y="-29" type="qcurve" smooth="yes"/>
      <point x="630" y="-29"/>
      <point x="549" y="18" type="qcurve" smooth="yes"/>
      <point x="468" y="64"/>
      <point x="413" y="162" type="qcurve"/>
      <point x="382" y="0" type="line"/>
      <point x="24" y="0" type="line"/>
      <point x="264" y="1237" type="line"/>
      <point x="110" y="1237" type="line"/>
      <point x="150" y="1442" type="line"/>
      <point x="304" y="1442" type="line"/>
      <point x="326" y="1556" type="line"/>
      <point x="684" y="1556" type="line"/>
      <point x="662" y="1442" type="line"/>
      <point x="990" y="1442" type="line"/>
      <point x="950" y="1237" type="line"/>
      <point x="622" y="1237" type="line"/>
    </contour>
    <contour>
      <point x="664" y="231" type="qcurve" smooth="yes"/>
      <point x="779" y="231"/>
      <point x="856" y="315" type="qcurve" smooth="yes"/>
      <point x="933" y="399"/>
      <point x="964" y="559" type="qcurve" smooth="yes"/>
      <point x="995" y="719"/>
      <point x="951" y="803" type="qcurve" smooth="yes"/>
      <point x="907" y="887"/>
      <point x="792" y="887" type="qcurve" smooth="yes"/>
      <point x="677" y="887"/>
      <point x="599" y="802" type="qcurve" smooth="yes"/>
      <point x="521" y="718"/>
      <point x="490" y="559" type="qcurve" smooth="yes"/>
      <point x="459" y="400"/>
      <point x="504" y="316" type="qcurve" smooth="yes"/>
      <point x="549" y="231"/>
    </contour>
  </outline>
</glyph>
<glyph name="uni0181" format="2">
  <advance width="1661"/>
  <unicode hex="0181"/>
  <anchor x="1027" y="1520" name="above"/>
  <outline>
    <contour>
      <point x="919" y="915" type="line" smooth="yes"/>
      <point x="1010" y="915"/>
      <point x="1065" y="955" type="qcurve" smooth="yes"/>
      <point x="1119" y="995"/>
      <point x="1134" y="1073" type="qcurve" smooth="yes"/>
      <point x="1149" y="1150"/>
      <point x="1110" y="1190" type="qcurve" smooth="yes"/>
      <point x="1071" y="1231"/>
      <point x="980" y="1231" type="qcurve" smooth="yes"/>
      <point x="767" y="1231" type="line"/>
      <point x="706" y="915" type="line"/>
    </contour>
    <contour>
      <point x="805" y="262" type="line" smooth="yes"/>
      <point x="921" y="262"/>
      <point x="989" y="311" type="qcurve" smooth="yes"/>
      <point x="1057" y="360"/>
      <point x="1076" y="459" type="qcurve" smooth="yes"/>
      <point x="1095" y="556"/>
      <point x="1046" y="604" type="qcurve" smooth="yes"/>
      <point x="998" y="653"/>
      <point x="881" y="653" type="qcurve" smooth="yes"/>
      <point x="655" y="653" type="line"/>
      <point x="579" y="262" type="line"/>
    </contour>
    <contour>
      <point x="1267" y="799" type="qcurve"/>
      <point x="1384" y="763"/>
      <point x="1433" y="666" type="qcurve" smooth="yes"/>
      <point x="1482" y="569"/>
      <point x="1455" y="428" type="qcurve" smooth="yes"/>
      <point x="1413" y="212"/>
      <point x="1246" y="106" type="qcurve" smooth="yes"/>
      <point x="1080" y="0"/>
      <point x="782" y="0" type="qcurve" smooth="yes"/>
      <point x="143" y="0" type="line"/>
      <point x="382" y="1231" type="line"/>
      <point x="309" y="1231"/>
      <point x="303" y="1230" type="qcurve" smooth="yes"/>
      <point x="257" y="1226"/>
      <point x="239" y="1210" type="qcurve" smooth="yes"/>
      <point x="202" y="1176"/>
      <point x="190" y="1126" type="qcurve" smooth="yes"/>
      <point x="186" y="1112"/>
      <point x="180" y="1079" type="qcurve"/>
      <point x="-75" y="1079" type="line"/>
      <point x="-60" y="1156" type="line" smooth="yes"/>
      <point x="-34" y="1294"/>
      <point x="27" y="1359" type="qcurve" smooth="yes"/>
      <point x="50" y="1383"/>
      <point x="88" y="1412" type="qcurve" smooth="yes"/>
      <point x="175" y="1475"/>
      <point x="317" y="1488" type="qcurve" smooth="yes"/>
      <point x="368" y="1493"/>
      <point x="433" y="1493" type="qcurve" smooth="yes"/>
      <point x="1011" y="1493" type="line" smooth="yes"/>
      <point x="1322" y="1493"/>
      <point x="1443" y="1399" type="qcurve" smooth="yes"/>
      <point x="1565" y="1305"/>
      <point x="1524" y="1098" type="qcurve" smooth="yes"/>
      <point x="1503" y="989"/>
      <point x="1437" y="912" type="qcurve" smooth="yes"/>
      <point x="1371" y="836"/>
    </contour>
  </outline>
</glyph>
<glyph name="uni0183" format="2">
  <advance width="1466"/>
  <unicode hex="0183"/>
  <outline>
    <contour>
      <point x="567" y="956" type="line"/>
      <point x="660" y="1054"/>
      <point x="760" y="1100" type="qcurve" smooth="yes"/>
      <point x="859" y="1147"/>
      <point x="976" y="1147" type="qcurve" smooth="yes"/>
      <point x="1183" y="1147"/>
      <point x="1284" y="982" type="qcurve" smooth="yes"/>
      <point x="1385" y="818"/>
      <point x="1334" y="559" type="qcurve" smooth="yes"/>
      <point x="1284" y="300"/>
      <point x="1119" y="136" type="qcurve" smooth="yes"/>
      <point x="954" y="-29"/>
      <point x="747" y="-29" type="qcurve" smooth="yes"/>
      <point x="630" y="-29"/>
      <point x="549" y="18" type="qcurve" smooth="yes"/>
      <point x="468" y="64"/>
      <point x="413" y="162" type="qcurve"/>
      <point x="382" y="0" type="line"/>
      <point x="24" y="0" type="line"/>
      <point x="326" y="1556" type="line"/>
      <point x="1355" y="1556" type="line"/>
      <point x="1298" y="1265" type="line"/>
      <point x="627" y="1265" type="line"/>
    </contour>
    <contour>
      <point x="664" y="231" type="qcurve" smooth="yes"/>
      <point x="779" y="231"/>
      <point x="856" y="315" type="qcurve" smooth="yes"/>
      <point x="933" y="399"/>
      <point x="964" y="559" type="qcurve" smooth="yes"/>
      <point x="995" y="719"/>
      <point x="951" y="803" type="qcurve" smooth="yes"/>
      <point x="907" y="887"/>
      <point x="792" y="887" type="qcurve" smooth="yes"/>
      <point x="677" y="887"/>
      <point x="599" y="802" type="qcurve" smooth="yes"/>
      <point x="521" y="718"/>
      <point x="490" y="559" type="qcurve" smooth="yes"/>
      <point x="459" y="400"/>
      <point x="504" y="316" type="qcurve" smooth="yes"/>
      <point x="549" y="231"/>
    </contour>
  </outline>
</glyph>
<glyph name="uni0184" format="2">
  <advance width="1561"/>
  <unicode hex="0184"/>
  <outline>
    <contour>
      <point x="786" y="262" type="line" smooth="yes"/>
      <point x="907" y="262"/>
      <point x="970" y="307" type="qcurve" smooth="yes"/>
      <point x="1037" y="356"/>
      <point x="1055" y="449" type="qcurve" smooth="yes"/>
      <point x="1073" y="540"/>
      <point x="1024" y="588" type="qcurve" smooth="yes"/>
      <point x="980" y="633"/>
      <point x="858" y="633" type="qcurve" smooth="yes"/>
      <point x="632" y="633" type="line"/>
      <point x="560" y="262" type="line"/>
    </contour>
    <contour>
      <point x="763" y="0" type="qcurve" smooth="yes"/>
      <point x="124" y="0" type="line"/>
      <point x="304" y="924" type="line"/>
      <point x="150" y="1104" type="line"/>
      <point x="799" y="1493" type="line"/>
      <point x="689" y="924" type="line"/>
      <point x="943" y="924" type="line" smooth="yes"/>
      <point x="1226" y="924"/>
      <point x="1364" y="807" type="qcurve" smooth="yes"/>
      <point x="1489" y="701"/>
      <point x="1442" y="461" type="qcurve" smooth="yes"/>
      <point x="1396" y="223"/>
      <point x="1230" y="117" type="qcurve" smooth="yes"/>
      <point x="1046" y="0"/>
    </contour>
  </outline>
</glyph>
<glyph name="uni0185" format="2">
  <advance width="1466"/>
  <unicode hex="0185"/>
  <outline>
    <contour>
      <point x="799" y="-29" type="curve" smooth="yes"/>
      <point x="937" y="-29"/>
      <point x="1061" y="26"/>
      <point x="1171" y="136" type="curve" smooth="yes"/>
      <point x="1281" y="245"/>
      <point x="1353" y="386"/>
      <point x="1386" y="559" type="curve" smooth="yes"/>
      <point x="1420" y="732"/>
      <point x="1403" y="873"/>
      <point x="1336" y="982" type="curve" smooth="yes"/>
      <point x="1269" y="1092"/>
      <point x="1166" y="1147"/>
      <point x="1028" y="1147" type="curve" smooth="yes"/>
      <point x="950" y="1147"/>
      <point x="878" y="1131"/>
      <point x="812" y="1100" type="curve" smooth="yes"/>
      <point x="745" y="1069"/>
      <point x="681" y="1021"/>
      <point x="619" y="956" type="curve"/>
      <point x="736" y="1556" type="line"/>
      <point x="118" y="1104" type="line"/>
      <point x="255" y="924" type="line"/>
      <point x="76" y="0" type="line"/>
      <point x="434" y="0" type="line"/>
      <point x="465" y="162" type="line"/>
      <point x="502" y="97"/>
      <point x="547" y="49"/>
      <point x="601" y="18" type="curve" smooth="yes"/>
      <point x="655" y="-13"/>
      <point x="721" y="-29"/>
    </contour>
    <contour>
      <point x="716" y="231" type="curve" smooth="yes"/>
      <point x="639" y="231"/>
      <point x="586" y="259"/>
      <point x="556" y="316" type="curve" smooth="yes"/>
      <point x="526" y="372"/>
      <point x="521" y="453"/>
      <point x="542" y="559" type="curve" smooth="yes"/>
      <point x="563" y="665"/>
      <point x="599" y="746"/>
      <point x="651" y="802" type="curve" smooth="yes"/>
      <point x="703" y="859"/>
      <point x="767" y="887"/>
      <point x="844" y="887" type="curve" smooth="yes"/>
      <point x="921" y="887"/>
      <point x="974" y="859"/>
      <point x="1003" y="803" type="curve" smooth="yes"/>
      <point x="1032" y="747"/>
      <point x="1037" y="666"/>
      <point x="1016" y="559" type="curve" smooth="yes"/>
      <point x="995" y="452"/>
      <point x="959" y="371"/>
      <point x="908" y="315" type="curve" smooth="yes"/>
      <point x="857" y="259"/>
      <point x="793" y="231"/>
    </contour>
  </outline>
</glyph>
<glyph name="uni0186" format="2">
  <advance width="1503"/>
  <unicode hex="0186"/>
  <anchor x="425" y="0" name="cedilla"/>
  <anchor x="425" y="0" name="below"/>
  <anchor x="295" y="1520" name="half"/>
  <anchor x="737" y="1520" name="above"/>
  <outline>
    <contour>
      <point x="444" y="-29" type="curve" smooth="yes"/>
      <point x="728" y="-29"/>
      <point x="982" y="86"/>
      <point x="1157" y="291" type="curve" smooth="yes"/>
      <point x="1305" y="466"/>
      <point x="1382" y="679"/>
      <point x="1382" y="918" type="curve" smooth="yes"/>
      <point x="1382" y="1281"/>
      <point x="1122" y="1520"/>
      <point x="721" y="1520" type="curve" smooth="yes"/>
      <point x="569" y="1520"/>
      <point x="399" y="1486"/>
      <point x="215" y="1421" type="curve"/>
      <point x="149" y="1090" type="line"/>
      <point x="337" y="1194"/>
      <point x="483" y="1241"/>
      <point x="618" y="1241" type="curve" smooth="yes"/>
      <point x="843" y="1241"/>
      <point x="979" y="1102"/>
      <point x="979" y="873" type="curve" smooth="yes"/>
      <point x="979" y="517"/>
      <point x="744" y="250"/>
      <point x="436" y="250" type="curve" smooth="yes"/>
      <point x="288" y="250"/>
      <point x="163" y="294"/>
      <point x="35" y="391" type="curve"/>
      <point x="-27" y="82" type="line"/>
      <point x="134" y="7"/>
      <point x="289" y="-29"/>
    </contour>
  </outline>
</glyph>
<glyph name="uni0187" format="2">
  <advance width="1503"/>
  <unicode hex="0187"/>
  <anchor x="1023" y="1520" name="above"/>
  <outline>
    <contour>
      <point x="724" y="-29" type="curve" smooth="yes"/>
      <point x="807" y="-29"/>
      <point x="889" y="-20"/>
      <point x="970" y="-1" type="curve" smooth="yes"/>
      <point x="1050" y="18"/>
      <point x="1129" y="45"/>
      <point x="1207" y="82" type="curve"/>
      <point x="1267" y="391" type="line"/>
      <point x="1186" y="342"/>
      <point x="1109" y="307"/>
      <point x="1035" y="284" type="curve" smooth="yes"/>
      <point x="962" y="261"/>
      <point x="887" y="250"/>
      <point x="810" y="250" type="curve" smooth="yes"/>
      <point x="673" y="250"/>
      <point x="573" y="294"/>
      <point x="511" y="382" type="curve" smooth="yes"/>
      <point x="450" y="470"/>
      <point x="434" y="591"/>
      <point x="464" y="745" type="curve" smooth="yes"/>
      <point x="494" y="900"/>
      <point x="557" y="1021"/>
      <point x="653" y="1109" type="curve" smooth="yes"/>
      <point x="748" y="1197"/>
      <point x="865" y="1241"/>
      <point x="1002" y="1241" type="curve" smooth="yes"/>
      <point x="1079" y="1241"/>
      <point x="1150" y="1230"/>
      <point x="1215" y="1207" type="curve" smooth="yes"/>
      <point x="1280" y="1184"/>
      <point x="1343" y="1149"/>
      <point x="1405" y="1100" type="curve"/>
      <point x="1451" y="1337" type="line" smooth="yes"/>
      <point x="1468" y="1424"/>
      <point x="1501" y="1489"/>
      <point x="1551" y="1534" type="curve" smooth="yes"/>
      <point x="1600" y="1579"/>
      <point x="1665" y="1601"/>
      <point x="1745" y="1601" type="curve" smooth="yes"/>
      <point x="1805" y="1601" type="line"/>
      <point x="1862" y="1892" type="line"/>
      <point x="1784" y="1892" type="line" smooth="yes"/>
      <point x="1579" y="1892"/>
      <point x="1417" y="1846"/>
      <point x="1298" y="1754" type="curve" smooth="yes"/>
      <point x="1221" y="1695"/>
      <point x="1162" y="1615"/>
      <point x="1119" y="1516" type="curve"/>
      <point x="1089" y="1519"/>
      <point x="1058" y="1520"/>
      <point x="1025" y="1520" type="curve" smooth="yes"/>
      <point x="776" y="1520"/>
      <point x="566" y="1451"/>
      <point x="394" y="1312" type="curve" smooth="yes"/>
      <point x="221" y="1173"/>
      <point x="112" y="984"/>
      <point x="66" y="745" type="curve" smooth="yes"/>
      <point x="19" y="507"/>
      <point x="55" y="319"/>
      <point x="174" y="180" type="curve" smooth="yes"/>
      <point x="292" y="41"/>
      <point x="475" y="-29"/>
    </contour>
  </outline>
</glyph>
<glyph name="uni0188" format="2">
  <advance width="1214"/>
  <unicode hex="0188"/>
  <anchor x="815" y="1147" name="above"/>
  <outline>
    <contour>
      <point x="1134" y="1021" type="qcurve" smooth="yes"/>
      <point x="1090" y="793" type="line"/>
      <point x="1027" y="843"/>
      <point x="958" y="867" type="qcurve" smooth="yes"/>
      <point x="889" y="891"/>
      <point x="810" y="891" type="qcurve" smooth="yes"/>
      <point x="660" y="891"/>
      <point x="559" y="804" type="qcurve" smooth="yes"/>
      <point x="459" y="716"/>
      <point x="428" y="559" type="qcurve" smooth="yes"/>
      <point x="398" y="402"/>
      <point x="464" y="314" type="qcurve" smooth="yes"/>
      <point x="531" y="227"/>
      <point x="681" y="227" type="qcurve" smooth="yes"/>
      <point x="765" y="227"/>
      <point x="845" y="252" type="qcurve" smooth="yes"/>
      <point x="926" y="277"/>
      <point x="999" y="326" type="qcurve"/>
      <point x="942" y="33" type="line"/>
      <point x="852" y="2"/>
      <point x="763" y="-14" type="qcurve" smooth="yes"/>
      <point x="673" y="-29"/>
      <point x="586" y="-29" type="qcurve" smooth="yes"/>
      <point x="283" y="-29"/>
      <point x="142" y="126" type="qcurve" smooth="yes"/>
      <point x="2" y="282"/>
      <point x="55" y="559" type="qcurve" smooth="yes"/>
      <point x="109" y="836"/>
      <point x="310" y="992" type="qcurve" smooth="yes"/>
      <point x="510" y="1146"/>
      <point x="810" y="1147" type="qcurve"/>
      <point x="859" y="1282"/>
      <point x="951" y="1364" type="qcurve" smooth="yes"/>
      <point x="1082" y="1483"/>
      <point x="1287" y="1483" type="qcurve" smooth="yes"/>
      <point x="1464" y="1483" type="line"/>
      <point x="1418" y="1248" type="line"/>
      <point x="1356" y="1248" type="line" smooth="yes"/>
      <point x="1254" y="1248"/>
      <point x="1207" y="1202" type="qcurve" smooth="yes"/>
      <point x="1160" y="1156"/>
    </contour>
  </outline>
</glyph>
<glyph name="uni018A" format="2">
  <advance width="1800"/>
  <unicode hex="018A"/>
  <anchor x="1027" y="1520" name="above"/>
  <outline>
    <contour>
      <point x="143" y="0" type="line"/>
      <point x="549" y="0" type="line" smooth="yes"/>
      <point x="773" y="0"/>
      <point x="944" y="16"/>
      <point x="1062" y="48" type="curve" smooth="yes"/>
      <point x="1180" y="81"/>
      <point x="1287" y="136"/>
      <point x="1382" y="213" type="curve" smooth="yes"/>
      <point x="1465" y="280"/>
      <point x="1533" y="358"/>
      <point x="1584" y="446" type="curve" smooth="yes"/>
      <point x="1635" y="535"/>
      <point x="1671" y="635"/>
      <point x="1693" y="748" type="curve" smooth="yes"/>
      <point x="1715" y="859"/>
      <point x="1717" y="959"/>
      <point x="1700" y="1047" type="curve" smooth="yes"/>
      <point x="1683" y="1134"/>
      <point x="1647" y="1212"/>
      <point x="1590" y="1280" type="curve" smooth="yes"/>
      <point x="1525" y="1357"/>
      <point x="1440" y="1412"/>
      <point x="1336" y="1444" type="curve" smooth="yes"/>
      <point x="1231" y="1477"/>
      <point x="1066" y="1493"/>
      <point x="839" y="1493" type="curve" smooth="yes"/>
      <point x="433" y="1493" type="line" smooth="yes"/>
      <point x="390" y="1493"/>
      <point x="351" y="1491"/>
      <point x="317" y="1488" type="curve" smooth="yes"/>
      <point x="222" y="1479"/>
      <point x="146" y="1454"/>
      <point x="88" y="1412" type="curve" smooth="yes"/>
      <point x="63" y="1393"/>
      <point x="42" y="1375"/>
      <point x="27" y="1359" type="curve" smooth="yes"/>
      <point x="-14" y="1316"/>
      <point x="-43" y="1248"/>
      <point x="-60" y="1156" type="curve" smooth="yes"/>
      <point x="-75" y="1079" type="line"/>
      <point x="180" y="1079" type="line"/>
      <point x="184" y="1101"/>
      <point x="187" y="1117"/>
      <point x="190" y="1126" type="curve"/>
      <point x="198" y="1159"/>
      <point x="214" y="1187"/>
      <point x="239" y="1210" type="curve" smooth="yes"/>
      <point x="251" y="1221"/>
      <point x="272" y="1227"/>
      <point x="303" y="1230" type="curve"/>
      <point x="307" y="1231"/>
      <point x="333" y="1231"/>
      <point x="382" y="1231" type="curve"/>
    </contour>
    <contour>
      <point x="584" y="291" type="line"/>
      <point x="762" y="1202" type="line"/>
      <point x="900" y="1202" type="line" smooth="yes"/>
      <point x="1058" y="1202"/>
      <point x="1171" y="1163"/>
      <point x="1238" y="1086" type="curve" smooth="yes"/>
      <point x="1305" y="1009"/>
      <point x="1325" y="896"/>
      <point x="1296" y="748" type="curve" smooth="yes"/>
      <point x="1267" y="599"/>
      <point x="1204" y="486"/>
      <point x="1106" y="408" type="curve" smooth="yes"/>
      <point x="1007" y="330"/>
      <point x="879" y="291"/>
      <point x="722" y="291" type="curve" smooth="yes"/>
    </contour>
  </outline>
</glyph>
<glyph name="uni018B" format="2">
  <advance width="1561"/>
  <unicode hex="018B"/>
  <outline>
    <contour>
      <point x="712" y="262" type="qcurve" smooth="yes"/>
      <point x="938" y="262" type="line"/>
      <point x="1010" y="633" type="line"/>
      <point x="784" y="633" type="line" smooth="yes"/>
      <point x="662" y="633"/>
      <point x="600" y="588" type="qcurve" smooth="yes"/>
      <point x="533" y="540"/>
      <point x="515" y="449" type="qcurve" smooth="yes"/>
      <point x="497" y="356"/>
      <point x="546" y="307" type="qcurve" smooth="yes"/>
      <point x="591" y="262"/>
    </contour>
    <contour>
      <point x="633" y="0" type="line" smooth="yes"/>
      <point x="350" y="0"/>
      <point x="212" y="117" type="qcurve" smooth="yes"/>
      <point x="86" y="223"/>
      <point x="133" y="461" type="qcurve" smooth="yes"/>
      <point x="179" y="701"/>
      <point x="346" y="807" type="qcurve" smooth="yes"/>
      <point x="530" y="924"/>
      <point x="813" y="924" type="qcurve" smooth="yes"/>
      <point x="1066" y="924" type="line"/>
      <point x="1121" y="1202" type="line"/>
      <point x="477" y="1202" type="line"/>
      <point x="533" y="1493" type="line"/>
      <point x="1562" y="1493" type="line"/>
      <point x="1272" y="0" type="line"/>
    </contour>
  </outline>
</glyph>
<glyph name="uni018C" format="2">
  <advance width="1466"/>
  <unicode hex="018C"/>
  <outline>
    <contour>
      <point x="411" y="-29" type="curve" smooth="yes"/>
      <point x="489" y="-29"/>
      <point x="561" y="-13"/>
      <point x="627" y="18" type="curve" smooth="yes"/>
      <point x="693" y="49"/>
      <point x="757" y="97"/>
      <point x="819" y="162" type="curve"/>
      <point x="788" y="0" type="line"/>
      <point x="1146" y="0" type="line"/>
      <point x="1448" y="1556" type="line"/>
      <point x="419" y="1556" type="line"/>
      <point x="362" y="1265" type="line"/>
      <point x="1031" y="1265" type="line"/>
      <point x="971" y="956" type="line"/>
      <point x="934" y="1023"/>
      <point x="890" y="1071"/>
      <point x="838" y="1100" type="curve" smooth="yes"/>
      <point x="784" y="1131"/>
      <point x="718" y="1147"/>
      <point x="640" y="1147" type="curve" smooth="yes"/>
      <point x="502" y="1147"/>
      <point x="378" y="1092"/>
      <point x="268" y="982" type="curve" smooth="yes"/>
      <point x="158" y="873"/>
      <point x="86" y="732"/>
      <point x="52" y="559" type="curve" smooth="yes"/>
      <point x="19" y="386"/>
      <point x="36" y="245"/>
      <point x="103" y="136" type="curve" smooth="yes"/>
      <point x="170" y="26"/>
      <point x="273" y="-29"/>
    </contour>
    <contour>
      <point x="594" y="231" type="curve" smooth="yes"/>
      <point x="518" y="231"/>
      <point x="465" y="259"/>
      <point x="436" y="315" type="curve" smooth="yes"/>
      <point x="407" y="371"/>
      <point x="402" y="452"/>
      <point x="423" y="559" type="curve" smooth="yes"/>
      <point x="444" y="666"/>
      <point x="480" y="747"/>
      <point x="531" y="803" type="curve" smooth="yes"/>
      <point x="582" y="859"/>
      <point x="646" y="887"/>
      <point x="722" y="887" type="curve" smooth="yes"/>
      <point x="799" y="887"/>
      <point x="852" y="859"/>
      <point x="881" y="803" type="curve" smooth="yes"/>
      <point x="910" y="747"/>
      <point x="915" y="666"/>
      <point x="894" y="559" type="curve" smooth="yes"/>
      <point x="873" y="452"/>
      <point x="837" y="371"/>
      <point x="786" y="315" type="curve" smooth="yes"/>
      <point x="735" y="259"/>
      <point x="671" y="231"/>
    </contour>
  </outline>
</glyph>
